<?xml version="1.0" encoding="UTF-8" standalone="no"?>
<!DOCTYPE svg PUBLIC "-//W3C//DTD SVG 1.1//EN"
 "http://www.w3.org/Graphics/SVG/1.1/DTD/svg11.dtd">
<!-- Generated by graphviz version 14.1.4 (20260321.0153)
 -->
<!-- Title: main Pages: 1 -->
<svg width="224pt" height="142pt"
 viewBox="0.00 0.00 224.00 142.00" xmlns="http://www.w3.org/2000/svg" xmlns:xlink="http://www.w3.org/1999/xlink">
<g id="graph0" class="graph" transform="scale(1 1) rotate(0) translate(4 138)">
<title>main</title>
<!-- Node1 -->
<g id="Node000001" class="node">
<title>Node1</title>
<g id="a_Node000001"><a xlink:title=" ">
<polygon fill="#999999" stroke="#666666" points="37,-77 0,-77 0,-57 37,-57 37,-77"/>
<text xml:space="preserve" text-anchor="middle" x="18.5" y="-63.5" font-family="Helvetica,sans-Serif" font-size="10.00">main</text>
</a>
</g>
</g>
<!-- Node2 -->
<g id="Node000002" class="node">
<title>Node2</title>
<g id="a_Node000002"><a xlink:href="class_simulator.html#a86a69c377e1d86f957751f076f870773" target="_top" xlink:title=" ">
<polygon fill="white" stroke="#666666" points="215.75,-134 73,-134 73,-114 215.75,-114 215.75,-134"/>
<text xml:space="preserve" text-anchor="middle" x="144.38" y="-120.5" font-family="Helvetica,sans-Serif" font-size="10.00">Simulator::addMassiveTraffic</text>
</a>
</g>
</g>
<!-- Node1&#45;&gt;Node2 -->
<g id="edge1_Node000001_Node000002" class="edge">
<title>Node1&#45;&gt;Node2</title>
<g id="a_edge1_Node000001_Node000002"><a xlink:title=" ">
<path fill="none" stroke="#63b8ff" d="M31.47,-77.4C41.83,-85.92 57.54,-97.71 73,-105 76.77,-106.78 80.74,-108.41 84.78,-109.91"/>
<polygon fill="#63b8ff" stroke="#63b8ff" points="83.58,-113.2 94.18,-113.08 85.82,-106.57 83.58,-113.2"/>
</a>
</g>
</g>
<!-- Node3 -->
<g id="Node000003" class="node">
<title>Node3</title>
<g id="a_Node000003"><a xlink:href="class_simulator.html#a0c77395e21ebfd639d84d0377c9d3a3d" target="_top" xlink:title=" ">
<polygon fill="white" stroke="#666666" points="186.5,-96 102.25,-96 102.25,-76 186.5,-76 186.5,-96"/>
<text xml:space="preserve" text-anchor="middle" x="144.38" y="-82.5" font-family="Helvetica,sans-Serif" font-size="10.00">Simulator::clear</text>
</a>
</g>
</g>
<!-- Node1&#45;&gt;Node3 -->
<g id="edge2_Node000001_Node000003" class="edge">
<title>Node1&#45;&gt;Node3</title>
<g id="a_edge2_Node000001_Node000003"><a xlink:title=" ">
<path fill="none" stroke="#63b8ff" d="M37.25,-69.72C51.22,-71.87 71.45,-74.97 90.51,-77.89"/>
<polygon fill="#63b8ff" stroke="#63b8ff" points="89.94,-81.34 100.35,-79.4 91,-74.43 89.94,-81.34"/>
</a>
</g>
</g>
<!-- Node4 -->
<g id="Node000004" class="node">
<title>Node4</title>
<g id="a_Node000004"><a xlink:href="class_simulator.html#a750786921afa694ded3f53e9349cfef2" target="_top" xlink:title=" ">
<polygon fill="white" stroke="#666666" points="182.75,-58 106,-58 106,-38 182.75,-38 182.75,-58"/>
<text xml:space="preserve" text-anchor="middle" x="144.38" y="-44.5" font-family="Helvetica,sans-Serif" font-size="10.00">Simulator::run</text>
</a>
</g>
</g>
<!-- Node1&#45;&gt;Node4 -->
<g id="edge3_Node000001_Node000004" class="edge">
<title>Node1&#45;&gt;Node4</title>
<g id="a_edge3_Node000001_Node000004"><a xlink:title=" ">
<path fill="none" stroke="#63b8ff" d="M37.25,-64.28C52.19,-61.99 74.3,-58.59 94.48,-55.5"/>
<polygon fill="#63b8ff" stroke="#63b8ff" points="94.89,-58.98 104.25,-54 93.83,-52.06 94.89,-58.98"/>
</a>
</g>
</g>
<!-- Node5 -->
<g id="Node000005" class="node">
<title>Node5</title>
<g id="a_Node000005"><a xlink:href="class_simulator.html#a3a5d14505bf355eba440349bab13348d" target="_top" xlink:title=" ">
<polygon fill="white" stroke="#666666" points="206.38,-20 82.38,-20 82.38,0 206.38,0 206.38,-20"/>
<text xml:space="preserve" text-anchor="middle" x="144.38" y="-6.5" font-family="Helvetica,sans-Serif" font-size="10.00">Simulator::setupNetwork</text>
</a>
</g>
</g>
<!-- Node1&#45;&gt;Node5 -->
<g id="edge4_Node000001_Node000005" class="edge">
<title>Node1&#45;&gt;Node5</title>
<g id="a_edge4_Node000001_Node000005"><a xlink:title=" ">
<path fill="none" stroke="#63b8ff" d="M31.47,-56.6C41.83,-48.08 57.54,-36.29 73,-29 76.77,-27.22 80.74,-25.59 84.78,-24.09"/>
<polygon fill="#63b8ff" stroke="#63b8ff" points="85.82,-27.43 94.18,-20.92 83.58,-20.8 85.82,-27.43"/>
</a>
</g>
</g>
</g>
</svg>
