<?xml version="1.0" encoding="UTF-8" standalone="no"?>
<!DOCTYPE svg PUBLIC "-//W3C//DTD SVG 1.1//EN"
 "http://www.w3.org/Graphics/SVG/1.1/DTD/svg11.dtd">
<!-- Generated by graphviz version 14.1.4 (20260321.0153)
 -->
<!-- Title: Manager::Car_timing_file Pages: 1 -->
<svg width="392pt" height="28pt"
 viewBox="0.00 0.00 392.00 28.00" xmlns="http://www.w3.org/2000/svg" xmlns:xlink="http://www.w3.org/1999/xlink">
<g id="graph0" class="graph" transform="scale(1 1) rotate(0) translate(4 24)">
<title>Manager::Car_timing_file</title>
<!-- Node1 -->
<g id="Node000001" class="node">
<title>Node1</title>
<g id="a_Node000001"><a xlink:title=" ">
<polygon fill="#999999" stroke="#666666" points="384,-20 259.25,-20 259.25,0 384,0 384,-20"/>
<text xml:space="preserve" text-anchor="middle" x="321.62" y="-6.5" font-family="Helvetica,sans-Serif" font-size="10.00">Manager::Car_timing_file</text>
</a>
</g>
</g>
<!-- Node2 -->
<g id="Node000002" class="node">
<title>Node2</title>
<g id="a_Node000002"><a xlink:href="class_manager.html#a66ab5b09246caed3e30768721639ee25" target="_top" xlink:title=" ">
<polygon fill="white" stroke="#666666" points="223.25,-20 129.25,-20 129.25,0 223.25,0 223.25,-20"/>
<text xml:space="preserve" text-anchor="middle" x="176.25" y="-6.5" font-family="Helvetica,sans-Serif" font-size="10.00">Manager::reached</text>
</a>
</g>
</g>
<!-- Node1&#45;&gt;Node2 -->
<g id="edge1_Node000001_Node000002" class="edge">
<title>Node1&#45;&gt;Node2</title>
<g id="a_edge1_Node000001_Node000002"><a xlink:title=" ">
<path fill="none" stroke="#63b8ff" d="M247.54,-10C239.42,-10 231.33,-10 223.68,-10"/>
<polygon fill="#63b8ff" stroke="#63b8ff" points="247.48,-13.5 257.48,-10 247.48,-6.5 247.48,-13.5"/>
</a>
</g>
</g>
<!-- Node3 -->
<g id="Node000003" class="node">
<title>Node3</title>
<g id="a_Node000003"><a xlink:href="class_manager.html#a0170cc23a3a67917aed9e6f708830fe9" target="_top" xlink:title=" ">
<polygon fill="white" stroke="#666666" points="93.25,-20 0,-20 0,0 93.25,0 93.25,-20"/>
<text xml:space="preserve" text-anchor="middle" x="46.62" y="-6.5" font-family="Helvetica,sans-Serif" font-size="10.00">Manager::physics</text>
</a>
</g>
</g>
<!-- Node2&#45;&gt;Node3 -->
<g id="edge2_Node000002_Node000003" class="edge">
<title>Node2&#45;&gt;Node3</title>
<g id="a_edge2_Node000002_Node000003"><a xlink:title=" ">
<path fill="none" stroke="#63b8ff" d="M117.52,-10C109.43,-10 101.21,-10 93.39,-10"/>
<polygon fill="#63b8ff" stroke="#63b8ff" points="117.3,-13.5 127.3,-10 117.3,-6.5 117.3,-13.5"/>
</a>
</g>
</g>
</g>
</svg>
