<?xml version="1.0" encoding="UTF-8" standalone="no"?>
<!DOCTYPE svg PUBLIC "-//W3C//DTD SVG 1.1//EN"
 "http://www.w3.org/Graphics/SVG/1.1/DTD/svg11.dtd">
<!-- Generated by graphviz version 14.1.4 (20260321.0153)
 -->
<!-- Title: Manager::entraingfromQueetoEdge Pages: 1 -->
<svg width="692pt" height="154pt"
 viewBox="0.00 0.00 692.00 154.00" xmlns="http://www.w3.org/2000/svg" xmlns:xlink="http://www.w3.org/1999/xlink">
<g id="graph0" class="graph" transform="scale(1 1) rotate(0) translate(4 150)">
<title>Manager::entraingfromQueetoEdge</title>
<!-- Node1 -->
<g id="Node000001" class="node">
<title>Node1</title>
<g id="a_Node000001"><a xlink:title=" ">
<polygon fill="#999999" stroke="#666666" points="167.5,-89 0,-89 0,-69 167.5,-69 167.5,-89"/>
<text xml:space="preserve" text-anchor="middle" x="83.75" y="-75.5" font-family="Helvetica,sans-Serif" font-size="10.00">Manager::entraingfromQueetoEdge</text>
</a>
</g>
</g>
<!-- Node2 -->
<g id="Node000002" class="node">
<title>Node2</title>
<g id="a_Node000002"><a xlink:href="struct_road_details.html#a669dfcadc27d416b6511a92684442ef9" target="_top" xlink:title=" ">
<polygon fill="white" stroke="#666666" points="360.12,-146 205.38,-146 205.38,-126 360.12,-126 360.12,-146"/>
<text xml:space="preserve" text-anchor="middle" x="282.75" y="-132.5" font-family="Helvetica,sans-Serif" font-size="10.00">RoadDetails::DischargeAllowed</text>
</a>
</g>
</g>
<!-- Node1&#45;&gt;Node2 -->
<g id="edge1_Node000001_Node000002" class="edge">
<title>Node1&#45;&gt;Node2</title>
<g id="a_edge1_Node000001_Node000002"><a xlink:title=" ">
<path fill="none" stroke="#63b8ff" d="M120.88,-89.45C152.86,-98.71 199.72,-112.27 234.63,-122.37"/>
<polygon fill="#63b8ff" stroke="#63b8ff" points="233.48,-125.68 244.06,-125.09 235.43,-118.95 233.48,-125.68"/>
</a>
</g>
</g>
<!-- Node3 -->
<g id="Node000003" class="node">
<title>Node3</title>
<g id="a_Node000003"><a xlink:href="struct_road_details.html#a915b2e8bea1bbe71934faeedf53a06fb" target="_top" xlink:title=" ">
<polygon fill="white" stroke="#666666" points="531.75,-89 398,-89 398,-69 531.75,-69 531.75,-89"/>
<text xml:space="preserve" text-anchor="middle" x="464.88" y="-75.5" font-family="Helvetica,sans-Serif" font-size="10.00">RoadDetails::NonIdealtime</text>
</a>
</g>
</g>
<!-- Node1&#45;&gt;Node3 -->
<g id="edge2_Node000001_Node000003" class="edge">
<title>Node1&#45;&gt;Node3</title>
<g id="a_edge2_Node000001_Node000003"><a xlink:title=" ">
<path fill="none" stroke="#63b8ff" d="M167.95,-79C233.03,-79 322.84,-79 386.41,-79"/>
<polygon fill="#63b8ff" stroke="#63b8ff" points="386.05,-82.5 396.05,-79 386.05,-75.5 386.05,-82.5"/>
</a>
</g>
</g>
<!-- Node5 -->
<g id="Node000005" class="node">
<title>Node5</title>
<g id="a_Node000005"><a xlink:href="struct_road_details.html#ad2d8b3a44383c9950e6cc4b4606b9f1a" target="_top" xlink:title=" ">
<polygon fill="white" stroke="#666666" points="362,-70 203.5,-70 203.5,-50 362,-50 362,-70"/>
<text xml:space="preserve" text-anchor="middle" x="282.75" y="-56.5" font-family="Helvetica,sans-Serif" font-size="10.00">RoadDetails::vehicleEntersRoad</text>
</a>
</g>
</g>
<!-- Node1&#45;&gt;Node5 -->
<g id="edge4_Node000001_Node000005" class="edge">
<title>Node1&#45;&gt;Node5</title>
<g id="a_edge4_Node000001_Node000005"><a xlink:title=" ">
<path fill="none" stroke="#63b8ff" d="M167.72,-71C175.73,-70.23 183.87,-69.44 191.94,-68.66"/>
<polygon fill="#63b8ff" stroke="#63b8ff" points="192.15,-72.16 201.76,-67.71 191.47,-65.19 192.15,-72.16"/>
</a>
</g>
</g>
<!-- Node6 -->
<g id="Node000006" class="node">
<title>Node6</title>
<g id="a_Node000006"><a xlink:href="struct_road_details.html#afa8574d48d45a7bace5f79f51ce70a56" target="_top" xlink:title=" ">
<polygon fill="white" stroke="#666666" points="347.38,-32 218.12,-32 218.12,0 347.38,0 347.38,-32"/>
<text xml:space="preserve" text-anchor="start" x="226.12" y="-18.5" font-family="Helvetica,sans-Serif" font-size="10.00">RoadDetails::vehicleExits</text>
<text xml:space="preserve" text-anchor="middle" x="282.75" y="-6.5" font-family="Helvetica,sans-Serif" font-size="10.00">Queue</text>
</a>
</g>
</g>
<!-- Node1&#45;&gt;Node6 -->
<g id="edge6_Node000001_Node000006" class="edge">
<title>Node1&#45;&gt;Node6</title>
<g id="a_edge6_Node000001_Node000006"><a xlink:title=" ">
<path fill="none" stroke="#63b8ff" d="M117.51,-68.51C141.36,-60.88 174.43,-50.3 203.5,-41 208.8,-39.31 214.3,-37.55 219.81,-35.78"/>
<polygon fill="#63b8ff" stroke="#63b8ff" points="220.5,-39.24 228.96,-32.86 218.36,-32.57 220.5,-39.24"/>
</a>
</g>
</g>
<!-- Node4 -->
<g id="Node000004" class="node">
<title>Node4</title>
<g id="a_Node000004"><a xlink:href="struct_road_details.html#a3d1c2ac79846045deac57b0b89341471" target="_top" xlink:title=" ">
<polygon fill="white" stroke="#666666" points="684.25,-89 567.75,-89 567.75,-69 684.25,-69 684.25,-89"/>
<text xml:space="preserve" text-anchor="middle" x="626" y="-75.5" font-family="Helvetica,sans-Serif" font-size="10.00">RoadDetails::bestTime</text>
</a>
</g>
</g>
<!-- Node3&#45;&gt;Node4 -->
<g id="edge3_Node000003_Node000004" class="edge">
<title>Node3&#45;&gt;Node4</title>
<g id="a_edge3_Node000003_Node000004"><a xlink:title=" ">
<path fill="none" stroke="#63b8ff" d="M531.98,-79C539.99,-79 548.18,-79 556.23,-79"/>
<polygon fill="#63b8ff" stroke="#63b8ff" points="555.96,-82.5 565.96,-79 555.96,-75.5 555.96,-82.5"/>
</a>
</g>
</g>
<!-- Node5&#45;&gt;Node3 -->
<g id="edge5_Node000005_Node000003" class="edge">
<title>Node5&#45;&gt;Node3</title>
<g id="a_edge5_Node000005_Node000003"><a xlink:title=" ">
<path fill="none" stroke="#63b8ff" d="M362.49,-68.31C370.38,-69.14 378.38,-69.98 386.26,-70.81"/>
<polygon fill="#63b8ff" stroke="#63b8ff" points="385.86,-74.29 396.17,-71.86 386.59,-67.33 385.86,-74.29"/>
</a>
</g>
</g>
</g>
</svg>
