<?xml version="1.0" encoding="UTF-8" standalone="no"?>
<!DOCTYPE svg PUBLIC "-//W3C//DTD SVG 1.1//EN"
 "http://www.w3.org/Graphics/SVG/1.1/DTD/svg11.dtd">
<!-- Generated by graphviz version 14.1.4 (20260321.0153)
 -->
<!-- Title: Manager::updateSignals Pages: 1 -->
<svg width="472pt" height="135pt"
 viewBox="0.00 0.00 472.00 135.00" xmlns="http://www.w3.org/2000/svg" xmlns:xlink="http://www.w3.org/1999/xlink">
<g id="graph0" class="graph" transform="scale(1 1) rotate(0) translate(4 131)">
<title>Manager::updateSignals</title>
<!-- Node1 -->
<g id="Node000001" class="node">
<title>Node1</title>
<g id="a_Node000001"><a xlink:title=" ">
<polygon fill="#999999" stroke="#666666" points="121,-64 0,-64 0,-44 121,-44 121,-64"/>
<text xml:space="preserve" text-anchor="middle" x="60.5" y="-50.5" font-family="Helvetica,sans-Serif" font-size="10.00">Manager::updateSignals</text>
</a>
</g>
</g>
<!-- Node2 -->
<g id="Node000002" class="node">
<title>Node2</title>
<g id="a_Node000002"><a xlink:href="struct_traffic_signal.html#a03987971e60235922ee4cc0641ede6db" target="_top" xlink:title=" ">
<polygon fill="white" stroke="#666666" points="283.25,-108 161.5,-108 161.5,-88 283.25,-88 283.25,-108"/>
<text xml:space="preserve" text-anchor="middle" x="222.38" y="-94.5" font-family="Helvetica,sans-Serif" font-size="10.00">TrafficSignal::canSwitch</text>
</a>
</g>
</g>
<!-- Node1&#45;&gt;Node2 -->
<g id="edge1_Node000001_Node000002" class="edge">
<title>Node1&#45;&gt;Node2</title>
<g id="a_edge1_Node000001_Node000002"><a xlink:title=" ">
<path fill="none" stroke="#63b8ff" d="M99.39,-64.43C121.31,-70.46 149.13,-78.12 172.66,-84.59"/>
<polygon fill="#63b8ff" stroke="#63b8ff" points="171.45,-87.89 182.02,-87.17 173.31,-81.14 171.45,-87.89"/>
</a>
</g>
</g>
<!-- Node5 -->
<g id="Node000005" class="node">
<title>Node5</title>
<g id="a_Node000005"><a xlink:href="struct_road_details.html#ab94219e0def9f56b282f2c74eac2be56" target="_top" xlink:title=" ">
<polygon fill="white" stroke="#666666" points="276.12,-70 168.62,-70 168.62,-38 276.12,-38 276.12,-70"/>
<text xml:space="preserve" text-anchor="start" x="176.62" y="-56.5" font-family="Helvetica,sans-Serif" font-size="10.00">RoadDetails::change</text>
<text xml:space="preserve" text-anchor="middle" x="222.38" y="-44.5" font-family="Helvetica,sans-Serif" font-size="10.00">_to_red</text>
</a>
</g>
</g>
<!-- Node1&#45;&gt;Node5 -->
<g id="edge4_Node000001_Node000005" class="edge">
<title>Node1&#45;&gt;Node5</title>
<g id="a_edge4_Node000001_Node000005"><a xlink:title=" ">
<path fill="none" stroke="#63b8ff" d="M121.49,-54C132.98,-54 145.07,-54 156.7,-54"/>
<polygon fill="#63b8ff" stroke="#63b8ff" points="156.64,-57.5 166.64,-54 156.64,-50.5 156.64,-57.5"/>
</a>
</g>
</g>
<!-- Node6 -->
<g id="Node000006" class="node">
<title>Node6</title>
<g id="a_Node000006"><a xlink:href="struct_road_details.html#a1993bf790dd380a04515c84a1aca70b1" target="_top" xlink:title=" ">
<polygon fill="white" stroke="#666666" points="287.75,-20 157,-20 157,0 287.75,0 287.75,-20"/>
<text xml:space="preserve" text-anchor="middle" x="222.38" y="-6.5" font-family="Helvetica,sans-Serif" font-size="10.00">RoadDetails::changeState</text>
</a>
</g>
</g>
<!-- Node1&#45;&gt;Node6 -->
<g id="edge5_Node000001_Node000006" class="edge">
<title>Node1&#45;&gt;Node6</title>
<g id="a_edge5_Node000001_Node000006"><a xlink:title=" ">
<path fill="none" stroke="#63b8ff" d="M99.39,-43.57C121.31,-37.54 149.13,-29.88 172.66,-23.41"/>
<polygon fill="#63b8ff" stroke="#63b8ff" points="173.31,-26.86 182.02,-20.83 171.45,-20.11 173.31,-26.86"/>
</a>
</g>
</g>
<!-- Node3 -->
<g id="Node000003" class="node">
<title>Node3</title>
<g id="a_Node000003"><a xlink:href="struct_traffic_signal.html#ad683db5ff22b610dc2b168f7503a3376" target="_top" xlink:title=" ">
<polygon fill="white" stroke="#666666" points="457.5,-127 329.75,-127 329.75,-107 457.5,-107 457.5,-127"/>
<text xml:space="preserve" text-anchor="middle" x="393.62" y="-113.5" font-family="Helvetica,sans-Serif" font-size="10.00">TrafficSignal::mustSwitch</text>
</a>
</g>
</g>
<!-- Node2&#45;&gt;Node3 -->
<g id="edge2_Node000002_Node000003" class="edge">
<title>Node2&#45;&gt;Node3</title>
<g id="a_edge2_Node000002_Node000003"><a xlink:title=" ">
<path fill="none" stroke="#63b8ff" d="M283.52,-104.75C294.71,-106.01 306.52,-107.33 318.08,-108.63"/>
<polygon fill="#63b8ff" stroke="#63b8ff" points="317.69,-112.11 328.02,-109.75 318.47,-105.15 317.69,-112.11"/>
</a>
</g>
</g>
<!-- Node4 -->
<g id="Node000004" class="node">
<title>Node4</title>
<g id="a_Node000004"><a xlink:href="struct_traffic_signal.html#a1d19589faa58d871cf785747a5987791" target="_top" xlink:title=" ">
<polygon fill="white" stroke="#666666" points="463.5,-89 323.75,-89 323.75,-69 463.5,-69 463.5,-89"/>
<text xml:space="preserve" text-anchor="middle" x="393.62" y="-75.5" font-family="Helvetica,sans-Serif" font-size="10.00">TrafficSignal::starvationCost</text>
</a>
</g>
</g>
<!-- Node2&#45;&gt;Node4 -->
<g id="edge3_Node000002_Node000004" class="edge">
<title>Node2&#45;&gt;Node4</title>
<g id="a_edge3_Node000002_Node000004"><a xlink:title=" ">
<path fill="none" stroke="#63b8ff" d="M283.52,-91.25C292.81,-90.21 302.53,-89.11 312.17,-88.03"/>
<polygon fill="#63b8ff" stroke="#63b8ff" points="312.38,-91.53 321.93,-86.94 311.6,-84.57 312.38,-91.53"/>
</a>
</g>
</g>
</g>
</svg>
