<?xml version="1.0" encoding="UTF-8" standalone="no"?>
<!DOCTYPE svg PUBLIC "-//W3C//DTD SVG 1.1//EN"
 "http://www.w3.org/Graphics/SVG/1.1/DTD/svg11.dtd">
<!-- Generated by graphviz version 14.1.4 (20260321.0153)
 -->
<!-- Title: Manager::checkBrokenPath Pages: 1 -->
<svg width="656pt" height="78pt"
 viewBox="0.00 0.00 656.00 78.00" xmlns="http://www.w3.org/2000/svg" xmlns:xlink="http://www.w3.org/1999/xlink">
<g id="graph0" class="graph" transform="scale(1 1) rotate(0) translate(4 74)">
<title>Manager::checkBrokenPath</title>
<!-- Node1 -->
<g id="Node000001" class="node">
<title>Node1</title>
<g id="a_Node000001"><a xlink:title=" ">
<polygon fill="#999999" stroke="#666666" points="136.75,-42 0,-42 0,-22 136.75,-22 136.75,-42"/>
<text xml:space="preserve" text-anchor="middle" x="68.38" y="-28.5" font-family="Helvetica,sans-Serif" font-size="10.00">Manager::checkBrokenPath</text>
</a>
</g>
</g>
<!-- Node2 -->
<g id="Node000002" class="node">
<title>Node2</title>
<g id="a_Node000002"><a xlink:href="struct_road_details.html#afa8574d48d45a7bace5f79f51ce70a56" target="_top" xlink:title=" ">
<polygon fill="white" stroke="#666666" points="313.62,-70 184.38,-70 184.38,-38 313.62,-38 313.62,-70"/>
<text xml:space="preserve" text-anchor="start" x="192.38" y="-56.5" font-family="Helvetica,sans-Serif" font-size="10.00">RoadDetails::vehicleExits</text>
<text xml:space="preserve" text-anchor="middle" x="249" y="-44.5" font-family="Helvetica,sans-Serif" font-size="10.00">Queue</text>
</a>
</g>
</g>
<!-- Node1&#45;&gt;Node2 -->
<g id="edge1_Node000001_Node000002" class="edge">
<title>Node1&#45;&gt;Node2</title>
<g id="a_edge1_Node000001_Node000002"><a xlink:title=" ">
<path fill="none" stroke="#63b8ff" d="M137.16,-40.35C148.83,-41.79 161.02,-43.29 172.86,-44.75"/>
<polygon fill="#63b8ff" stroke="#63b8ff" points="172.23,-48.19 182.59,-45.94 173.09,-41.25 172.23,-48.19"/>
</a>
</g>
</g>
<!-- Node3 -->
<g id="Node000003" class="node">
<title>Node3</title>
<g id="a_Node000003"><a xlink:href="struct_road_details.html#abd834d75bb646b28fcbc9f079dfe6448" target="_top" xlink:title=" ">
<polygon fill="white" stroke="#666666" points="325.25,-20 172.75,-20 172.75,0 325.25,0 325.25,-20"/>
<text xml:space="preserve" text-anchor="middle" x="249" y="-6.5" font-family="Helvetica,sans-Serif" font-size="10.00">RoadDetails::vehicleExitsRoad</text>
</a>
</g>
</g>
<!-- Node1&#45;&gt;Node3 -->
<g id="edge2_Node000001_Node000003" class="edge">
<title>Node1&#45;&gt;Node3</title>
<g id="a_edge2_Node000001_Node000003"><a xlink:title=" ">
<path fill="none" stroke="#63b8ff" d="M137.16,-23.65C145.01,-22.68 153.09,-21.69 161.15,-20.7"/>
<polygon fill="#63b8ff" stroke="#63b8ff" points="161.5,-24.18 171,-19.48 160.64,-17.23 161.5,-24.18"/>
</a>
</g>
</g>
<!-- Node4 -->
<g id="Node000004" class="node">
<title>Node4</title>
<g id="a_Node000004"><a xlink:href="struct_road_details.html#a915b2e8bea1bbe71934faeedf53a06fb" target="_top" xlink:title=" ">
<polygon fill="white" stroke="#666666" points="495,-20 361.25,-20 361.25,0 495,0 495,-20"/>
<text xml:space="preserve" text-anchor="middle" x="428.12" y="-6.5" font-family="Helvetica,sans-Serif" font-size="10.00">RoadDetails::NonIdealtime</text>
</a>
</g>
</g>
<!-- Node3&#45;&gt;Node4 -->
<g id="edge3_Node000003_Node000004" class="edge">
<title>Node3&#45;&gt;Node4</title>
<g id="a_edge3_Node000003_Node000004"><a xlink:title=" ">
<path fill="none" stroke="#63b8ff" d="M325.63,-10C333.53,-10 341.56,-10 349.48,-10"/>
<polygon fill="#63b8ff" stroke="#63b8ff" points="349.46,-13.5 359.46,-10 349.46,-6.5 349.46,-13.5"/>
</a>
</g>
</g>
<!-- Node5 -->
<g id="Node000005" class="node">
<title>Node5</title>
<g id="a_Node000005"><a xlink:href="struct_road_details.html#a3d1c2ac79846045deac57b0b89341471" target="_top" xlink:title=" ">
<polygon fill="white" stroke="#666666" points="647.5,-20 531,-20 531,0 647.5,0 647.5,-20"/>
<text xml:space="preserve" text-anchor="middle" x="589.25" y="-6.5" font-family="Helvetica,sans-Serif" font-size="10.00">RoadDetails::bestTime</text>
</a>
</g>
</g>
<!-- Node4&#45;&gt;Node5 -->
<g id="edge4_Node000004_Node000005" class="edge">
<title>Node4&#45;&gt;Node5</title>
<g id="a_edge4_Node000004_Node000005"><a xlink:title=" ">
<path fill="none" stroke="#63b8ff" d="M495.23,-10C503.24,-10 511.43,-10 519.48,-10"/>
<polygon fill="#63b8ff" stroke="#63b8ff" points="519.21,-13.5 529.21,-10 519.21,-6.5 519.21,-13.5"/>
</a>
</g>
</g>
</g>
</svg>
