<?xml version="1.0" encoding="UTF-8" standalone="no"?>
<!DOCTYPE svg PUBLIC "-//W3C//DTD SVG 1.1//EN"
 "http://www.w3.org/Graphics/SVG/1.1/DTD/svg11.dtd">
<!-- Generated by graphviz version 14.1.4 (20260321.0153)
 -->
<!-- Title: Graph::getIndex Pages: 1 -->
<svg width="399pt" height="620pt"
 viewBox="0.00 0.00 399.00 620.00" xmlns="http://www.w3.org/2000/svg" xmlns:xlink="http://www.w3.org/1999/xlink">
<g id="graph0" class="graph" transform="scale(1 1) rotate(0) translate(4 616)">
<title>Graph::getIndex</title>
<!-- Node1 -->
<g id="Node000001" class="node">
<title>Node1</title>
<g id="a_Node000001"><a xlink:title=" ">
<polygon fill="#999999" stroke="#666666" points="390.75,-334 305,-334 305,-314 390.75,-314 390.75,-334"/>
<text xml:space="preserve" text-anchor="middle" x="347.88" y="-320.5" font-family="Helvetica,sans-Serif" font-size="10.00">Graph::getIndex</text>
</a>
</g>
</g>
<!-- Node2 -->
<g id="Node000002" class="node">
<title>Node2</title>
<g id="a_Node000002"><a xlink:href="class_graph.html#afe7c47553456e34f0a96ce99da12592a" target="_top" xlink:title=" ">
<polygon fill="white" stroke="#666666" points="232.62,-612 170.88,-612 170.88,-592 232.62,-592 232.62,-612"/>
<text xml:space="preserve" text-anchor="middle" x="201.75" y="-598.5" font-family="Helvetica,sans-Serif" font-size="10.00">Graph::bfs</text>
</a>
</g>
</g>
<!-- Node1&#45;&gt;Node2 -->
<g id="edge1_Node000001_Node000002" class="edge">
<title>Node1&#45;&gt;Node2</title>
<g id="a_edge1_Node000001_Node000002"><a xlink:title=" ">
<path fill="none" stroke="#63b8ff" d="M346.93,-345.86C345.82,-395.36 336.02,-516.83 269,-583 259.46,-592.42 245.59,-597.23 233,-599.67"/>
<polygon fill="#63b8ff" stroke="#63b8ff" points="350.43,-345.95 347.04,-335.92 343.43,-345.88 350.43,-345.95"/>
</a>
</g>
</g>
<!-- Node4 -->
<g id="Node000004" class="node">
<title>Node4</title>
<g id="a_Node000004"><a xlink:href="class_graph.html#ad4b36a7d260e2e0ffb3d39d55be335da" target="_top" xlink:title=" ">
<polygon fill="white" stroke="#666666" points="251.38,-574 152.12,-574 152.12,-554 251.38,-554 251.38,-574"/>
<text xml:space="preserve" text-anchor="middle" x="201.75" y="-560.5" font-family="Helvetica,sans-Serif" font-size="10.00">Graph::DeleteEdge</text>
</a>
</g>
</g>
<!-- Node1&#45;&gt;Node4 -->
<g id="edge3_Node000001_Node000004" class="edge">
<title>Node1&#45;&gt;Node4</title>
<g id="a_edge3_Node000001_Node000004"><a xlink:title=" ">
<path fill="none" stroke="#63b8ff" d="M345.64,-345.32C341.94,-389.21 327.21,-490.16 269,-545 264.04,-549.68 258,-553.21 251.61,-555.88"/>
<polygon fill="#63b8ff" stroke="#63b8ff" points="349.12,-345.82 346.34,-335.6 342.13,-345.32 349.12,-345.82"/>
</a>
</g>
</g>
<!-- Node5 -->
<g id="Node000005" class="node">
<title>Node5</title>
<g id="a_Node000005"><a xlink:href="class_graph.html#a3a6bf99c6ae5f780a44ac087da10adeb" target="_top" xlink:title=" ">
<polygon fill="white" stroke="#666666" points="254,-536 149.5,-536 149.5,-516 254,-516 254,-536"/>
<text xml:space="preserve" text-anchor="middle" x="201.75" y="-522.5" font-family="Helvetica,sans-Serif" font-size="10.00">Graph::DeleteVertex</text>
</a>
</g>
</g>
<!-- Node1&#45;&gt;Node5 -->
<g id="edge4_Node000001_Node000005" class="edge">
<title>Node1&#45;&gt;Node5</title>
<g id="a_edge4_Node000001_Node000005"><a xlink:title=" ">
<path fill="none" stroke="#63b8ff" d="M343.87,-345.27C337.34,-383.4 318.27,-463.44 269,-507 264.7,-510.8 259.68,-513.85 254.36,-516.29"/>
<polygon fill="#63b8ff" stroke="#63b8ff" points="347.3,-345.98 345.39,-335.56 340.38,-344.89 347.3,-345.98"/>
</a>
</g>
</g>
<!-- Node6 -->
<g id="Node000006" class="node">
<title>Node6</title>
<g id="a_Node000006"><a xlink:href="class_graph.html#a3f6fed049465dcfef6985a682692129c" target="_top" xlink:title=" ">
<polygon fill="white" stroke="#666666" points="232.62,-498 170.88,-498 170.88,-478 232.62,-478 232.62,-498"/>
<text xml:space="preserve" text-anchor="middle" x="201.75" y="-484.5" font-family="Helvetica,sans-Serif" font-size="10.00">Graph::dfs</text>
</a>
</g>
</g>
<!-- Node1&#45;&gt;Node6 -->
<g id="edge5_Node000001_Node000006" class="edge">
<title>Node1&#45;&gt;Node6</title>
<g id="a_edge5_Node000001_Node000006"><a xlink:title=" ">
<path fill="none" stroke="#63b8ff" d="M341.24,-345.23C331.73,-376.93 309.45,-436.38 269,-469 258.75,-477.26 245.08,-481.93 232.82,-484.57"/>
<polygon fill="#63b8ff" stroke="#63b8ff" points="344.6,-346.24 343.95,-335.66 337.86,-344.33 344.6,-346.24"/>
</a>
</g>
</g>
<!-- Node7 -->
<g id="Node000007" class="node">
<title>Node7</title>
<g id="a_Node000007"><a xlink:href="class_graph.html#a23fa8d27815c95a2f51a20ff8192a125" target="_top" xlink:title=" ">
<polygon fill="white" stroke="#666666" points="254.38,-460 149.12,-460 149.12,-428 254.38,-428 254.38,-460"/>
<text xml:space="preserve" text-anchor="start" x="157.12" y="-446.5" font-family="Helvetica,sans-Serif" font-size="10.00">Graph::display_edge</text>
<text xml:space="preserve" text-anchor="middle" x="201.75" y="-434.5" font-family="Helvetica,sans-Serif" font-size="10.00">_of_index</text>
</a>
</g>
</g>
<!-- Node1&#45;&gt;Node7 -->
<g id="edge6_Node000001_Node000007" class="edge">
<title>Node1&#45;&gt;Node7</title>
<g id="a_edge6_Node000001_Node000007"><a xlink:title=" ">
<path fill="none" stroke="#63b8ff" d="M335,-343.99C321.46,-365.25 297.46,-398.58 269,-419 264.51,-422.23 259.54,-425.09 254.42,-427.62"/>
<polygon fill="#63b8ff" stroke="#63b8ff" points="337.87,-346 340.15,-335.66 331.92,-342.33 337.87,-346"/>
</a>
</g>
</g>
<!-- Node9 -->
<g id="Node000009" class="node">
<title>Node9</title>
<g id="a_Node000009"><a xlink:href="class_graph.html#abee83ddd0c00807a42276744a54ed545" target="_top" xlink:title=" ">
<polygon fill="white" stroke="#666666" points="247.62,-410 155.88,-410 155.88,-390 247.62,-390 247.62,-410"/>
<text xml:space="preserve" text-anchor="middle" x="201.75" y="-396.5" font-family="Helvetica,sans-Serif" font-size="10.00">Graph::edgeExist</text>
</a>
</g>
</g>
<!-- Node1&#45;&gt;Node9 -->
<g id="edge8_Node000001_Node000009" class="edge">
<title>Node1&#45;&gt;Node9</title>
<g id="a_edge8_Node000001_Node000009"><a xlink:title=" ">
<path fill="none" stroke="#63b8ff" d="M327.15,-341.5C312.12,-354.04 290.43,-370.5 269,-381 262.23,-384.32 254.78,-387.15 247.4,-389.54"/>
<polygon fill="#63b8ff" stroke="#63b8ff" points="329.11,-344.43 334.43,-335.27 324.56,-339.11 329.11,-344.43"/>
</a>
</g>
</g>
<!-- Node10 -->
<g id="Node000010" class="node">
<title>Node10</title>
<g id="a_Node000010"><a xlink:href="class_graph.html#aac867e84245a43327bf22cccc1a24b70" target="_top" xlink:title=" ">
<polygon fill="white" stroke="#666666" points="248.38,-372 155.12,-372 155.12,-352 248.38,-352 248.38,-372"/>
<text xml:space="preserve" text-anchor="middle" x="201.75" y="-358.5" font-family="Helvetica,sans-Serif" font-size="10.00">Graph::getDegree</text>
</a>
</g>
</g>
<!-- Node1&#45;&gt;Node10 -->
<g id="edge9_Node000001_Node000010" class="edge">
<title>Node1&#45;&gt;Node10</title>
<g id="a_edge9_Node000001_Node000010"><a xlink:title=" ">
<path fill="none" stroke="#63b8ff" d="M296.13,-337.38C278.49,-342.03 258.99,-347.17 242.38,-351.55"/>
<polygon fill="#63b8ff" stroke="#63b8ff" points="296.87,-340.8 305.65,-334.87 295.09,-334.04 296.87,-340.8"/>
</a>
</g>
</g>
<!-- Node11 -->
<g id="Node000011" class="node">
<title>Node11</title>
<g id="a_Node000011"><a xlink:href="class_graph.html#a48974faaaea7e54461e6800b8621401d" target="_top" xlink:title=" ">
<polygon fill="white" stroke="#666666" points="259.25,-334 144.25,-334 144.25,-314 259.25,-314 259.25,-334"/>
<text xml:space="preserve" text-anchor="middle" x="201.75" y="-320.5" font-family="Helvetica,sans-Serif" font-size="10.00">Graph::getEdgeDetails</text>
</a>
</g>
</g>
<!-- Node1&#45;&gt;Node11 -->
<g id="edge10_Node000001_Node000011" class="edge">
<title>Node1&#45;&gt;Node11</title>
<g id="a_edge10_Node000001_Node000011"><a xlink:title=" ">
<path fill="none" stroke="#63b8ff" d="M293.55,-324C282.49,-324 270.8,-324 259.61,-324"/>
<polygon fill="#63b8ff" stroke="#63b8ff" points="293.29,-327.5 303.29,-324 293.29,-320.5 293.29,-327.5"/>
</a>
</g>
</g>
<!-- Node12 -->
<g id="Node000012" class="node">
<title>Node12</title>
<g id="a_Node000012"><a xlink:href="class_graph.html#a91a0782cdbd7a173bfd3be7c9b19ef37" target="_top" xlink:title=" ">
<polygon fill="white" stroke="#666666" points="246.5,-296 157,-296 157,-276 246.5,-276 246.5,-296"/>
<text xml:space="preserve" text-anchor="middle" x="201.75" y="-282.5" font-family="Helvetica,sans-Serif" font-size="10.00">Graph::getEdges</text>
</a>
</g>
</g>
<!-- Node1&#45;&gt;Node12 -->
<g id="edge11_Node000001_Node000012" class="edge">
<title>Node1&#45;&gt;Node12</title>
<g id="a_edge11_Node000001_Node000012"><a xlink:title=" ">
<path fill="none" stroke="#63b8ff" d="M296.13,-310.62C278.49,-305.97 258.99,-300.83 242.38,-296.45"/>
<polygon fill="#63b8ff" stroke="#63b8ff" points="295.09,-313.96 305.65,-313.13 296.87,-307.2 295.09,-313.96"/>
</a>
</g>
</g>
<!-- Node13 -->
<g id="Node000013" class="node">
<title>Node13</title>
<g id="a_Node000013"><a xlink:href="class_graph.html#a56b515e7712eec185fb4d5e33ffef32e" target="_top" xlink:title=" ">
<polygon fill="white" stroke="#666666" points="245.75,-258 157.75,-258 157.75,-238 245.75,-238 245.75,-258"/>
<text xml:space="preserve" text-anchor="middle" x="201.75" y="-244.5" font-family="Helvetica,sans-Serif" font-size="10.00">Graph::Incoming</text>
</a>
</g>
</g>
<!-- Node1&#45;&gt;Node13 -->
<g id="edge12_Node000001_Node000013" class="edge">
<title>Node1&#45;&gt;Node13</title>
<g id="a_edge12_Node000001_Node000013"><a xlink:title=" ">
<path fill="none" stroke="#63b8ff" d="M327.15,-306.5C312.12,-293.96 290.43,-277.5 269,-267 261.8,-263.47 253.83,-260.49 245.99,-258.01"/>
<polygon fill="#63b8ff" stroke="#63b8ff" points="324.56,-308.89 334.43,-312.73 329.11,-303.57 324.56,-308.89"/>
</a>
</g>
</g>
<!-- Node14 -->
<g id="Node000014" class="node">
<title>Node14</title>
<g id="a_Node000014"><a xlink:href="class_graph.html#ae37baffa0ae9657f61785d6182f2f544" target="_top" xlink:title=" ">
<polygon fill="white" stroke="#666666" points="254.75,-220 148.75,-220 148.75,-188 254.75,-188 254.75,-220"/>
<text xml:space="preserve" text-anchor="start" x="156.75" y="-206.5" font-family="Helvetica,sans-Serif" font-size="10.00">Graph::No_of_edges</text>
<text xml:space="preserve" text-anchor="middle" x="201.75" y="-194.5" font-family="Helvetica,sans-Serif" font-size="10.00">_btw_2_vertices</text>
</a>
</g>
</g>
<!-- Node1&#45;&gt;Node14 -->
<g id="edge13_Node000001_Node000014" class="edge">
<title>Node1&#45;&gt;Node14</title>
<g id="a_edge13_Node000001_Node000014"><a xlink:title=" ">
<path fill="none" stroke="#63b8ff" d="M335,-304.01C321.46,-282.75 297.46,-249.42 269,-229 264.51,-225.77 259.54,-222.91 254.42,-220.38"/>
<polygon fill="#63b8ff" stroke="#63b8ff" points="331.92,-305.67 340.15,-312.34 337.87,-302 331.92,-305.67"/>
</a>
</g>
</g>
<!-- Node15 -->
<g id="Node000015" class="node">
<title>Node15</title>
<g id="a_Node000015"><a xlink:href="class_graph.html#ad23eb349449666a32eb2f89a46b51f86" target="_top" xlink:title=" ">
<polygon fill="white" stroke="#666666" points="254.38,-170 149.12,-170 149.12,-150 254.38,-150 254.38,-170"/>
<text xml:space="preserve" text-anchor="middle" x="201.75" y="-156.5" font-family="Helvetica,sans-Serif" font-size="10.00">Graph::searchVertex</text>
</a>
</g>
</g>
<!-- Node1&#45;&gt;Node15 -->
<g id="edge14_Node000001_Node000015" class="edge">
<title>Node1&#45;&gt;Node15</title>
<g id="a_edge14_Node000001_Node000015"><a xlink:title=" ">
<path fill="none" stroke="#63b8ff" d="M341.24,-302.77C331.73,-271.07 309.45,-211.62 269,-179 264.72,-175.54 259.83,-172.72 254.7,-170.41"/>
<polygon fill="#63b8ff" stroke="#63b8ff" points="337.86,-303.67 343.95,-312.34 344.6,-301.76 337.86,-303.67"/>
</a>
</g>
</g>
<!-- Node16 -->
<g id="Node000016" class="node">
<title>Node16</title>
<g id="a_Node000016"><a xlink:href="class_graph.html#aa190a0bd089393876cd305ed3ac1607e" target="_top" xlink:title=" ">
<polygon fill="white" stroke="#666666" points="255.88,-132 147.62,-132 147.62,-100 255.88,-100 255.88,-132"/>
<text xml:space="preserve" text-anchor="start" x="155.62" y="-118.5" font-family="Helvetica,sans-Serif" font-size="10.00">Graph::Shortest_Link</text>
<text xml:space="preserve" text-anchor="middle" x="201.75" y="-106.5" font-family="Helvetica,sans-Serif" font-size="10.00">_btw_two_vertices</text>
</a>
</g>
</g>
<!-- Node1&#45;&gt;Node16 -->
<g id="edge15_Node000001_Node000016" class="edge">
<title>Node1&#45;&gt;Node16</title>
<g id="a_edge15_Node000001_Node000016"><a xlink:title=" ">
<path fill="none" stroke="#63b8ff" d="M343.41,-302.58C336.22,-264.87 316.23,-186.31 269,-141 265.19,-137.34 260.78,-134.2 256.1,-131.52"/>
<polygon fill="#63b8ff" stroke="#63b8ff" points="339.92,-302.97 345.11,-312.21 346.81,-301.75 339.92,-302.97"/>
</a>
</g>
</g>
<!-- Node17 -->
<g id="Node000017" class="node">
<title>Node17</title>
<g id="a_Node000017"><a xlink:href="class_graph.html#a3b109daff45e070473c9b23f162fc306" target="_top" xlink:title=" ">
<polygon fill="white" stroke="#666666" points="256.25,-82 147.25,-82 147.25,-50 256.25,-50 256.25,-82"/>
<text xml:space="preserve" text-anchor="start" x="155.25" y="-68.5" font-family="Helvetica,sans-Serif" font-size="10.00">Graph::shortest_Path</text>
<text xml:space="preserve" text-anchor="middle" x="201.75" y="-56.5" font-family="Helvetica,sans-Serif" font-size="10.00">_btw2_vericex</text>
</a>
</g>
</g>
<!-- Node1&#45;&gt;Node17 -->
<g id="edge16_Node000001_Node000017" class="edge">
<title>Node1&#45;&gt;Node17</title>
<g id="a_edge16_Node000001_Node000017"><a xlink:title=" ">
<path fill="none" stroke="#63b8ff" d="M345.66,-302.23C341.97,-256.9 327.27,-151.54 269,-91 265.42,-87.28 261.23,-84.11 256.73,-81.4"/>
<polygon fill="#63b8ff" stroke="#63b8ff" points="342.16,-302.33 346.34,-312.06 349.14,-301.85 342.16,-302.33"/>
</a>
</g>
</g>
<!-- Node18 -->
<g id="Node000018" class="node">
<title>Node18</title>
<g id="a_Node000018"><a xlink:href="class_graph.html#aef37950729048d2469b3b3f11b9527ff" target="_top" xlink:title=" ">
<polygon fill="white" stroke="#666666" points="269,-32 134.5,-32 134.5,0 269,0 269,-32"/>
<text xml:space="preserve" text-anchor="start" x="142.5" y="-18.5" font-family="Helvetica,sans-Serif" font-size="10.00">Graph::shortest_Path</text>
<text xml:space="preserve" text-anchor="middle" x="201.75" y="-6.5" font-family="Helvetica,sans-Serif" font-size="10.00">_btw2_vericex_returing_list</text>
</a>
</g>
</g>
<!-- Node1&#45;&gt;Node18 -->
<g id="edge17_Node000001_Node000018" class="edge">
<title>Node1&#45;&gt;Node18</title>
<g id="a_edge17_Node000001_Node000018"><a xlink:title=" ">
<path fill="none" stroke="#63b8ff" d="M347.2,-302.32C346.81,-250.36 338.63,-117.37 269,-41 266.02,-37.73 262.57,-34.88 258.83,-32.41"/>
<polygon fill="#63b8ff" stroke="#63b8ff" points="343.7,-302.18 347.17,-312.19 350.7,-302.2 343.7,-302.18"/>
</a>
</g>
</g>
<!-- Node3 -->
<g id="Node000003" class="node">
<title>Node3</title>
<g id="a_Node000003"><a xlink:href="class_graph.html#ab9606d8fb76f24fbe77b46d460176a5f" target="_top" xlink:title=" ">
<polygon fill="white" stroke="#666666" points="97.75,-612 0.75,-612 0.75,-592 97.75,-592 97.75,-612"/>
<text xml:space="preserve" text-anchor="middle" x="49.25" y="-598.5" font-family="Helvetica,sans-Serif" font-size="10.00">Graph::PrintLevels</text>
</a>
</g>
</g>
<!-- Node2&#45;&gt;Node3 -->
<g id="edge2_Node000002_Node000003" class="edge">
<title>Node2&#45;&gt;Node3</title>
<g id="a_edge2_Node000002_Node000003"><a xlink:title=" ">
<path fill="none" stroke="#63b8ff" d="M159.37,-602C140.39,-602 117.77,-602 98.07,-602"/>
<polygon fill="#63b8ff" stroke="#63b8ff" points="159.14,-605.5 169.14,-602 159.14,-598.5 159.14,-605.5"/>
</a>
</g>
</g>
<!-- Node8 -->
<g id="Node000008" class="node">
<title>Node8</title>
<g id="a_Node000008"><a xlink:href="class_graph.html#a366f34afc26039910aebfeebee08539d" target="_top" xlink:title=" ">
<polygon fill="white" stroke="#666666" points="98.5,-454 0,-454 0,-434 98.5,-434 98.5,-454"/>
<text xml:space="preserve" text-anchor="middle" x="49.25" y="-440.5" font-family="Helvetica,sans-Serif" font-size="10.00">Graph::printGrapgh</text>
</a>
</g>
</g>
<!-- Node7&#45;&gt;Node8 -->
<g id="edge7_Node000007_Node000008" class="edge">
<title>Node7&#45;&gt;Node8</title>
<g id="a_edge7_Node000007_Node000008"><a xlink:title=" ">
<path fill="none" stroke="#63b8ff" d="M137.71,-444C124.72,-444 111.23,-444 98.85,-444"/>
<polygon fill="#63b8ff" stroke="#63b8ff" points="137.44,-447.5 147.44,-444 137.44,-440.5 137.44,-447.5"/>
</a>
</g>
</g>
</g>
</svg>
