<?xml version="1.0" encoding="UTF-8" standalone="no"?>
<!DOCTYPE svg PUBLIC "-//W3C//DTD SVG 1.1//EN"
 "http://www.w3.org/Graphics/SVG/1.1/DTD/svg11.dtd">
<!-- Generated by graphviz version 14.1.4 (20260321.0153)
 -->
<!-- Title: weighted Pages: 1 -->
<!--zoomable 768 -->

<svg id="main" version="1.1" xmlns="http://www.w3.org/2000/svg" xmlns:xlink="http://www.w3.org/1999/xlink" xml:space="preserve" onload="init(evt)">

<style type="text/css"><![CDATA[
.node, .edge {opacity: 0.7;}
.node.selected, .edge.selected {opacity: 1;}
.edge:hover path { stroke: red; }
.edge:hover polygon { stroke: red; fill: red; }
]]></style>

<defs>
  <circle id="rim" cx="0" cy="0" r="7"/>
  <circle id="rim2" cx="0" cy="0" r="3.5"/>
  <g id="zoomPlus">
    <use xlink:href="#rim" fill="#404040"><set attributeName="fill" to="#808080" begin="zoomplus.mouseover" end="zoomplus.mouseout"/></use>
    <path d="M-4,0h8M0,-4v8" fill="none" stroke="white" stroke-width="1.5" pointer-events="none"/>
  </g>
  <g id="zoomMin">
    <use xlink:href="#rim" fill="#404040"><set attributeName="fill" to="#808080" begin="zoomminus.mouseover" end="zoomminus.mouseout"/></use>
    <path d="M-4,0h8" fill="none" stroke="white" stroke-width="1.5" pointer-events="none"/>
  </g>
  <g id="arrowUp" transform="translate(30 24)">
    <use xlink:href="#rim"/>
    <path pointer-events="none" fill="none" stroke="white" stroke-width="1.5" d="M0,-3.0v7 M-2.5,-0.5L0,-3.0L2.5,-0.5"/>
  </g>
  <g id="arrowRight" transform="rotate(90) translate(36 -43)">
    <use xlink:href="#rim"/>
    <path pointer-events="none" fill="none" stroke="white" stroke-width="1.5" d="M0,-3.0v7 M-2.5,-0.5L0,-3.0L2.5,-0.5"/>
  </g>
  <g id="arrowDown" transform="rotate(180) translate(-30 -48)">
    <use xlink:href="#rim"/>
    <path pointer-events="none" fill="none" stroke="white" stroke-width="1.5" d="M0,-3.0v7 M-2.5,-0.5L0,-3.0L2.5,-0.5"/>
  </g>
  <g id="arrowLeft" transform="rotate(270) translate(-36 17)">
    <use xlink:href="#rim"/>
    <path pointer-events="none" fill="none" stroke="white" stroke-width="1.5" d="M0,-3.0v7 M-2.5,-0.5L0,-3.0L2.5,-0.5"/>
  </g>
  <g id="resetDef">
    <use xlink:href="#rim2" fill="#404040"><set attributeName="fill" to="#808080" begin="reset.mouseover" end="reset.mouseout"/></use>
  </g>
</defs>
<script type="application/ecmascript">
var viewWidth = 115;
var viewHeight = 768;
var sectionId = 'dynsection-0';
</script>
<script type="application/ecmascript" xlink:href="svg.min.js"/>
<svg id="graph" class="graph">
<g id="viewport">
<title>weighted</title>
<!-- Node1 -->
<g id="Node000001" class="node">
<title>Node1</title>
<g id="a_Node000001"><a xlink:title=" ">
<polygon fill="#999999" stroke="none" points="88.88,-52 17.62,-52 17.62,0 88.88,0 88.88,-52"/>
<text xml:space="preserve" text-anchor="start" x="33.75" y="-38.25" font-family="Helvetica,sans-Serif" font-size="10.00">weighted</text>
<text xml:space="preserve" text-anchor="start" x="21.62" y="-22.25" font-family="Helvetica,sans-Serif" font-size="10.00">+</text>
<text xml:space="preserve" text-anchor="start" x="31.62" y="-22.25" font-family="Helvetica,sans-Serif" font-size="10.00">index</text>
<text xml:space="preserve" text-anchor="start" x="21.62" y="-6.25" font-family="Helvetica,sans-Serif" font-size="10.00">+</text>
<text xml:space="preserve" text-anchor="start" x="31.62" y="-6.25" font-family="Helvetica,sans-Serif" font-size="10.00">operator==()</text>
<polygon fill="#666666" stroke="#666666" points="17.62,-34 17.62,-34 88.88,-34 88.88,-34 17.62,-34"/>
<polygon fill="#666666" stroke="#666666" points="17.62,-18 17.62,-18 29.62,-18 29.62,-18 17.62,-18"/>
<polygon fill="#666666" stroke="#666666" points="29.62,-18 29.62,-18 88.88,-18 88.88,-18 29.62,-18"/>
<polygon fill="none" stroke="#666666" points="17.62,0 17.62,-52 88.88,-52 88.88,0 17.62,0"/>
</a>
</g>
</g>
<!-- Node2 -->
<g id="Node000002" class="node">
<title>Node2</title>
<g id="a_Node000002"><a xlink:href="struct_road_details.html" target="_top" xlink:title=" ">
<polygon fill="white" stroke="none" points="106.5,-462 0,-462 0,-106 106.5,-106 106.5,-462"/>
<text xml:space="preserve" text-anchor="start" x="26.25" y="-448.25" font-family="Helvetica,sans-Serif" font-size="10.00">RoadDetails</text>
<text xml:space="preserve" text-anchor="start" x="4" y="-432.25" font-family="Helvetica,sans-Serif" font-size="10.00">+</text>
<text xml:space="preserve" text-anchor="start" x="14" y="-432.25" font-family="Helvetica,sans-Serif" font-size="10.00">length</text>
<text xml:space="preserve" text-anchor="start" x="4" y="-416.25" font-family="Helvetica,sans-Serif" font-size="10.00">+</text>
<text xml:space="preserve" text-anchor="start" x="14" y="-416.25" font-family="Helvetica,sans-Serif" font-size="10.00">max_speed</text>
<text xml:space="preserve" text-anchor="start" x="4" y="-400.25" font-family="Helvetica,sans-Serif" font-size="10.00">+</text>
<text xml:space="preserve" text-anchor="start" x="14" y="-400.25" font-family="Helvetica,sans-Serif" font-size="10.00">capacity</text>
<text xml:space="preserve" text-anchor="start" x="4" y="-384.25" font-family="Helvetica,sans-Serif" font-size="10.00">+</text>
<text xml:space="preserve" text-anchor="start" x="14" y="-384.25" font-family="Helvetica,sans-Serif" font-size="10.00">currentVehicles</text>
<text xml:space="preserve" text-anchor="start" x="4" y="-368.25" font-family="Helvetica,sans-Serif" font-size="10.00">+</text>
<text xml:space="preserve" text-anchor="start" x="14" y="-368.25" font-family="Helvetica,sans-Serif" font-size="10.00">queueCount</text>
<text xml:space="preserve" text-anchor="start" x="4" y="-352.25" font-family="Helvetica,sans-Serif" font-size="10.00">+</text>
<text xml:space="preserve" text-anchor="start" x="14" y="-352.25" font-family="Helvetica,sans-Serif" font-size="10.00">signalState</text>
<text xml:space="preserve" text-anchor="start" x="4" y="-336.25" font-family="Helvetica,sans-Serif" font-size="10.00">+</text>
<text xml:space="preserve" text-anchor="start" x="14" y="-336.25" font-family="Helvetica,sans-Serif" font-size="10.00">NonIdealWeight</text>
<text xml:space="preserve" text-anchor="start" x="4" y="-320.25" font-family="Helvetica,sans-Serif" font-size="10.00">+</text>
<text xml:space="preserve" text-anchor="start" x="14" y="-320.25" font-family="Helvetica,sans-Serif" font-size="10.00">a</text>
<text xml:space="preserve" text-anchor="start" x="4" y="-304.25" font-family="Helvetica,sans-Serif" font-size="10.00">+</text>
<text xml:space="preserve" text-anchor="start" x="14" y="-304.25" font-family="Helvetica,sans-Serif" font-size="10.00">b</text>
<text xml:space="preserve" text-anchor="start" x="4" y="-288.25" font-family="Helvetica,sans-Serif" font-size="10.00">+</text>
<text xml:space="preserve" text-anchor="start" x="14" y="-288.25" font-family="Helvetica,sans-Serif" font-size="10.00">dischargeCapcity</text>
<text xml:space="preserve" text-anchor="start" x="4" y="-272.25" font-family="Helvetica,sans-Serif" font-size="10.00">+</text>
<text xml:space="preserve" text-anchor="start" x="14" y="-272.25" font-family="Helvetica,sans-Serif" font-size="10.00">operator&lt;()</text>
<text xml:space="preserve" text-anchor="start" x="4" y="-256.25" font-family="Helvetica,sans-Serif" font-size="10.00">+</text>
<text xml:space="preserve" text-anchor="start" x="14" y="-256.25" font-family="Helvetica,sans-Serif" font-size="10.00">calculateWeight()</text>
<text xml:space="preserve" text-anchor="start" x="4" y="-240.25" font-family="Helvetica,sans-Serif" font-size="10.00">+</text>
<text xml:space="preserve" text-anchor="start" x="14" y="-240.25" font-family="Helvetica,sans-Serif" font-size="10.00">RoadDetails()</text>
<text xml:space="preserve" text-anchor="start" x="4" y="-224.25" font-family="Helvetica,sans-Serif" font-size="10.00">+</text>
<text xml:space="preserve" text-anchor="start" x="14" y="-224.25" font-family="Helvetica,sans-Serif" font-size="10.00">DischargeAllowed()</text>
<text xml:space="preserve" text-anchor="start" x="4" y="-208.25" font-family="Helvetica,sans-Serif" font-size="10.00">+</text>
<text xml:space="preserve" text-anchor="start" x="14" y="-208.25" font-family="Helvetica,sans-Serif" font-size="10.00">TimeCal()</text>
<text xml:space="preserve" text-anchor="start" x="4" y="-192.25" font-family="Helvetica,sans-Serif" font-size="10.00">+</text>
<text xml:space="preserve" text-anchor="start" x="14" y="-192.25" font-family="Helvetica,sans-Serif" font-size="10.00">bestTime()</text>
<text xml:space="preserve" text-anchor="start" x="4" y="-176.25" font-family="Helvetica,sans-Serif" font-size="10.00">+</text>
<text xml:space="preserve" text-anchor="start" x="14" y="-176.25" font-family="Helvetica,sans-Serif" font-size="10.00">NonIdealtime()</text>
<text xml:space="preserve" text-anchor="start" x="4" y="-160.25" font-family="Helvetica,sans-Serif" font-size="10.00">+</text>
<text xml:space="preserve" text-anchor="start" x="14" y="-160.25" font-family="Helvetica,sans-Serif" font-size="10.00">vehicleEntersRoad()</text>
<text xml:space="preserve" text-anchor="start" x="4" y="-144.25" font-family="Helvetica,sans-Serif" font-size="10.00">+</text>
<text xml:space="preserve" text-anchor="start" x="14" y="-144.25" font-family="Helvetica,sans-Serif" font-size="10.00">vehicleExitsRoad()</text>
<text xml:space="preserve" text-anchor="start" x="4" y="-128.25" font-family="Helvetica,sans-Serif" font-size="10.00">+</text>
<text xml:space="preserve" text-anchor="start" x="14" y="-128.25" font-family="Helvetica,sans-Serif" font-size="10.00">updateVehicles()</text>
<text xml:space="preserve" text-anchor="start" x="14" y="-112.25" font-family="Helvetica,sans-Serif" font-size="10.00">and 9 more...</text>
<polygon fill="#666666" stroke="#666666" points="0,-444 0,-444 106.5,-444 106.5,-444 0,-444"/>
<polygon fill="#666666" stroke="#666666" points="0,-284 0,-284 12,-284 12,-284 0,-284"/>
<polygon fill="#666666" stroke="#666666" points="12,-284 12,-284 106.5,-284 106.5,-284 12,-284"/>
<polygon fill="none" stroke="#666666" points="0,-106 0,-462 106.5,-462 106.5,-106 0,-106"/>
</a>
</g>
</g>
<!-- Node2&#45;&gt;Node1 -->
<g id="edge1_Node000001_Node000002" class="edge">
<title>Node2&#45;&gt;Node1</title>
<g id="a_edge1_Node000001_Node000002"><a xlink:title=" ">
<path fill="none" stroke="#63b8ff" d="M53.25,-106.25C53.25,-90.99 53.25,-76.82 53.25,-64.81"/>
<polygon fill="none" stroke="#63b8ff" points="53.25,-64.66 49.25,-58.66 53.25,-52.66 57.25,-58.66 53.25,-64.66"/>
</a>
</g>
<text xml:space="preserve" text-anchor="start" x="56.25" y="-75.25" font-family="Helvetica,sans-Serif" font-size="10.00" fill="grey">+weight</text>
</g>
<!-- Node3 -->
<g id="Node000003" class="node">
<title>Node3</title>
<g id="a_Node000003"><a xlink:href="struct_traffic_signal.html" target="_top" xlink:title=" ">
<polygon fill="white" stroke="none" points="97.12,-760 9.38,-760 9.38,-516 97.12,-516 97.12,-760"/>
<text xml:space="preserve" text-anchor="start" x="26.25" y="-746.25" font-family="Helvetica,sans-Serif" font-size="10.00">TrafficSignal</text>
<text xml:space="preserve" text-anchor="start" x="13.38" y="-730.25" font-family="Helvetica,sans-Serif" font-size="10.00">+</text>
<text xml:space="preserve" text-anchor="start" x="23.38" y="-730.25" font-family="Helvetica,sans-Serif" font-size="10.00">greentimer</text>
<text xml:space="preserve" text-anchor="start" x="13.38" y="-714.25" font-family="Helvetica,sans-Serif" font-size="10.00">+</text>
<text xml:space="preserve" text-anchor="start" x="23.38" y="-714.25" font-family="Helvetica,sans-Serif" font-size="10.00">minGreenTime</text>
<text xml:space="preserve" text-anchor="start" x="13.38" y="-698.25" font-family="Helvetica,sans-Serif" font-size="10.00">+</text>
<text xml:space="preserve" text-anchor="start" x="23.38" y="-698.25" font-family="Helvetica,sans-Serif" font-size="10.00">queueThreshold</text>
<text xml:space="preserve" text-anchor="start" x="13.38" y="-682.25" font-family="Helvetica,sans-Serif" font-size="10.00">+</text>
<text xml:space="preserve" text-anchor="start" x="23.38" y="-682.25" font-family="Helvetica,sans-Serif" font-size="10.00">maxGreenTime</text>
<text xml:space="preserve" text-anchor="start" x="13.38" y="-666.25" font-family="Helvetica,sans-Serif" font-size="10.00">+</text>
<text xml:space="preserve" text-anchor="start" x="23.38" y="-666.25" font-family="Helvetica,sans-Serif" font-size="10.00">redtimer</text>
<text xml:space="preserve" text-anchor="start" x="13.38" y="-650.25" font-family="Helvetica,sans-Serif" font-size="10.00">+</text>
<text xml:space="preserve" text-anchor="start" x="23.38" y="-650.25" font-family="Helvetica,sans-Serif" font-size="10.00">pa</text>
<text xml:space="preserve" text-anchor="start" x="13.38" y="-634.25" font-family="Helvetica,sans-Serif" font-size="10.00">+</text>
<text xml:space="preserve" text-anchor="start" x="23.38" y="-634.25" font-family="Helvetica,sans-Serif" font-size="10.00">pb</text>
<text xml:space="preserve" text-anchor="start" x="13.38" y="-618.25" font-family="Helvetica,sans-Serif" font-size="10.00">+</text>
<text xml:space="preserve" text-anchor="start" x="23.38" y="-618.25" font-family="Helvetica,sans-Serif" font-size="10.00">TrafficSignal()</text>
<text xml:space="preserve" text-anchor="start" x="13.38" y="-602.25" font-family="Helvetica,sans-Serif" font-size="10.00">+</text>
<text xml:space="preserve" text-anchor="start" x="23.38" y="-602.25" font-family="Helvetica,sans-Serif" font-size="10.00">Timer()</text>
<text xml:space="preserve" text-anchor="start" x="13.38" y="-586.25" font-family="Helvetica,sans-Serif" font-size="10.00">+</text>
<text xml:space="preserve" text-anchor="start" x="23.38" y="-586.25" font-family="Helvetica,sans-Serif" font-size="10.00">starvationCost()</text>
<text xml:space="preserve" text-anchor="start" x="13.38" y="-570.25" font-family="Helvetica,sans-Serif" font-size="10.00">+</text>
<text xml:space="preserve" text-anchor="start" x="23.38" y="-570.25" font-family="Helvetica,sans-Serif" font-size="10.00">turnGreen()</text>
<text xml:space="preserve" text-anchor="start" x="13.38" y="-554.25" font-family="Helvetica,sans-Serif" font-size="10.00">+</text>
<text xml:space="preserve" text-anchor="start" x="23.38" y="-554.25" font-family="Helvetica,sans-Serif" font-size="10.00">turnRed()</text>
<text xml:space="preserve" text-anchor="start" x="13.38" y="-538.25" font-family="Helvetica,sans-Serif" font-size="10.00">+</text>
<text xml:space="preserve" text-anchor="start" x="23.38" y="-538.25" font-family="Helvetica,sans-Serif" font-size="10.00">canSwitch()</text>
<text xml:space="preserve" text-anchor="start" x="13.38" y="-522.25" font-family="Helvetica,sans-Serif" font-size="10.00">+</text>
<text xml:space="preserve" text-anchor="start" x="23.38" y="-522.25" font-family="Helvetica,sans-Serif" font-size="10.00">mustSwitch()</text>
<polygon fill="#666666" stroke="#666666" points="9.38,-742 9.38,-742 97.12,-742 97.12,-742 9.38,-742"/>
<polygon fill="#666666" stroke="#666666" points="9.38,-630 9.38,-630 21.38,-630 21.38,-630 9.38,-630"/>
<polygon fill="#666666" stroke="#666666" points="21.38,-630 21.38,-630 97.12,-630 97.12,-630 21.38,-630"/>
<polygon fill="none" stroke="#666666" points="9.38,-516 9.38,-760 97.12,-760 97.12,-516 9.38,-516"/>
</a>
</g>
</g>
<!-- Node3&#45;&gt;Node2 -->
<g id="edge2_Node000002_Node000003" class="edge">
<title>Node3&#45;&gt;Node2</title>
<g id="a_edge2_Node000002_Node000003"><a xlink:title=" ">
<path fill="none" stroke="#63b8ff" d="M53.25,-516.35C53.25,-502.87 53.25,-488.9 53.25,-474.81"/>
<polygon fill="none" stroke="#63b8ff" points="53.25,-474.76 49.25,-468.76 53.25,-462.76 57.25,-468.76 53.25,-474.76"/>
</a>
</g>
<text xml:space="preserve" text-anchor="start" x="56.25" y="-485.25" font-family="Helvetica,sans-Serif" font-size="10.00" fill="grey">+light</text>
</g>
</g>
</svg>

<g id="navigator" transform="translate(0 0)" fill="#404254">
  <rect fill="#f2f5e9" fill-opacity="0.5" stroke="#606060" stroke-width=".5" x="0" y="0" width="60" height="60"/>
  <use id="zoomplus" xlink:href="#zoomPlus" x="17" y="9" onmousedown="handleZoom(evt,'in')"/>
  <use id="zoomminus" xlink:href="#zoomMin" x="42" y="9" onmousedown="handleZoom(evt,'out')"/>
  <use id="reset" xlink:href="#resetDef" x="30" y="36" onmousedown="handleReset()"/>
   <use id="arrowup" xlink:href="#arrowUp" x="0" y="0" onmousedown="handlePan(0,-1)"/>
  <use id="arrowright" xlink:href="#arrowRight" x="0" y="0" onmousedown="handlePan(1,0)"/>
  <use id="arrowdown" xlink:href="#arrowDown" x="0" y="0" onmousedown="handlePan(0,1)"/>
  <use id="arrowleft" xlink:href="#arrowLeft" x="0" y="0" onmousedown="handlePan(-1,0)"/>
</g>
<svg viewBox="0 0 15 15" width="100%" height="30px" preserveAspectRatio="xMaxYMin meet">
 <g id="arrow_out" transform="scale(0.3 0.3)">
  <a xlink:href="structweighted__coll__graph_org.svg" target="_base">
   <rect id="button" ry="5" rx="5" y="6" x="6" height="38" width="38"
        fill="#f2f5e9" fill-opacity="0.5" stroke="#606060" stroke-width="1.0"/>
   <path id="arrow"
     d="M 11.500037,31.436501 C 11.940474,20.09759 22.043105,11.32322 32.158766,21.979434 L 37.068811,17.246167 C 37.068811,17.246167 37.088388,32 37.088388,32 L 22.160133,31.978069 C 22.160133,31.978069 26.997745,27.140456 26.997745,27.140456 C 18.528582,18.264221 13.291696,25.230495 11.500037,31.436501 z"
     style="fill:#404040;"/>
  </a>
 </g>
</svg>

<style type='text/css'>
<![CDATA[
[data-mouse-over-selected='false'] { opacity: 0.7; }
[data-mouse-over-selected='true']  { opacity: 1.0; }
]]>
</style>
<script type="application/ecmascript"><![CDATA[
document.addEventListener('DOMContentLoaded', (event) => {
  highlightEdges();
  highlightAdjacentNodes();
});
]]></script>
</svg>
