<?xml version="1.0" encoding="UTF-8" standalone="no"?>
<!DOCTYPE svg PUBLIC "-//W3C//DTD SVG 1.1//EN"
 "http://www.w3.org/Graphics/SVG/1.1/DTD/svg11.dtd">
<!-- Generated by graphviz version 14.1.4 (20260321.0153)
 -->
<!-- Title: RoadDetails::NonIdealtime Pages: 1 -->
<svg width="669pt" height="255pt"
 viewBox="0.00 0.00 669.00 255.00" xmlns="http://www.w3.org/2000/svg" xmlns:xlink="http://www.w3.org/1999/xlink">
<g id="graph0" class="graph" transform="scale(1 1) rotate(0) translate(4 251.28)">
<title>RoadDetails::NonIdealtime</title>
<!-- Node1 -->
<g id="Node000001" class="node">
<title>Node1</title>
<g id="a_Node000001"><a xlink:title=" ">
<polygon fill="#999999" stroke="#666666" points="661,-146 527.25,-146 527.25,-126 661,-126 661,-146"/>
<text xml:space="preserve" text-anchor="middle" x="594.12" y="-132.5" font-family="Helvetica,sans-Serif" font-size="10.00">RoadDetails::NonIdealtime</text>
</a>
</g>
</g>
<!-- Node2 -->
<g id="Node000002" class="node">
<title>Node2</title>
<g id="a_Node000002"><a xlink:href="class_manager.html#ac9e977b3769ef82a56fa87d08092decc" target="_top" xlink:title=" ">
<polygon fill="white" stroke="#666666" points="286.25,-99 139.75,-99 139.75,-79 286.25,-79 286.25,-99"/>
<text xml:space="preserve" text-anchor="middle" x="213" y="-85.5" font-family="Helvetica,sans-Serif" font-size="10.00">Manager::arrivalAtIntersection</text>
</a>
</g>
</g>
<!-- Node1&#45;&gt;Node2 -->
<g id="edge1_Node000001_Node000002" class="edge">
<title>Node1&#45;&gt;Node2</title>
<g id="a_edge1_Node000001_Node000002"><a xlink:title=" ">
<path fill="none" stroke="#63b8ff" d="M574.31,-118.07C555.15,-101.16 523.72,-76.96 491.25,-67 423.9,-46.34 402.9,-60.56 332.75,-67 308.43,-69.23 281.65,-73.99 259.69,-78.51"/>
<polygon fill="#63b8ff" stroke="#63b8ff" points="571.81,-120.53 581.56,-124.68 576.52,-115.36 571.81,-120.53"/>
</a>
</g>
</g>
<!-- Node4 -->
<g id="Node000004" class="node">
<title>Node4</title>
<g id="a_Node000004"><a xlink:href="class_manager.html#aef9be6b89ef65c0eadad234ef04e6109" target="_top" xlink:title=" ">
<polygon fill="white" stroke="#666666" points="296.75,-222 129.25,-222 129.25,-202 296.75,-202 296.75,-222"/>
<text xml:space="preserve" text-anchor="middle" x="213" y="-208.5" font-family="Helvetica,sans-Serif" font-size="10.00">Manager::entraingfromQueetoEdge</text>
</a>
</g>
</g>
<!-- Node1&#45;&gt;Node4 -->
<g id="edge3_Node000001_Node000004" class="edge">
<title>Node1&#45;&gt;Node4</title>
<g id="a_edge3_Node000001_Node000004"><a xlink:title=" ">
<path fill="none" stroke="#63b8ff" d="M579.53,-155.56C562.15,-178.66 529.67,-215.87 491.25,-231 407.08,-264.15 297.48,-238.55 244.85,-222.47"/>
<polygon fill="#63b8ff" stroke="#63b8ff" points="582.29,-157.72 585.34,-147.57 576.63,-153.6 582.29,-157.72"/>
</a>
</g>
</g>
<!-- Node5 -->
<g id="Node000005" class="node">
<title>Node5</title>
<g id="a_Node000005"><a xlink:href="class_manager.html#aa096455f1fb6db1d64381ba40b1924b0" target="_top" xlink:title=" ">
<polygon fill="white" stroke="#666666" points="261.5,-161 164.5,-161 164.5,-141 261.5,-141 261.5,-161"/>
<text xml:space="preserve" text-anchor="middle" x="213" y="-147.5" font-family="Helvetica,sans-Serif" font-size="10.00">Manager::entrance</text>
</a>
</g>
</g>
<!-- Node1&#45;&gt;Node5 -->
<g id="edge5_Node000001_Node000005" class="edge">
<title>Node1&#45;&gt;Node5</title>
<g id="a_edge5_Node000001_Node000005"><a xlink:title=" ">
<path fill="none" stroke="#63b8ff" d="M535.67,-148.63C521.24,-151.27 505.74,-153.66 491.25,-155 410.96,-162.42 317.05,-158.42 261.71,-154.77"/>
<polygon fill="#63b8ff" stroke="#63b8ff" points="536.32,-152.07 545.49,-146.75 535.01,-145.19 536.32,-152.07"/>
</a>
</g>
</g>
<!-- Node6 -->
<g id="Node000006" class="node">
<title>Node6</title>
<g id="a_Node000006"><a xlink:href="struct_road_details.html#aeba1d96f6e1cf5e96f59c887d1f2a0ef" target="_top" xlink:title=" ">
<polygon fill="white" stroke="#666666" points="468.38,-146 355.62,-146 355.62,-126 468.38,-126 468.38,-146"/>
<text xml:space="preserve" text-anchor="middle" x="412" y="-132.5" font-family="Helvetica,sans-Serif" font-size="10.00">RoadDetails::TimeCal</text>
</a>
</g>
</g>
<!-- Node1&#45;&gt;Node6 -->
<g id="edge7_Node000001_Node000006" class="edge">
<title>Node1&#45;&gt;Node6</title>
<g id="a_edge7_Node000001_Node000006"><a xlink:title=" ">
<path fill="none" stroke="#63b8ff" d="M515.51,-136C499.8,-136 483.59,-136 468.82,-136"/>
<polygon fill="#63b8ff" stroke="#63b8ff" points="515.31,-139.5 525.31,-136 515.31,-132.5 515.31,-139.5"/>
</a>
</g>
</g>
<!-- Node7 -->
<g id="Node000007" class="node">
<title>Node7</title>
<g id="a_Node000007"><a xlink:href="struct_road_details.html#ad2d8b3a44383c9950e6cc4b4606b9f1a" target="_top" xlink:title=" ">
<polygon fill="white" stroke="#666666" points="491.25,-222 332.75,-222 332.75,-202 491.25,-202 491.25,-222"/>
<text xml:space="preserve" text-anchor="middle" x="412" y="-208.5" font-family="Helvetica,sans-Serif" font-size="10.00">RoadDetails::vehicleEntersRoad</text>
</a>
</g>
</g>
<!-- Node1&#45;&gt;Node7 -->
<g id="edge8_Node000001_Node000007" class="edge">
<title>Node1&#45;&gt;Node7</title>
<g id="a_edge8_Node000001_Node000007"><a xlink:title=" ">
<path fill="none" stroke="#63b8ff" d="M565.14,-151.96C545.02,-163.02 516.99,-177.58 491.25,-188 478.61,-193.12 464.44,-197.78 451.67,-201.59"/>
<polygon fill="#63b8ff" stroke="#63b8ff" points="566.81,-155.04 573.85,-147.11 563.41,-148.92 566.81,-155.04"/>
</a>
</g>
</g>
<!-- Node8 -->
<g id="Node000008" class="node">
<title>Node8</title>
<g id="a_Node000008"><a xlink:href="struct_road_details.html#abd834d75bb646b28fcbc9f079dfe6448" target="_top" xlink:title=" ">
<polygon fill="white" stroke="#666666" points="488.25,-20 335.75,-20 335.75,0 488.25,0 488.25,-20"/>
<text xml:space="preserve" text-anchor="middle" x="412" y="-6.5" font-family="Helvetica,sans-Serif" font-size="10.00">RoadDetails::vehicleExitsRoad</text>
</a>
</g>
</g>
<!-- Node1&#45;&gt;Node8 -->
<g id="edge12_Node000001_Node000008" class="edge">
<title>Node1&#45;&gt;Node8</title>
<g id="a_edge12_Node000001_Node000008"><a xlink:title=" ">
<path fill="none" stroke="#63b8ff" d="M578.66,-116.57C560.61,-93.66 527.67,-55.92 491.25,-34 481.75,-28.28 470.78,-23.82 460.11,-20.38"/>
<polygon fill="#63b8ff" stroke="#63b8ff" points="575.86,-118.68 584.73,-124.47 581.41,-114.41 575.86,-118.68"/>
</a>
</g>
</g>
<!-- Node11 -->
<g id="Node000011" class="node">
<title>Node11</title>
<g id="a_Node000011"><a xlink:href="struct_road_details.html#ab807ac493fcc667a2d6571906da7d106" target="_top" xlink:title=" ">
<polygon fill="white" stroke="#666666" points="477,-108 347,-108 347,-76 477,-76 477,-108"/>
<text xml:space="preserve" text-anchor="start" x="355" y="-94.5" font-family="Helvetica,sans-Serif" font-size="10.00">RoadDetails::vehicleJoins</text>
<text xml:space="preserve" text-anchor="middle" x="412" y="-82.5" font-family="Helvetica,sans-Serif" font-size="10.00">Queue</text>
</a>
</g>
</g>
<!-- Node1&#45;&gt;Node11 -->
<g id="edge18_Node000001_Node000011" class="edge">
<title>Node1&#45;&gt;Node11</title>
<g id="a_edge18_Node000001_Node000011"><a xlink:title=" ">
<path fill="none" stroke="#63b8ff" d="M539.3,-122.85C519.79,-118.09 497.56,-112.66 477.24,-107.69"/>
<polygon fill="#63b8ff" stroke="#63b8ff" points="538.42,-126.24 548.97,-125.21 540.08,-119.44 538.42,-126.24"/>
</a>
</g>
</g>
<!-- Node3 -->
<g id="Node000003" class="node">
<title>Node3</title>
<g id="a_Node000003"><a xlink:href="class_manager.html#a0170cc23a3a67917aed9e6f708830fe9" target="_top" xlink:title=" ">
<polygon fill="white" stroke="#666666" points="93.25,-99 0,-99 0,-79 93.25,-79 93.25,-99"/>
<text xml:space="preserve" text-anchor="middle" x="46.62" y="-85.5" font-family="Helvetica,sans-Serif" font-size="10.00">Manager::physics</text>
</a>
</g>
</g>
<!-- Node2&#45;&gt;Node3 -->
<g id="edge2_Node000002_Node000003" class="edge">
<title>Node2&#45;&gt;Node3</title>
<g id="a_edge2_Node000002_Node000003"><a xlink:title=" ">
<path fill="none" stroke="#63b8ff" d="M128,-89C116.07,-89 104.19,-89 93.36,-89"/>
<polygon fill="#63b8ff" stroke="#63b8ff" points="127.91,-92.5 137.91,-89 127.91,-85.5 127.91,-92.5"/>
</a>
</g>
</g>
<!-- Node4&#45;&gt;Node3 -->
<g id="edge4_Node000004_Node000003" class="edge">
<title>Node4&#45;&gt;Node3</title>
<g id="a_edge4_Node000004_Node000003"><a xlink:title=" ">
<path fill="none" stroke="#63b8ff" d="M176.51,-196.98C161.33,-189.81 143.79,-180.5 129.25,-170 99.31,-148.37 70.02,-115.7 56.07,-99.24"/>
<polygon fill="#63b8ff" stroke="#63b8ff" points="174.65,-199.98 185.2,-200.96 177.57,-193.61 174.65,-199.98"/>
</a>
</g>
</g>
<!-- Node5&#45;&gt;Node3 -->
<g id="edge6_Node000005_Node000003" class="edge">
<title>Node5&#45;&gt;Node3</title>
<g id="a_edge6_Node000005_Node000003"><a xlink:title=" ">
<path fill="none" stroke="#63b8ff" d="M173.93,-136.64C143.74,-125.25 102.28,-109.62 75.23,-99.41"/>
<polygon fill="#63b8ff" stroke="#63b8ff" points="172.48,-139.83 183.07,-140.09 174.95,-133.28 172.48,-139.83"/>
</a>
</g>
</g>
<!-- Node7&#45;&gt;Node2 -->
<g id="edge9_Node000007_Node000002" class="edge">
<title>Node7&#45;&gt;Node2</title>
<g id="a_edge9_Node000007_Node000002"><a xlink:title=" ">
<path fill="none" stroke="#63b8ff" d="M388.2,-194.7C365.56,-177.84 329.58,-151.9 296.75,-132 276.68,-119.83 252.79,-107.65 235.86,-99.38"/>
<polygon fill="#63b8ff" stroke="#63b8ff" points="386.02,-197.43 396.12,-200.63 390.21,-191.83 386.02,-197.43"/>
</a>
</g>
</g>
<!-- Node7&#45;&gt;Node4 -->
<g id="edge10_Node000007_Node000004" class="edge">
<title>Node7&#45;&gt;Node4</title>
<g id="a_edge10_Node000007_Node000004"><a xlink:title=" ">
<path fill="none" stroke="#63b8ff" d="M320.8,-212C312.9,-212 304.94,-212 297.1,-212"/>
<polygon fill="#63b8ff" stroke="#63b8ff" points="320.78,-215.5 330.78,-212 320.78,-208.5 320.78,-215.5"/>
</a>
</g>
</g>
<!-- Node7&#45;&gt;Node5 -->
<g id="edge11_Node000007_Node000005" class="edge">
<title>Node7&#45;&gt;Node5</title>
<g id="a_edge11_Node000007_Node000005"><a xlink:title=" ">
<path fill="none" stroke="#63b8ff" d="M365.75,-198.16C354.94,-194.84 343.43,-191.3 332.75,-188 303.97,-179.1 271.29,-168.92 247.51,-161.49"/>
<polygon fill="#63b8ff" stroke="#63b8ff" points="364.68,-201.49 375.26,-201.08 366.73,-194.8 364.68,-201.49"/>
</a>
</g>
</g>
<!-- Node8&#45;&gt;Node2 -->
<g id="edge13_Node000008_Node000002" class="edge">
<title>Node8&#45;&gt;Node2</title>
<g id="a_edge13_Node000008_Node000002"><a xlink:title=" ">
<path fill="none" stroke="#63b8ff" d="M353.15,-24.29C346.06,-27.04 339.08,-30.25 332.75,-34 313.55,-45.37 316.29,-58.22 296.75,-69 289.63,-72.93 281.75,-76.09 273.77,-78.64"/>
<polygon fill="#63b8ff" stroke="#63b8ff" points="354.26,-27.62 362.52,-20.99 351.93,-21.01 354.26,-27.62"/>
</a>
</g>
</g>
<!-- Node9 -->
<g id="Node000009" class="node">
<title>Node9</title>
<g id="a_Node000009"><a xlink:href="class_manager.html#ae97e60d3e65539f3ec5fc92185cf7a6a" target="_top" xlink:title=" ">
<polygon fill="white" stroke="#666666" points="281.38,-21 144.62,-21 144.62,-1 281.38,-1 281.38,-21"/>
<text xml:space="preserve" text-anchor="middle" x="213" y="-7.5" font-family="Helvetica,sans-Serif" font-size="10.00">Manager::checkBrokenPath</text>
</a>
</g>
</g>
<!-- Node8&#45;&gt;Node9 -->
<g id="edge14_Node000008_Node000009" class="edge">
<title>Node8&#45;&gt;Node9</title>
<g id="a_edge14_Node000008_Node000009"><a xlink:title=" ">
<path fill="none" stroke="#63b8ff" d="M324.09,-10.44C309.87,-10.51 295.33,-10.59 281.67,-10.66"/>
<polygon fill="#63b8ff" stroke="#63b8ff" points="323.9,-13.94 333.88,-10.39 323.87,-6.94 323.9,-13.94"/>
</a>
</g>
</g>
<!-- Node10 -->
<g id="Node000010" class="node">
<title>Node10</title>
<g id="a_Node000010"><a xlink:href="class_manager.html#a66ab5b09246caed3e30768721639ee25" target="_top" xlink:title=" ">
<polygon fill="white" stroke="#666666" points="260,-60 166,-60 166,-40 260,-40 260,-60"/>
<text xml:space="preserve" text-anchor="middle" x="213" y="-46.5" font-family="Helvetica,sans-Serif" font-size="10.00">Manager::reached</text>
</a>
</g>
</g>
<!-- Node8&#45;&gt;Node10 -->
<g id="edge16_Node000008_Node000010" class="edge">
<title>Node8&#45;&gt;Node10</title>
<g id="a_edge16_Node000008_Node000010"><a xlink:title=" ">
<path fill="none" stroke="#63b8ff" d="M348.42,-22.71C319.9,-28.5 286.74,-35.23 260.49,-40.56"/>
<polygon fill="#63b8ff" stroke="#63b8ff" points="348.91,-26.18 358.01,-20.76 347.52,-19.32 348.91,-26.18"/>
</a>
</g>
</g>
<!-- Node9&#45;&gt;Node3 -->
<g id="edge15_Node000009_Node000003" class="edge">
<title>Node9&#45;&gt;Node3</title>
<g id="a_edge15_Node000009_Node000003"><a xlink:title=" ">
<path fill="none" stroke="#63b8ff" d="M145.47,-24.69C139.89,-26.55 134.41,-28.65 129.25,-31 101.88,-43.47 74.23,-65.57 59.17,-78.59"/>
<polygon fill="#63b8ff" stroke="#63b8ff" points="146.28,-28.1 154.82,-21.82 144.23,-21.4 146.28,-28.1"/>
</a>
</g>
</g>
<!-- Node10&#45;&gt;Node3 -->
<g id="edge17_Node000010_Node000003" class="edge">
<title>Node10&#45;&gt;Node3</title>
<g id="a_edge17_Node000010_Node000003"><a xlink:title=" ">
<path fill="none" stroke="#63b8ff" d="M156.83,-63.09C135.66,-68.11 111.8,-73.77 91.8,-78.52"/>
<polygon fill="#63b8ff" stroke="#63b8ff" points="157.56,-66.51 166.48,-60.8 155.94,-59.7 157.56,-66.51"/>
</a>
</g>
</g>
<!-- Node11&#45;&gt;Node2 -->
<g id="edge19_Node000011_Node000002" class="edge">
<title>Node11&#45;&gt;Node2</title>
<g id="a_edge19_Node000011_Node000002"><a xlink:title=" ">
<path fill="none" stroke="#63b8ff" d="M335.32,-90.85C319.35,-90.6 302.53,-90.35 286.68,-90.11"/>
<polygon fill="#63b8ff" stroke="#63b8ff" points="335.2,-94.35 345.25,-91 335.31,-87.35 335.2,-94.35"/>
</a>
</g>
</g>
<!-- Node11&#45;&gt;Node5 -->
<g id="edge20_Node000011_Node000005" class="edge">
<title>Node11&#45;&gt;Node5</title>
<g id="a_edge20_Node000011_Node000005"><a xlink:title=" ">
<path fill="none" stroke="#63b8ff" d="M345.43,-111.64C313.24,-121.28 275.74,-132.51 249.06,-140.5"/>
<polygon fill="#63b8ff" stroke="#63b8ff" points="346.1,-115.09 354.67,-108.87 344.09,-108.39 346.1,-115.09"/>
</a>
</g>
</g>
</g>
</svg>
