<?xml version="1.0" encoding="UTF-8" standalone="no"?>
<!DOCTYPE svg PUBLIC "-//W3C//DTD SVG 1.1//EN"
 "http://www.w3.org/Graphics/SVG/1.1/DTD/svg11.dtd">
<!-- Generated by graphviz version 14.1.4 (20260321.0153)
 -->
<!-- Title: RoadDetails::DischargeAllowed Pages: 1 -->
<svg width="496pt" height="104pt"
 viewBox="0.00 0.00 496.00 104.00" xmlns="http://www.w3.org/2000/svg" xmlns:xlink="http://www.w3.org/1999/xlink">
<g id="graph0" class="graph" transform="scale(1 1) rotate(0) translate(4 100)">
<title>RoadDetails::DischargeAllowed</title>
<!-- Node1 -->
<g id="Node000001" class="node">
<title>Node1</title>
<g id="a_Node000001"><a xlink:title=" ">
<polygon fill="#999999" stroke="#666666" points="487.5,-58 332.75,-58 332.75,-38 487.5,-38 487.5,-58"/>
<text xml:space="preserve" text-anchor="middle" x="410.12" y="-44.5" font-family="Helvetica,sans-Serif" font-size="10.00">RoadDetails::DischargeAllowed</text>
</a>
</g>
</g>
<!-- Node2 -->
<g id="Node000002" class="node">
<title>Node2</title>
<g id="a_Node000002"><a xlink:href="class_manager.html#ac9e977b3769ef82a56fa87d08092decc" target="_top" xlink:title=" ">
<polygon fill="white" stroke="#666666" points="286.25,-96 139.75,-96 139.75,-76 286.25,-76 286.25,-96"/>
<text xml:space="preserve" text-anchor="middle" x="213" y="-82.5" font-family="Helvetica,sans-Serif" font-size="10.00">Manager::arrivalAtIntersection</text>
</a>
</g>
</g>
<!-- Node1&#45;&gt;Node2 -->
<g id="edge1_Node000001_Node000002" class="edge">
<title>Node1&#45;&gt;Node2</title>
<g id="a_edge1_Node000001_Node000002"><a xlink:title=" ">
<path fill="none" stroke="#63b8ff" d="M344.14,-60.66C319.31,-65.49 291.31,-70.94 267.66,-75.55"/>
<polygon fill="#63b8ff" stroke="#63b8ff" points="344.66,-64.12 353.8,-58.77 343.32,-57.25 344.66,-64.12"/>
</a>
</g>
</g>
<!-- Node4 -->
<g id="Node000004" class="node">
<title>Node4</title>
<g id="a_Node000004"><a xlink:href="class_manager.html#aef9be6b89ef65c0eadad234ef04e6109" target="_top" xlink:title=" ">
<polygon fill="white" stroke="#666666" points="296.75,-58 129.25,-58 129.25,-38 296.75,-38 296.75,-58"/>
<text xml:space="preserve" text-anchor="middle" x="213" y="-44.5" font-family="Helvetica,sans-Serif" font-size="10.00">Manager::entraingfromQueetoEdge</text>
</a>
</g>
</g>
<!-- Node1&#45;&gt;Node4 -->
<g id="edge3_Node000001_Node000004" class="edge">
<title>Node1&#45;&gt;Node4</title>
<g id="a_edge3_Node000001_Node000004"><a xlink:title=" ">
<path fill="none" stroke="#63b8ff" d="M320.84,-48C312.97,-48 305.03,-48 297.2,-48"/>
<polygon fill="#63b8ff" stroke="#63b8ff" points="320.77,-51.5 330.77,-48 320.77,-44.5 320.77,-51.5"/>
</a>
</g>
</g>
<!-- Node5 -->
<g id="Node000005" class="node">
<title>Node5</title>
<g id="a_Node000005"><a xlink:href="class_manager.html#aa096455f1fb6db1d64381ba40b1924b0" target="_top" xlink:title=" ">
<polygon fill="white" stroke="#666666" points="261.5,-20 164.5,-20 164.5,0 261.5,0 261.5,-20"/>
<text xml:space="preserve" text-anchor="middle" x="213" y="-6.5" font-family="Helvetica,sans-Serif" font-size="10.00">Manager::entrance</text>
</a>
</g>
</g>
<!-- Node1&#45;&gt;Node5 -->
<g id="edge5_Node000001_Node000005" class="edge">
<title>Node1&#45;&gt;Node5</title>
<g id="a_edge5_Node000001_Node000005"><a xlink:title=" ">
<path fill="none" stroke="#63b8ff" d="M344.01,-35.32C317.09,-30.08 286.45,-24.11 261.67,-19.28"/>
<polygon fill="#63b8ff" stroke="#63b8ff" points="343.32,-38.75 353.8,-37.23 344.66,-31.88 343.32,-38.75"/>
</a>
</g>
</g>
<!-- Node3 -->
<g id="Node000003" class="node">
<title>Node3</title>
<g id="a_Node000003"><a xlink:href="class_manager.html#a0170cc23a3a67917aed9e6f708830fe9" target="_top" xlink:title=" ">
<polygon fill="white" stroke="#666666" points="93.25,-58 0,-58 0,-38 93.25,-38 93.25,-58"/>
<text xml:space="preserve" text-anchor="middle" x="46.62" y="-44.5" font-family="Helvetica,sans-Serif" font-size="10.00">Manager::physics</text>
</a>
</g>
</g>
<!-- Node2&#45;&gt;Node3 -->
<g id="edge2_Node000002_Node000003" class="edge">
<title>Node2&#45;&gt;Node3</title>
<g id="a_edge2_Node000002_Node000003"><a xlink:title=" ">
<path fill="none" stroke="#63b8ff" d="M155.49,-73.05C146.71,-71.03 137.73,-68.96 129.25,-67 117.34,-64.25 104.46,-61.26 92.53,-58.48"/>
<polygon fill="#63b8ff" stroke="#63b8ff" points="154.46,-76.4 164.99,-75.23 156.03,-69.58 154.46,-76.4"/>
</a>
</g>
</g>
<!-- Node4&#45;&gt;Node3 -->
<g id="edge4_Node000004_Node000003" class="edge">
<title>Node4&#45;&gt;Node3</title>
<g id="a_edge4_Node000004_Node000003"><a xlink:title=" ">
<path fill="none" stroke="#63b8ff" d="M117.54,-48C109.3,-48 101.23,-48 93.67,-48"/>
<polygon fill="#63b8ff" stroke="#63b8ff" points="117.34,-51.5 127.34,-48 117.34,-44.5 117.34,-51.5"/>
</a>
</g>
</g>
<!-- Node5&#45;&gt;Node3 -->
<g id="edge6_Node000005_Node000003" class="edge">
<title>Node5&#45;&gt;Node3</title>
<g id="a_edge6_Node000005_Node000003"><a xlink:title=" ">
<path fill="none" stroke="#63b8ff" d="M155.49,-22.95C146.71,-24.97 137.73,-27.04 129.25,-29 117.34,-31.75 104.46,-34.74 92.53,-37.52"/>
<polygon fill="#63b8ff" stroke="#63b8ff" points="156.03,-26.42 164.99,-20.77 154.46,-19.6 156.03,-26.42"/>
</a>
</g>
</g>
</g>
</svg>
