<?xml version="1.0" encoding="UTF-8" standalone="no"?>
<!DOCTYPE svg PUBLIC "-//W3C//DTD SVG 1.1//EN"
 "http://www.w3.org/Graphics/SVG/1.1/DTD/svg11.dtd">
<!-- Generated by graphviz version 14.1.4 (20260321.0153)
 -->
<!-- Title: RoadDetails::vehicleExitsQueue Pages: 1 -->
<svg width="643pt" height="142pt"
 viewBox="0.00 0.00 643.00 142.00" xmlns="http://www.w3.org/2000/svg" xmlns:xlink="http://www.w3.org/1999/xlink">
<g id="graph0" class="graph" transform="scale(1 1) rotate(0) translate(4 138)">
<title>RoadDetails::vehicleExitsQueue</title>
<!-- Node1 -->
<g id="Node000001" class="node">
<title>Node1</title>
<g id="a_Node000001"><a xlink:title=" ">
<polygon fill="#999999" stroke="#666666" points="634.75,-83 505.5,-83 505.5,-51 634.75,-51 634.75,-83"/>
<text xml:space="preserve" text-anchor="start" x="513.5" y="-69.5" font-family="Helvetica,sans-Serif" font-size="10.00">RoadDetails::vehicleExits</text>
<text xml:space="preserve" text-anchor="middle" x="570.12" y="-57.5" font-family="Helvetica,sans-Serif" font-size="10.00">Queue</text>
</a>
</g>
</g>
<!-- Node2 -->
<g id="Node000002" class="node">
<title>Node2</title>
<g id="a_Node000002"><a xlink:href="class_manager.html#ae97e60d3e65539f3ec5fc92185cf7a6a" target="_top" xlink:title=" ">
<polygon fill="white" stroke="#666666" points="469.5,-134 332.75,-134 332.75,-114 469.5,-114 469.5,-134"/>
<text xml:space="preserve" text-anchor="middle" x="401.12" y="-120.5" font-family="Helvetica,sans-Serif" font-size="10.00">Manager::checkBrokenPath</text>
</a>
</g>
</g>
<!-- Node1&#45;&gt;Node2 -->
<g id="edge1_Node000001_Node000002" class="edge">
<title>Node1&#45;&gt;Node2</title>
<g id="a_edge1_Node000001_Node000002"><a xlink:title=" ">
<path fill="none" stroke="#63b8ff" d="M510.24,-87.1C484.06,-96.03 454.35,-106.18 432.7,-113.56"/>
<polygon fill="#63b8ff" stroke="#63b8ff" points="511.06,-90.52 519.39,-83.98 508.79,-83.89 511.06,-90.52"/>
</a>
</g>
</g>
<!-- Node4 -->
<g id="Node000004" class="node">
<title>Node4</title>
<g id="a_Node000004"><a xlink:href="class_manager.html#aef9be6b89ef65c0eadad234ef04e6109" target="_top" xlink:title=" ">
<polygon fill="white" stroke="#666666" points="296.75,-96 129.25,-96 129.25,-76 296.75,-76 296.75,-96"/>
<text xml:space="preserve" text-anchor="middle" x="213" y="-82.5" font-family="Helvetica,sans-Serif" font-size="10.00">Manager::entraingfromQueetoEdge</text>
</a>
</g>
</g>
<!-- Node1&#45;&gt;Node4 -->
<g id="edge3_Node000001_Node000004" class="edge">
<title>Node1&#45;&gt;Node4</title>
<g id="a_edge3_Node000001_Node000004"><a xlink:title=" ">
<path fill="none" stroke="#63b8ff" d="M493.99,-71.02C436.31,-74.11 356.72,-78.36 297.13,-81.55"/>
<polygon fill="#63b8ff" stroke="#63b8ff" points="493.92,-74.53 503.71,-70.5 493.54,-67.54 493.92,-74.53"/>
</a>
</g>
</g>
<!-- Node5 -->
<g id="Node000005" class="node">
<title>Node5</title>
<g id="a_Node000005"><a xlink:href="class_manager.html#aa096455f1fb6db1d64381ba40b1924b0" target="_top" xlink:title=" ">
<polygon fill="white" stroke="#666666" points="261.5,-58 164.5,-58 164.5,-38 261.5,-38 261.5,-58"/>
<text xml:space="preserve" text-anchor="middle" x="213" y="-44.5" font-family="Helvetica,sans-Serif" font-size="10.00">Manager::entrance</text>
</a>
</g>
</g>
<!-- Node1&#45;&gt;Node5 -->
<g id="edge5_Node000001_Node000005" class="edge">
<title>Node1&#45;&gt;Node5</title>
<g id="a_edge5_Node000001_Node000005"><a xlink:title=" ">
<path fill="none" stroke="#63b8ff" d="M493.83,-62.97C423.7,-59.22 321.28,-53.74 261.76,-50.56"/>
<polygon fill="#63b8ff" stroke="#63b8ff" points="493.54,-66.46 503.71,-63.5 493.92,-59.47 493.54,-66.46"/>
</a>
</g>
</g>
<!-- Node6 -->
<g id="Node000006" class="node">
<title>Node6</title>
<g id="a_Node000006"><a xlink:href="class_manager.html#a9d7f391347995c2a77c126aa30827824" target="_top" xlink:title=" ">
<polygon fill="white" stroke="#666666" points="459.38,-20 342.88,-20 342.88,0 459.38,0 459.38,-20"/>
<text xml:space="preserve" text-anchor="middle" x="401.12" y="-6.5" font-family="Helvetica,sans-Serif" font-size="10.00">Manager::ShortestPath</text>
</a>
</g>
</g>
<!-- Node1&#45;&gt;Node6 -->
<g id="edge7_Node000001_Node000006" class="edge">
<title>Node1&#45;&gt;Node6</title>
<g id="a_edge7_Node000001_Node000006"><a xlink:title=" ">
<path fill="none" stroke="#63b8ff" d="M510.24,-46.9C484.06,-37.97 454.35,-27.82 432.7,-20.44"/>
<polygon fill="#63b8ff" stroke="#63b8ff" points="508.79,-50.11 519.39,-50.02 511.06,-43.48 508.79,-50.11"/>
</a>
</g>
</g>
<!-- Node3 -->
<g id="Node000003" class="node">
<title>Node3</title>
<g id="a_Node000003"><a xlink:href="class_manager.html#a0170cc23a3a67917aed9e6f708830fe9" target="_top" xlink:title=" ">
<polygon fill="white" stroke="#666666" points="93.25,-77 0,-77 0,-57 93.25,-57 93.25,-77"/>
<text xml:space="preserve" text-anchor="middle" x="46.62" y="-63.5" font-family="Helvetica,sans-Serif" font-size="10.00">Manager::physics</text>
</a>
</g>
</g>
<!-- Node2&#45;&gt;Node3 -->
<g id="edge2_Node000002_Node000003" class="edge">
<title>Node2&#45;&gt;Node3</title>
<g id="a_edge2_Node000002_Node000003"><a xlink:title=" ">
<path fill="none" stroke="#63b8ff" d="M321.16,-125.99C266.46,-125.55 192.42,-121.32 129.25,-105 105.94,-98.98 81.14,-86.45 65.07,-77.42"/>
<polygon fill="#63b8ff" stroke="#63b8ff" points="321,-129.49 331.01,-126.02 321.02,-122.49 321,-129.49"/>
</a>
</g>
</g>
<!-- Node4&#45;&gt;Node3 -->
<g id="edge4_Node000004_Node000003" class="edge">
<title>Node4&#45;&gt;Node3</title>
<g id="a_edge4_Node000004_Node000003"><a xlink:title=" ">
<path fill="none" stroke="#63b8ff" d="M117.54,-75.08C109.3,-74.13 101.23,-73.2 93.67,-72.32"/>
<polygon fill="#63b8ff" stroke="#63b8ff" points="117.01,-78.54 127.35,-76.21 117.81,-71.59 117.01,-78.54"/>
</a>
</g>
</g>
<!-- Node5&#45;&gt;Node3 -->
<g id="edge6_Node000005_Node000003" class="edge">
<title>Node5&#45;&gt;Node3</title>
<g id="a_edge6_Node000005_Node000003"><a xlink:title=" ">
<path fill="none" stroke="#63b8ff" d="M152.81,-54.84C133.35,-57.09 112.03,-59.56 93.69,-61.68"/>
<polygon fill="#63b8ff" stroke="#63b8ff" points="152.98,-58.35 162.51,-53.72 152.17,-51.39 152.98,-58.35"/>
</a>
</g>
</g>
<!-- Node7 -->
<g id="Node000007" class="node">
<title>Node7</title>
<g id="a_Node000007"><a xlink:href="class_manager.html#ac9e977b3769ef82a56fa87d08092decc" target="_top" xlink:title=" ">
<polygon fill="white" stroke="#666666" points="286.25,-20 139.75,-20 139.75,0 286.25,0 286.25,-20"/>
<text xml:space="preserve" text-anchor="middle" x="213" y="-6.5" font-family="Helvetica,sans-Serif" font-size="10.00">Manager::arrivalAtIntersection</text>
</a>
</g>
</g>
<!-- Node6&#45;&gt;Node7 -->
<g id="edge8_Node000006_Node000007" class="edge">
<title>Node6&#45;&gt;Node7</title>
<g id="a_edge8_Node000006_Node000007"><a xlink:title=" ">
<path fill="none" stroke="#63b8ff" d="M331.05,-10C316.51,-10 301.13,-10 286.46,-10"/>
<polygon fill="#63b8ff" stroke="#63b8ff" points="331,-13.5 340.99,-10 330.99,-6.5 331,-13.5"/>
</a>
</g>
</g>
<!-- Node7&#45;&gt;Node3 -->
<g id="edge9_Node000007_Node000003" class="edge">
<title>Node7&#45;&gt;Node3</title>
<g id="a_edge9_Node000007_Node000003"><a xlink:title=" ">
<path fill="none" stroke="#63b8ff" d="M148.17,-23.23C141.73,-24.99 135.32,-26.92 129.25,-29 107.22,-36.56 83.18,-48.19 66.94,-56.6"/>
<polygon fill="#63b8ff" stroke="#63b8ff" points="148.73,-26.7 157.54,-20.8 146.98,-19.92 148.73,-26.7"/>
</a>
</g>
</g>
</g>
</svg>
