<?xml version="1.0" encoding="UTF-8" standalone="no"?>
<!DOCTYPE svg PUBLIC "-//W3C//DTD SVG 1.1//EN"
 "http://www.w3.org/Graphics/SVG/1.1/DTD/svg11.dtd">
<!-- Generated by graphviz version 14.1.4 (20260321.0153)
 -->
<!-- Title: Project_DSA.cpp Pages: 1 -->
<svg width="548pt" height="140pt"
 viewBox="0.00 0.00 548.00 140.00" xmlns="http://www.w3.org/2000/svg" xmlns:xlink="http://www.w3.org/1999/xlink">
<g id="graph0" class="graph" transform="scale(1 1) rotate(0) translate(4 136)">
<title>Project_DSA.cpp</title>
<!-- Node1 -->
<g id="Node000001" class="node">
<title>Node1</title>
<g id="a_Node000001"><a xlink:title=" ">
<polygon fill="#999999" stroke="#666666" points="305.62,-132 213.88,-132 213.88,-112 305.62,-112 305.62,-132"/>
<text xml:space="preserve" text-anchor="middle" x="259.75" y="-118.5" font-family="Helvetica,sans-Serif" font-size="10.00">Project_DSA.cpp</text>
</a>
</g>
</g>
<!-- Node2 -->
<g id="Node000002" class="node">
<title>Node2</title>
<g id="a_Node000002"><a xlink:href="_header1_8h.html" target="_top" xlink:title=" ">
<polygon fill="white" stroke="#666666" points="175.25,-76 114.25,-76 114.25,-56 175.25,-56 175.25,-76"/>
<text xml:space="preserve" text-anchor="middle" x="144.75" y="-62.5" font-family="Helvetica,sans-Serif" font-size="10.00">Header1.h</text>
</a>
</g>
</g>
<!-- Node1&#45;&gt;Node2 -->
<g id="edge1_Node000001_Node000002" class="edge">
<title>Node1&#45;&gt;Node2</title>
<g id="a_edge1_Node000001_Node000002"><a xlink:title=" ">
<path fill="none" stroke="#63b8ff" d="M239.72,-111.59C221.94,-103.24 195.68,-90.92 175.29,-81.34"/>
<polygon fill="#63b8ff" stroke="#63b8ff" points="176.85,-78.21 166.31,-77.12 173.87,-84.54 176.85,-78.21"/>
</a>
</g>
</g>
<!-- Node4 -->
<g id="Node000004" class="node">
<title>Node4</title>
<g id="a_Node000004"><a xlink:title=" ">
<polygon fill="#e0e0e0" stroke="#999999" points="53.5,-20 0,-20 0,0 53.5,0 53.5,-20"/>
<text xml:space="preserve" text-anchor="middle" x="26.75" y="-6.5" font-family="Helvetica,sans-Serif" font-size="10.00">iostream</text>
</a>
</g>
</g>
<!-- Node1&#45;&gt;Node4 -->
<g id="edge11_Node000001_Node000004" class="edge">
<title>Node1&#45;&gt;Node4</title>
<g id="a_edge11_Node000001_Node000004"><a xlink:title=" ">
<path fill="none" stroke="#63b8ff" d="M213.55,-115.83C177.54,-110.21 127.35,-98.78 88.75,-76 68.67,-64.15 50.9,-43.97 39.59,-29.24"/>
<polygon fill="#63b8ff" stroke="#63b8ff" points="42.49,-27.27 33.74,-21.29 36.85,-31.42 42.49,-27.27"/>
</a>
</g>
</g>
<!-- Node5 -->
<g id="Node000005" class="node">
<title>Node5</title>
<g id="a_Node000005"><a xlink:title=" ">
<polygon fill="#e0e0e0" stroke="#999999" points="100.15,-20 71.35,-20 71.35,0 100.15,0 100.15,-20"/>
<text xml:space="preserve" text-anchor="middle" x="85.75" y="-6.5" font-family="Helvetica,sans-Serif" font-size="10.00">list</text>
</a>
</g>
</g>
<!-- Node1&#45;&gt;Node5 -->
<g id="edge12_Node000001_Node000005" class="edge">
<title>Node1&#45;&gt;Node5</title>
<g id="a_edge12_Node000001_Node000005"><a xlink:title=" ">
<path fill="none" stroke="#63b8ff" d="M213.51,-118.87C179.47,-114.88 134.31,-104.16 105.75,-76 93.91,-64.33 89.05,-45.84 87.06,-31.56"/>
<polygon fill="#63b8ff" stroke="#63b8ff" points="90.57,-31.49 86.11,-21.88 83.61,-32.17 90.57,-31.49"/>
</a>
</g>
</g>
<!-- Node8 -->
<g id="Node000008" class="node">
<title>Node8</title>
<g id="a_Node000008"><a xlink:title=" ">
<polygon fill="#e0e0e0" stroke="#999999" points="337.75,-20 297.75,-20 297.75,0 337.75,0 337.75,-20"/>
<text xml:space="preserve" text-anchor="middle" x="317.75" y="-6.5" font-family="Helvetica,sans-Serif" font-size="10.00">string</text>
</a>
</g>
</g>
<!-- Node1&#45;&gt;Node8 -->
<g id="edge13_Node000001_Node000008" class="edge">
<title>Node1&#45;&gt;Node8</title>
<g id="a_edge13_Node000001_Node000008"><a xlink:title=" ">
<path fill="none" stroke="#63b8ff" d="M247.59,-111.58C232.6,-98.79 210.53,-75.31 222.75,-56 230.11,-44.37 261.8,-30.81 286.58,-21.64"/>
<polygon fill="#63b8ff" stroke="#63b8ff" points="287.72,-24.95 295.94,-18.28 285.35,-18.37 287.72,-24.95"/>
</a>
</g>
</g>
<!-- Node9 -->
<g id="Node000009" class="node">
<title>Node9</title>
<g id="a_Node000009"><a xlink:title=" ">
<polygon fill="#e0e0e0" stroke="#999999" points="287.62,-76 231.88,-76 231.88,-56 287.62,-56 287.62,-76"/>
<text xml:space="preserve" text-anchor="middle" x="259.75" y="-62.5" font-family="Helvetica,sans-Serif" font-size="10.00">algorithm</text>
</a>
</g>
</g>
<!-- Node1&#45;&gt;Node9 -->
<g id="edge8_Node000001_Node000009" class="edge">
<title>Node1&#45;&gt;Node9</title>
<g id="a_edge8_Node000001_Node000009"><a xlink:title=" ">
<path fill="none" stroke="#63b8ff" d="M259.75,-111.59C259.75,-105.01 259.75,-95.96 259.75,-87.73"/>
<polygon fill="#63b8ff" stroke="#63b8ff" points="263.25,-87.81 259.75,-77.81 256.25,-87.81 263.25,-87.81"/>
</a>
</g>
</g>
<!-- Node10 -->
<g id="Node000010" class="node">
<title>Node10</title>
<g id="a_Node000010"><a xlink:title=" ">
<polygon fill="#e0e0e0" stroke="#999999" points="354.25,-76 305.25,-76 305.25,-56 354.25,-56 354.25,-76"/>
<text xml:space="preserve" text-anchor="middle" x="329.75" y="-62.5" font-family="Helvetica,sans-Serif" font-size="10.00">fstream</text>
</a>
</g>
</g>
<!-- Node1&#45;&gt;Node10 -->
<g id="edge9_Node000001_Node000010" class="edge">
<title>Node1&#45;&gt;Node10</title>
<g id="a_edge9_Node000001_Node000010"><a xlink:title=" ">
<path fill="none" stroke="#63b8ff" d="M271.94,-111.59C282.08,-103.77 296.74,-92.46 308.76,-83.19"/>
<polygon fill="#63b8ff" stroke="#63b8ff" points="310.72,-86.1 316.5,-77.22 306.44,-80.56 310.72,-86.1"/>
</a>
</g>
</g>
<!-- Node11 -->
<g id="Node000011" class="node">
<title>Node11</title>
<g id="a_Node000011"><a xlink:title=" ">
<polygon fill="#e0e0e0" stroke="#999999" points="421.62,-76 371.88,-76 371.88,-56 421.62,-56 421.62,-76"/>
<text xml:space="preserve" text-anchor="middle" x="396.75" y="-62.5" font-family="Helvetica,sans-Serif" font-size="10.00">iomanip</text>
</a>
</g>
</g>
<!-- Node1&#45;&gt;Node11 -->
<g id="edge10_Node000001_Node000011" class="edge">
<title>Node1&#45;&gt;Node11</title>
<g id="a_edge10_Node000001_Node000011"><a xlink:title=" ">
<path fill="none" stroke="#63b8ff" d="M283.61,-111.59C305.29,-103.05 337.52,-90.35 362.04,-80.68"/>
<polygon fill="#63b8ff" stroke="#63b8ff" points="363.27,-83.96 371.29,-77.03 360.71,-77.45 363.27,-83.96"/>
</a>
</g>
</g>
<!-- Node12 -->
<g id="Node000012" class="node">
<title>Node12</title>
<g id="a_Node000012"><a xlink:title=" ">
<polygon fill="#e0e0e0" stroke="#999999" points="479.38,-76 440.12,-76 440.12,-56 479.38,-56 479.38,-76"/>
<text xml:space="preserve" text-anchor="middle" x="459.75" y="-62.5" font-family="Helvetica,sans-Serif" font-size="10.00">utility</text>
</a>
</g>
</g>
<!-- Node1&#45;&gt;Node12 -->
<g id="edge14_Node000001_Node000012" class="edge">
<title>Node1&#45;&gt;Node12</title>
<g id="a_edge14_Node000001_Node000012"><a xlink:title=" ">
<path fill="none" stroke="#63b8ff" d="M297.58,-111.55C330.01,-103.34 378.22,-90.86 428.96,-76.42"/>
<polygon fill="#63b8ff" stroke="#63b8ff" points="429.71,-79.85 438.36,-73.73 427.78,-73.12 429.71,-79.85"/>
</a>
</g>
</g>
<!-- Node13 -->
<g id="Node000013" class="node">
<title>Node13</title>
<g id="a_Node000013"><a xlink:title=" ">
<polygon fill="#e0e0e0" stroke="#999999" points="540.25,-76 497.25,-76 497.25,-56 540.25,-56 540.25,-76"/>
<text xml:space="preserve" text-anchor="middle" x="518.75" y="-62.5" font-family="Helvetica,sans-Serif" font-size="10.00">vector</text>
</a>
</g>
</g>
<!-- Node1&#45;&gt;Node13 -->
<g id="edge15_Node000001_Node000013" class="edge">
<title>Node1&#45;&gt;Node13</title>
<g id="a_edge15_Node000001_Node000013"><a xlink:title=" ">
<path fill="none" stroke="#63b8ff" d="M306.1,-113.26C350.2,-105.59 418.63,-92.91 486.05,-76.5"/>
<polygon fill="#63b8ff" stroke="#63b8ff" points="486.52,-79.99 495.39,-74.2 484.85,-73.19 486.52,-79.99"/>
</a>
</g>
</g>
<!-- Node3 -->
<g id="Node000003" class="node">
<title>Node3</title>
<g id="a_Node000003"><a xlink:title=" ">
<polygon fill="#e0e0e0" stroke="#999999" points="161.25,-20 118.25,-20 118.25,0 161.25,0 161.25,-20"/>
<text xml:space="preserve" text-anchor="middle" x="139.75" y="-6.5" font-family="Helvetica,sans-Serif" font-size="10.00">cmath</text>
</a>
</g>
</g>
<!-- Node2&#45;&gt;Node3 -->
<g id="edge2_Node000002_Node000003" class="edge">
<title>Node2&#45;&gt;Node3</title>
<g id="a_edge2_Node000002_Node000003"><a xlink:title=" ">
<path fill="none" stroke="#63b8ff" d="M143.88,-55.59C143.27,-49.01 142.43,-39.96 141.67,-31.73"/>
<polygon fill="#63b8ff" stroke="#63b8ff" points="145.16,-31.44 140.75,-21.81 138.19,-32.09 145.16,-31.44"/>
</a>
</g>
</g>
<!-- Node2&#45;&gt;Node4 -->
<g id="edge3_Node000002_Node000004" class="edge">
<title>Node2&#45;&gt;Node4</title>
<g id="a_edge3_Node000002_Node000004"><a xlink:title=" ">
<path fill="none" stroke="#63b8ff" d="M124.2,-55.59C105.87,-47.21 78.76,-34.8 57.79,-25.21"/>
<polygon fill="#63b8ff" stroke="#63b8ff" points="59.39,-22.09 48.84,-21.11 56.48,-28.45 59.39,-22.09"/>
</a>
</g>
</g>
<!-- Node2&#45;&gt;Node5 -->
<g id="edge4_Node000002_Node000005" class="edge">
<title>Node2&#45;&gt;Node5</title>
<g id="a_edge4_Node000002_Node000005"><a xlink:title=" ">
<path fill="none" stroke="#63b8ff" d="M134.47,-55.59C126.18,-48.01 114.3,-37.13 104.35,-28.02"/>
<polygon fill="#63b8ff" stroke="#63b8ff" points="106.77,-25.49 97.03,-21.32 102.04,-30.65 106.77,-25.49"/>
</a>
</g>
</g>
<!-- Node6 -->
<g id="Node000006" class="node">
<title>Node6</title>
<g id="a_Node000006"><a xlink:title=" ">
<polygon fill="#e0e0e0" stroke="#999999" points="221.88,-20 179.62,-20 179.62,0 221.88,0 221.88,-20"/>
<text xml:space="preserve" text-anchor="middle" x="200.75" y="-6.5" font-family="Helvetica,sans-Serif" font-size="10.00">queue</text>
</a>
</g>
</g>
<!-- Node2&#45;&gt;Node6 -->
<g id="edge5_Node000002_Node000006" class="edge">
<title>Node2&#45;&gt;Node6</title>
<g id="a_edge5_Node000002_Node000006"><a xlink:title=" ">
<path fill="none" stroke="#63b8ff" d="M154.5,-55.59C162.37,-48.01 173.65,-37.13 183.1,-28.02"/>
<polygon fill="#63b8ff" stroke="#63b8ff" points="185.25,-30.81 190.02,-21.35 180.39,-25.77 185.25,-30.81"/>
</a>
</g>
</g>
<!-- Node7 -->
<g id="Node000007" class="node">
<title>Node7</title>
<g id="a_Node000007"><a xlink:title=" ">
<polygon fill="#e0e0e0" stroke="#999999" points="279.75,-20 239.75,-20 239.75,0 279.75,0 279.75,-20"/>
<text xml:space="preserve" text-anchor="middle" x="259.75" y="-6.5" font-family="Helvetica,sans-Serif" font-size="10.00">stack</text>
</a>
</g>
</g>
<!-- Node2&#45;&gt;Node7 -->
<g id="edge6_Node000002_Node000007" class="edge">
<title>Node2&#45;&gt;Node7</title>
<g id="a_edge6_Node000002_Node000007"><a xlink:title=" ">
<path fill="none" stroke="#63b8ff" d="M164.78,-55.59C182.56,-47.24 208.82,-34.92 229.21,-25.34"/>
<polygon fill="#63b8ff" stroke="#63b8ff" points="230.63,-28.54 238.19,-21.12 227.65,-22.21 230.63,-28.54"/>
</a>
</g>
</g>
<!-- Node2&#45;&gt;Node8 -->
<g id="edge7_Node000002_Node000008" class="edge">
<title>Node2&#45;&gt;Node8</title>
<g id="a_edge7_Node000002_Node000008"><a xlink:title=" ">
<path fill="none" stroke="#63b8ff" d="M174.88,-55.59C206.18,-45.82 254.92,-30.61 286.59,-20.73"/>
<polygon fill="#63b8ff" stroke="#63b8ff" points="287.47,-24.12 295.98,-17.8 285.39,-17.43 287.47,-24.12"/>
</a>
</g>
</g>
</g>
</svg>
