<?xml version="1.0" encoding="UTF-8" standalone="no"?>
<!DOCTYPE svg PUBLIC "-//W3C//DTD SVG 1.1//EN"
 "http://www.w3.org/Graphics/SVG/1.1/DTD/svg11.dtd">
<!-- Generated by graphviz version 14.1.4 (20260321.0153)
 -->
<!-- Title: Manager::reached Pages: 1 -->
<svg width="613pt" height="104pt"
 viewBox="0.00 0.00 613.00 104.00" xmlns="http://www.w3.org/2000/svg" xmlns:xlink="http://www.w3.org/1999/xlink">
<g id="graph0" class="graph" transform="scale(1 1) rotate(0) translate(4 100)">
<title>Manager::reached</title>
<!-- Node1 -->
<g id="Node000001" class="node">
<title>Node1</title>
<g id="a_Node000001"><a xlink:title=" ">
<polygon fill="#999999" stroke="#666666" points="94,-58 0,-58 0,-38 94,-38 94,-58"/>
<text xml:space="preserve" text-anchor="middle" x="47" y="-44.5" font-family="Helvetica,sans-Serif" font-size="10.00">Manager::reached</text>
</a>
</g>
</g>
<!-- Node2 -->
<g id="Node000002" class="node">
<title>Node2</title>
<g id="a_Node000002"><a xlink:href="class_manager.html#acc537b5360b5556da217c2a33775c373" target="_top" xlink:title=" ">
<polygon fill="white" stroke="#666666" points="268.62,-96 143.88,-96 143.88,-76 268.62,-76 268.62,-96"/>
<text xml:space="preserve" text-anchor="middle" x="206.25" y="-82.5" font-family="Helvetica,sans-Serif" font-size="10.00">Manager::Car_timing_file</text>
</a>
</g>
</g>
<!-- Node1&#45;&gt;Node2 -->
<g id="edge1_Node000001_Node000002" class="edge">
<title>Node1&#45;&gt;Node2</title>
<g id="a_edge1_Node000001_Node000002"><a xlink:title=" ">
<path fill="none" stroke="#63b8ff" d="M91.39,-58.48C109.78,-62.93 131.41,-68.16 150.85,-72.85"/>
<polygon fill="#63b8ff" stroke="#63b8ff" points="149.99,-76.25 160.53,-75.19 151.64,-69.44 149.99,-76.25"/>
</a>
</g>
</g>
<!-- Node3 -->
<g id="Node000003" class="node">
<title>Node3</title>
<g id="a_Node000003"><a xlink:href="class_manager.html#a353440025ca159bb34b3af7063376db8" target="_top" xlink:title=" ">
<polygon fill="white" stroke="#666666" points="442.5,-58 328.25,-58 328.25,-38 442.5,-38 442.5,-58"/>
<text xml:space="preserve" text-anchor="middle" x="385.38" y="-44.5" font-family="Helvetica,sans-Serif" font-size="10.00">Manager::recordArrival</text>
</a>
</g>
</g>
<!-- Node1&#45;&gt;Node3 -->
<g id="edge2_Node000001_Node000003" class="edge">
<title>Node1&#45;&gt;Node3</title>
<g id="a_edge2_Node000001_Node000003"><a xlink:title=" ">
<path fill="none" stroke="#63b8ff" d="M94.42,-48C152,-48 250.64,-48 316.66,-48"/>
<polygon fill="#63b8ff" stroke="#63b8ff" points="316.26,-51.5 326.26,-48 316.26,-44.5 316.26,-51.5"/>
</a>
</g>
</g>
<!-- Node5 -->
<g id="Node000005" class="node">
<title>Node5</title>
<g id="a_Node000005"><a xlink:href="struct_road_details.html#abd834d75bb646b28fcbc9f079dfe6448" target="_top" xlink:title=" ">
<polygon fill="white" stroke="#666666" points="282.5,-20 130,-20 130,0 282.5,0 282.5,-20"/>
<text xml:space="preserve" text-anchor="middle" x="206.25" y="-6.5" font-family="Helvetica,sans-Serif" font-size="10.00">RoadDetails::vehicleExitsRoad</text>
</a>
</g>
</g>
<!-- Node1&#45;&gt;Node5 -->
<g id="edge4_Node000001_Node000005" class="edge">
<title>Node1&#45;&gt;Node5</title>
<g id="a_edge4_Node000001_Node000005"><a xlink:title=" ">
<path fill="none" stroke="#63b8ff" d="M91.39,-37.52C109.78,-33.07 131.41,-27.84 150.85,-23.15"/>
<polygon fill="#63b8ff" stroke="#63b8ff" points="151.64,-26.56 160.53,-20.81 149.99,-19.75 151.64,-26.56"/>
</a>
</g>
</g>
<!-- Node4 -->
<g id="Node000004" class="node">
<title>Node4</title>
<g id="a_Node000004"><a xlink:href="struct_road_details.html#a3d1c2ac79846045deac57b0b89341471" target="_top" xlink:title=" ">
<polygon fill="white" stroke="#666666" points="604.75,-39 488.25,-39 488.25,-19 604.75,-19 604.75,-39"/>
<text xml:space="preserve" text-anchor="middle" x="546.5" y="-25.5" font-family="Helvetica,sans-Serif" font-size="10.00">RoadDetails::bestTime</text>
</a>
</g>
</g>
<!-- Node3&#45;&gt;Node4 -->
<g id="edge3_Node000003_Node000004" class="edge">
<title>Node3&#45;&gt;Node4</title>
<g id="a_edge3_Node000003_Node000004"><a xlink:title=" ">
<path fill="none" stroke="#63b8ff" d="M442.92,-41.25C453.85,-39.94 465.4,-38.56 476.66,-37.22"/>
<polygon fill="#63b8ff" stroke="#63b8ff" points="476.77,-40.73 486.29,-36.07 475.94,-33.78 476.77,-40.73"/>
</a>
</g>
</g>
<!-- Node6 -->
<g id="Node000006" class="node">
<title>Node6</title>
<g id="a_Node000006"><a xlink:href="struct_road_details.html#a915b2e8bea1bbe71934faeedf53a06fb" target="_top" xlink:title=" ">
<polygon fill="white" stroke="#666666" points="452.25,-20 318.5,-20 318.5,0 452.25,0 452.25,-20"/>
<text xml:space="preserve" text-anchor="middle" x="385.38" y="-6.5" font-family="Helvetica,sans-Serif" font-size="10.00">RoadDetails::NonIdealtime</text>
</a>
</g>
</g>
<!-- Node5&#45;&gt;Node6 -->
<g id="edge5_Node000005_Node000006" class="edge">
<title>Node5&#45;&gt;Node6</title>
<g id="a_edge5_Node000005_Node000006"><a xlink:title=" ">
<path fill="none" stroke="#63b8ff" d="M282.88,-10C290.78,-10 298.81,-10 306.73,-10"/>
<polygon fill="#63b8ff" stroke="#63b8ff" points="306.71,-13.5 316.71,-10 306.71,-6.5 306.71,-13.5"/>
</a>
</g>
</g>
<!-- Node6&#45;&gt;Node4 -->
<g id="edge6_Node000006_Node000004" class="edge">
<title>Node6&#45;&gt;Node4</title>
<g id="a_edge6_Node000006_Node000004"><a xlink:title=" ">
<path fill="none" stroke="#63b8ff" d="M452.48,-17.89C460.49,-18.85 468.68,-19.83 476.73,-20.79"/>
<polygon fill="#63b8ff" stroke="#63b8ff" points="476.12,-24.24 486.47,-21.95 476.95,-17.29 476.12,-24.24"/>
</a>
</g>
</g>
</g>
</svg>
