<?xml version="1.0" encoding="UTF-8" standalone="no"?>
<!DOCTYPE svg PUBLIC "-//W3C//DTD SVG 1.1//EN"
 "http://www.w3.org/Graphics/SVG/1.1/DTD/svg11.dtd">
<!-- Generated by graphviz version 14.1.4 (20260321.0153)
 -->
<!-- Title: Manager::arrivalAtIntersection Pages: 1 -->
<!--zoomable 236 -->

<svg id="main" version="1.1" xmlns="http://www.w3.org/2000/svg" xmlns:xlink="http://www.w3.org/1999/xlink" xml:space="preserve" onload="init(evt)">

<style type="text/css"><![CDATA[
.node, .edge {opacity: 0.7;}
.node.selected, .edge.selected {opacity: 1;}
.edge:hover path { stroke: red; }
.edge:hover polygon { stroke: red; fill: red; }
]]></style>

<defs>
  <circle id="rim" cx="0" cy="0" r="7"/>
  <circle id="rim2" cx="0" cy="0" r="3.5"/>
  <g id="zoomPlus">
    <use xlink:href="#rim" fill="#404040"><set attributeName="fill" to="#808080" begin="zoomplus.mouseover" end="zoomplus.mouseout"/></use>
    <path d="M-4,0h8M0,-4v8" fill="none" stroke="white" stroke-width="1.5" pointer-events="none"/>
  </g>
  <g id="zoomMin">
    <use xlink:href="#rim" fill="#404040"><set attributeName="fill" to="#808080" begin="zoomminus.mouseover" end="zoomminus.mouseout"/></use>
    <path d="M-4,0h8" fill="none" stroke="white" stroke-width="1.5" pointer-events="none"/>
  </g>
  <g id="arrowUp" transform="translate(30 24)">
    <use xlink:href="#rim"/>
    <path pointer-events="none" fill="none" stroke="white" stroke-width="1.5" d="M0,-3.0v7 M-2.5,-0.5L0,-3.0L2.5,-0.5"/>
  </g>
  <g id="arrowRight" transform="rotate(90) translate(36 -43)">
    <use xlink:href="#rim"/>
    <path pointer-events="none" fill="none" stroke="white" stroke-width="1.5" d="M0,-3.0v7 M-2.5,-0.5L0,-3.0L2.5,-0.5"/>
  </g>
  <g id="arrowDown" transform="rotate(180) translate(-30 -48)">
    <use xlink:href="#rim"/>
    <path pointer-events="none" fill="none" stroke="white" stroke-width="1.5" d="M0,-3.0v7 M-2.5,-0.5L0,-3.0L2.5,-0.5"/>
  </g>
  <g id="arrowLeft" transform="rotate(270) translate(-36 17)">
    <use xlink:href="#rim"/>
    <path pointer-events="none" fill="none" stroke="white" stroke-width="1.5" d="M0,-3.0v7 M-2.5,-0.5L0,-3.0L2.5,-0.5"/>
  </g>
  <g id="resetDef">
    <use xlink:href="#rim2" fill="#404040"><set attributeName="fill" to="#808080" begin="reset.mouseover" end="reset.mouseout"/></use>
  </g>
</defs>
<script type="application/ecmascript">
var viewWidth = 671;
var viewHeight = 236;
var sectionId = 'dynsection-2';
</script>
<script type="application/ecmascript" xlink:href="svg.min.js"/>
<svg id="graph" class="graph">
<g id="viewport">
<title>Manager::arrivalAtIntersection</title>
<!-- Node1 -->
<g id="Node000001" class="node">
<title>Node1</title>
<g id="a_Node000001"><a xlink:title=" ">
<polygon fill="#999999" stroke="#666666" points="146.5,-133 0,-133 0,-113 146.5,-113 146.5,-133"/>
<text xml:space="preserve" text-anchor="middle" x="73.25" y="-119.5" font-family="Helvetica,sans-Serif" font-size="10.00">Manager::arrivalAtIntersection</text>
</a>
</g>
</g>
<!-- Node2 -->
<g id="Node000002" class="node">
<title>Node2</title>
<g id="a_Node000002"><a xlink:href="struct_road_details.html#a669dfcadc27d416b6511a92684442ef9" target="_top" xlink:title=" ">
<polygon fill="white" stroke="#666666" points="339.12,-228 184.38,-228 184.38,-208 339.12,-208 339.12,-228"/>
<text xml:space="preserve" text-anchor="middle" x="261.75" y="-214.5" font-family="Helvetica,sans-Serif" font-size="10.00">RoadDetails::DischargeAllowed</text>
</a>
</g>
</g>
<!-- Node1&#45;&gt;Node2 -->
<g id="edge1_Node000001_Node000002" class="edge">
<title>Node1&#45;&gt;Node2</title>
<g id="a_edge1_Node000001_Node000002"><a xlink:title=" ">
<path fill="none" stroke="#63b8ff" d="M87.2,-133.26C106.81,-148.38 145.68,-176.71 182.5,-194 190.55,-197.78 199.34,-201.15 208.03,-204.07"/>
<polygon fill="#63b8ff" stroke="#63b8ff" points="206.88,-207.38 217.47,-207.09 209.01,-200.71 206.88,-207.38"/>
</a>
</g>
</g>
<!-- Node3 -->
<g id="Node000003" class="node">
<title>Node3</title>
<g id="a_Node000003"><a xlink:href="struct_road_details.html#a915b2e8bea1bbe71934faeedf53a06fb" target="_top" xlink:title=" ">
<polygon fill="white" stroke="#666666" points="510.75,-133 377,-133 377,-113 510.75,-113 510.75,-133"/>
<text xml:space="preserve" text-anchor="middle" x="443.88" y="-119.5" font-family="Helvetica,sans-Serif" font-size="10.00">RoadDetails::NonIdealtime</text>
</a>
</g>
</g>
<!-- Node1&#45;&gt;Node3 -->
<g id="edge2_Node000001_Node000003" class="edge">
<title>Node1&#45;&gt;Node3</title>
<g id="a_edge2_Node000001_Node000003"><a xlink:title=" ">
<path fill="none" stroke="#63b8ff" d="M96.88,-133.48C118.37,-142.81 151.87,-155.78 182.5,-161 251.94,-172.83 271.67,-173.51 341,-161 365.45,-156.59 391.69,-146.67 411.42,-138.07"/>
<polygon fill="#63b8ff" stroke="#63b8ff" points="412.58,-141.38 420.27,-134.09 409.71,-135 412.58,-141.38"/>
</a>
</g>
</g>
<!-- Node5 -->
<g id="Node000005" class="node">
<title>Node5</title>
<g id="a_Node000005"><a xlink:href="class_manager.html#a9d7f391347995c2a77c126aa30827824" target="_top" xlink:title=" ">
<polygon fill="white" stroke="#666666" points="320,-26 203.5,-26 203.5,-6 320,-6 320,-26"/>
<text xml:space="preserve" text-anchor="middle" x="261.75" y="-12.5" font-family="Helvetica,sans-Serif" font-size="10.00">Manager::ShortestPath</text>
</a>
</g>
</g>
<!-- Node1&#45;&gt;Node5 -->
<g id="edge4_Node000001_Node000005" class="edge">
<title>Node1&#45;&gt;Node5</title>
<g id="a_edge4_Node000001_Node000005"><a xlink:title=" ">
<path fill="none" stroke="#63b8ff" d="M83.9,-112.55C101.61,-94.02 141.27,-55.45 182.5,-35 186.16,-33.19 190,-31.54 193.94,-30.04"/>
<polygon fill="#63b8ff" stroke="#63b8ff" points="194.76,-33.46 203.09,-26.92 192.5,-26.84 194.76,-33.46"/>
</a>
</g>
</g>
<!-- Node7 -->
<g id="Node000007" class="node">
<title>Node7</title>
<g id="a_Node000007"><a xlink:href="struct_road_details.html#ad2d8b3a44383c9950e6cc4b4606b9f1a" target="_top" xlink:title=" ">
<polygon fill="white" stroke="#666666" points="341,-152 182.5,-152 182.5,-132 341,-132 341,-152"/>
<text xml:space="preserve" text-anchor="middle" x="261.75" y="-138.5" font-family="Helvetica,sans-Serif" font-size="10.00">RoadDetails::vehicleEntersRoad</text>
</a>
</g>
</g>
<!-- Node1&#45;&gt;Node7 -->
<g id="edge6_Node000001_Node000007" class="edge">
<title>Node1&#45;&gt;Node7</title>
<g id="a_edge6_Node000001_Node000007"><a xlink:title=" ">
<path fill="none" stroke="#63b8ff" d="M146.89,-130.4C154.75,-131.2 162.81,-132.02 170.83,-132.84"/>
<polygon fill="#63b8ff" stroke="#63b8ff" points="170.33,-136.31 180.63,-133.84 171.04,-129.34 170.33,-136.31"/>
</a>
</g>
</g>
<!-- Node8 -->
<g id="Node000008" class="node">
<title>Node8</title>
<g id="a_Node000008"><a xlink:href="struct_road_details.html#abd834d75bb646b28fcbc9f079dfe6448" target="_top" xlink:title=" ">
<polygon fill="white" stroke="#666666" points="338,-114 185.5,-114 185.5,-94 338,-94 338,-114"/>
<text xml:space="preserve" text-anchor="middle" x="261.75" y="-100.5" font-family="Helvetica,sans-Serif" font-size="10.00">RoadDetails::vehicleExitsRoad</text>
</a>
</g>
</g>
<!-- Node1&#45;&gt;Node8 -->
<g id="edge8_Node000001_Node000008" class="edge">
<title>Node1&#45;&gt;Node8</title>
<g id="a_edge8_Node000001_Node000008"><a xlink:title=" ">
<path fill="none" stroke="#63b8ff" d="M146.89,-115.6C155.74,-114.7 164.84,-113.77 173.87,-112.85"/>
<polygon fill="#63b8ff" stroke="#63b8ff" points="174.13,-116.34 183.73,-111.85 173.42,-109.38 174.13,-116.34"/>
</a>
</g>
</g>
<!-- Node9 -->
<g id="Node000009" class="node">
<title>Node9</title>
<g id="a_Node000009"><a xlink:href="struct_road_details.html#ab807ac493fcc667a2d6571906da7d106" target="_top" xlink:title=" ">
<polygon fill="white" stroke="#666666" points="326.75,-76 196.75,-76 196.75,-44 326.75,-44 326.75,-76"/>
<text xml:space="preserve" text-anchor="start" x="204.75" y="-62.5" font-family="Helvetica,sans-Serif" font-size="10.00">RoadDetails::vehicleJoins</text>
<text xml:space="preserve" text-anchor="middle" x="261.75" y="-50.5" font-family="Helvetica,sans-Serif" font-size="10.00">Queue</text>
</a>
</g>
</g>
<!-- Node1&#45;&gt;Node9 -->
<g id="edge10_Node000001_Node000009" class="edge">
<title>Node1&#45;&gt;Node9</title>
<g id="a_edge10_Node000001_Node000009"><a xlink:title=" ">
<path fill="none" stroke="#63b8ff" d="M103.12,-112.62C124.88,-104.85 155.49,-94.05 182.5,-85 187.48,-83.33 192.64,-81.63 197.84,-79.93"/>
<polygon fill="#63b8ff" stroke="#63b8ff" points="198.62,-83.35 207.05,-76.94 196.46,-76.7 198.62,-83.35"/>
</a>
</g>
</g>
<!-- Node4 -->
<g id="Node000004" class="node">
<title>Node4</title>
<g id="a_Node000004"><a xlink:href="struct_road_details.html#a3d1c2ac79846045deac57b0b89341471" target="_top" xlink:title=" ">
<polygon fill="white" stroke="#666666" points="663.25,-133 546.75,-133 546.75,-113 663.25,-113 663.25,-133"/>
<text xml:space="preserve" text-anchor="middle" x="605" y="-119.5" font-family="Helvetica,sans-Serif" font-size="10.00">RoadDetails::bestTime</text>
</a>
</g>
</g>
<!-- Node3&#45;&gt;Node4 -->
<g id="edge3_Node000003_Node000004" class="edge">
<title>Node3&#45;&gt;Node4</title>
<g id="a_edge3_Node000003_Node000004"><a xlink:title=" ">
<path fill="none" stroke="#63b8ff" d="M510.98,-123C518.99,-123 527.18,-123 535.23,-123"/>
<polygon fill="#63b8ff" stroke="#63b8ff" points="534.96,-126.5 544.96,-123 534.96,-119.5 534.96,-126.5"/>
</a>
</g>
</g>
<!-- Node6 -->
<g id="Node000006" class="node">
<title>Node6</title>
<g id="a_Node000006"><a xlink:href="struct_road_details.html#afa8574d48d45a7bace5f79f51ce70a56" target="_top" xlink:title=" ">
<polygon fill="white" stroke="#666666" points="508.5,-32 379.25,-32 379.25,0 508.5,0 508.5,-32"/>
<text xml:space="preserve" text-anchor="start" x="387.25" y="-18.5" font-family="Helvetica,sans-Serif" font-size="10.00">RoadDetails::vehicleExits</text>
<text xml:space="preserve" text-anchor="middle" x="443.88" y="-6.5" font-family="Helvetica,sans-Serif" font-size="10.00">Queue</text>
</a>
</g>
</g>
<!-- Node5&#45;&gt;Node6 -->
<g id="edge5_Node000005_Node000006" class="edge">
<title>Node5&#45;&gt;Node6</title>
<g id="a_edge5_Node000005_Node000006"><a xlink:title=" ">
<path fill="none" stroke="#63b8ff" d="M320.24,-16C335.32,-16 351.8,-16 367.66,-16"/>
<polygon fill="#63b8ff" stroke="#63b8ff" points="367.55,-19.5 377.55,-16 367.55,-12.5 367.55,-19.5"/>
</a>
</g>
</g>
<!-- Node7&#45;&gt;Node3 -->
<g id="edge7_Node000007_Node000003" class="edge">
<title>Node7&#45;&gt;Node3</title>
<g id="a_edge7_Node000007_Node000003"><a xlink:title=" ">
<path fill="none" stroke="#63b8ff" d="M341.49,-133.69C349.38,-132.86 357.38,-132.02 365.26,-131.19"/>
<polygon fill="#63b8ff" stroke="#63b8ff" points="365.59,-134.67 375.17,-130.14 364.86,-127.71 365.59,-134.67"/>
</a>
</g>
</g>
<!-- Node8&#45;&gt;Node3 -->
<g id="edge9_Node000008_Node000003" class="edge">
<title>Node8&#45;&gt;Node3</title>
<g id="a_edge9_Node000008_Node000003"><a xlink:title=" ">
<path fill="none" stroke="#63b8ff" d="M338.36,-111.98C347.29,-112.92 356.42,-113.88 365.38,-114.83"/>
<polygon fill="#63b8ff" stroke="#63b8ff" points="364.8,-118.28 375.11,-115.85 365.53,-111.32 364.8,-118.28"/>
</a>
</g>
</g>
<!-- Node9&#45;&gt;Node3 -->
<g id="edge11_Node000009_Node000003" class="edge">
<title>Node9&#45;&gt;Node3</title>
<g id="a_edge11_Node000009_Node000003"><a xlink:title=" ">
<path fill="none" stroke="#63b8ff" d="M315.48,-76.47C324.03,-79.25 332.78,-82.16 341,-85 362.47,-92.43 386.28,-101.28 405.47,-108.56"/>
<polygon fill="#63b8ff" stroke="#63b8ff" points="404.18,-111.82 414.78,-112.11 406.68,-105.27 404.18,-111.82"/>
</a>
</g>
</g>
</g>
</svg>

<g id="navigator" transform="translate(0 0)" fill="#404254">
  <rect fill="#f2f5e9" fill-opacity="0.5" stroke="#606060" stroke-width=".5" x="0" y="0" width="60" height="60"/>
  <use id="zoomplus" xlink:href="#zoomPlus" x="17" y="9" onmousedown="handleZoom(evt,'in')"/>
  <use id="zoomminus" xlink:href="#zoomMin" x="42" y="9" onmousedown="handleZoom(evt,'out')"/>
  <use id="reset" xlink:href="#resetDef" x="30" y="36" onmousedown="handleReset()"/>
   <use id="arrowup" xlink:href="#arrowUp" x="0" y="0" onmousedown="handlePan(0,-1)"/>
  <use id="arrowright" xlink:href="#arrowRight" x="0" y="0" onmousedown="handlePan(1,0)"/>
  <use id="arrowdown" xlink:href="#arrowDown" x="0" y="0" onmousedown="handlePan(0,1)"/>
  <use id="arrowleft" xlink:href="#arrowLeft" x="0" y="0" onmousedown="handlePan(-1,0)"/>
</g>
<svg viewBox="0 0 15 15" width="100%" height="30px" preserveAspectRatio="xMaxYMin meet">
 <g id="arrow_out" transform="scale(0.3 0.3)">
  <a xlink:href="class_manager_ac9e977b3769ef82a56fa87d08092decc_cgraph_org.svg" target="_base">
   <rect id="button" ry="5" rx="5" y="6" x="6" height="38" width="38"
        fill="#f2f5e9" fill-opacity="0.5" stroke="#606060" stroke-width="1.0"/>
   <path id="arrow"
     d="M 11.500037,31.436501 C 11.940474,20.09759 22.043105,11.32322 32.158766,21.979434 L 37.068811,17.246167 C 37.068811,17.246167 37.088388,32 37.088388,32 L 22.160133,31.978069 C 22.160133,31.978069 26.997745,27.140456 26.997745,27.140456 C 18.528582,18.264221 13.291696,25.230495 11.500037,31.436501 z"
     style="fill:#404040;"/>
  </a>
 </g>
</svg>

<style type='text/css'>
<![CDATA[
[data-mouse-over-selected='false'] { opacity: 0.7; }
[data-mouse-over-selected='true']  { opacity: 1.0; }
]]>
</style>
<script type="application/ecmascript"><![CDATA[
document.addEventListener('DOMContentLoaded', (event) => {
  highlightEdges();
  highlightAdjacentNodes();
});
]]></script>
</svg>
