<?xml version="1.0" encoding="UTF-8" standalone="no"?>
<!DOCTYPE svg PUBLIC "-//W3C//DTD SVG 1.1//EN"
 "http://www.w3.org/Graphics/SVG/1.1/DTD/svg11.dtd">
<!-- Generated by graphviz version 14.1.4 (20260321.0153)
 -->
<!-- Title: Manager::physics Pages: 1 -->
<!--zoomable 650 -->

<svg id="main" version="1.1" xmlns="http://www.w3.org/2000/svg" xmlns:xlink="http://www.w3.org/1999/xlink" xml:space="preserve" onload="init(evt)">

<style type="text/css"><![CDATA[
.node, .edge {opacity: 0.7;}
.node.selected, .edge.selected {opacity: 1;}
.edge:hover path { stroke: red; }
.edge:hover polygon { stroke: red; fill: red; }
]]></style>

<defs>
  <circle id="rim" cx="0" cy="0" r="7"/>
  <circle id="rim2" cx="0" cy="0" r="3.5"/>
  <g id="zoomPlus">
    <use xlink:href="#rim" fill="#404040"><set attributeName="fill" to="#808080" begin="zoomplus.mouseover" end="zoomplus.mouseout"/></use>
    <path d="M-4,0h8M0,-4v8" fill="none" stroke="white" stroke-width="1.5" pointer-events="none"/>
  </g>
  <g id="zoomMin">
    <use xlink:href="#rim" fill="#404040"><set attributeName="fill" to="#808080" begin="zoomminus.mouseover" end="zoomminus.mouseout"/></use>
    <path d="M-4,0h8" fill="none" stroke="white" stroke-width="1.5" pointer-events="none"/>
  </g>
  <g id="arrowUp" transform="translate(30 24)">
    <use xlink:href="#rim"/>
    <path pointer-events="none" fill="none" stroke="white" stroke-width="1.5" d="M0,-3.0v7 M-2.5,-0.5L0,-3.0L2.5,-0.5"/>
  </g>
  <g id="arrowRight" transform="rotate(90) translate(36 -43)">
    <use xlink:href="#rim"/>
    <path pointer-events="none" fill="none" stroke="white" stroke-width="1.5" d="M0,-3.0v7 M-2.5,-0.5L0,-3.0L2.5,-0.5"/>
  </g>
  <g id="arrowDown" transform="rotate(180) translate(-30 -48)">
    <use xlink:href="#rim"/>
    <path pointer-events="none" fill="none" stroke="white" stroke-width="1.5" d="M0,-3.0v7 M-2.5,-0.5L0,-3.0L2.5,-0.5"/>
  </g>
  <g id="arrowLeft" transform="rotate(270) translate(-36 17)">
    <use xlink:href="#rim"/>
    <path pointer-events="none" fill="none" stroke="white" stroke-width="1.5" d="M0,-3.0v7 M-2.5,-0.5L0,-3.0L2.5,-0.5"/>
  </g>
  <g id="resetDef">
    <use xlink:href="#rim2" fill="#404040"><set attributeName="fill" to="#808080" begin="reset.mouseover" end="reset.mouseout"/></use>
  </g>
</defs>
<script type="application/ecmascript">
var viewWidth = 828;
var viewHeight = 650;
var sectionId = 'dynsection-14';
</script>
<script type="application/ecmascript" xlink:href="svg.min.js"/>
<svg id="graph" class="graph">
<g id="viewport">
<title>Manager::physics</title>
<!-- Node1 -->
<g id="Node000001" class="node">
<title>Node1</title>
<g id="a_Node000001"><a xlink:title=" ">
<polygon fill="#999999" stroke="#666666" points="93.25,-269 0,-269 0,-249 93.25,-249 93.25,-269"/>
<text xml:space="preserve" text-anchor="middle" x="46.62" y="-255.5" font-family="Helvetica,sans-Serif" font-size="10.00">Manager::physics</text>
</a>
</g>
</g>
<!-- Node2 -->
<g id="Node000002" class="node">
<title>Node2</title>
<g id="a_Node000002"><a xlink:href="class_manager.html#ac9e977b3769ef82a56fa87d08092decc" target="_top" xlink:title=" ">
<polygon fill="white" stroke="#666666" points="286.25,-383 139.75,-383 139.75,-363 286.25,-363 286.25,-383"/>
<text xml:space="preserve" text-anchor="middle" x="213" y="-369.5" font-family="Helvetica,sans-Serif" font-size="10.00">Manager::arrivalAtIntersection</text>
</a>
</g>
</g>
<!-- Node1&#45;&gt;Node2 -->
<g id="edge1_Node000001_Node000002" class="edge">
<title>Node1&#45;&gt;Node2</title>
<g id="a_edge1_Node000001_Node000002"><a xlink:title=" ">
<path fill="none" stroke="#63b8ff" d="M62.35,-269.33C78.68,-280.77 105.82,-299.75 129.25,-316 148.72,-329.5 170.82,-344.72 187.28,-356.03"/>
<polygon fill="#63b8ff" stroke="#63b8ff" points="185.26,-358.89 195.48,-361.67 189.22,-353.12 185.26,-358.89"/>
</a>
</g>
</g>
<!-- Node11 -->
<g id="Node000011" class="node">
<title>Node11</title>
<g id="a_Node000011"><a xlink:href="class_manager.html#ae97e60d3e65539f3ec5fc92185cf7a6a" target="_top" xlink:title=" ">
<polygon fill="white" stroke="#666666" points="281.38,-307 144.62,-307 144.62,-287 281.38,-287 281.38,-307"/>
<text xml:space="preserve" text-anchor="middle" x="213" y="-293.5" font-family="Helvetica,sans-Serif" font-size="10.00">Manager::checkBrokenPath</text>
</a>
</g>
</g>
<!-- Node1&#45;&gt;Node11 -->
<g id="edge13_Node000001_Node000011" class="edge">
<title>Node1&#45;&gt;Node11</title>
<g id="a_edge13_Node000001_Node000011"><a xlink:title=" ">
<path fill="none" stroke="#63b8ff" d="M92.53,-269.48C104.46,-272.26 117.34,-275.25 129.25,-278 137.73,-279.96 146.71,-282.03 155.49,-284.05"/>
<polygon fill="#63b8ff" stroke="#63b8ff" points="154.46,-287.4 164.99,-286.23 156.03,-280.58 154.46,-287.4"/>
</a>
</g>
</g>
<!-- Node12 -->
<g id="Node000012" class="node">
<title>Node12</title>
<g id="a_Node000012"><a xlink:href="class_manager.html#aef9be6b89ef65c0eadad234ef04e6109" target="_top" xlink:title=" ">
<polygon fill="white" stroke="#666666" points="296.75,-585 129.25,-585 129.25,-565 296.75,-565 296.75,-585"/>
<text xml:space="preserve" text-anchor="middle" x="213" y="-571.5" font-family="Helvetica,sans-Serif" font-size="10.00">Manager::entraingfromQueetoEdge</text>
</a>
</g>
</g>
<!-- Node1&#45;&gt;Node12 -->
<g id="edge16_Node000001_Node000012" class="edge">
<title>Node1&#45;&gt;Node12</title>
<g id="a_edge16_Node000001_Node000012"><a xlink:title=" ">
<path fill="none" stroke="#63b8ff" d="M49.26,-269.4C55.12,-304.33 77.56,-419.74 129.25,-499 144.69,-522.68 169.18,-543.91 187.51,-557.87"/>
<polygon fill="#63b8ff" stroke="#63b8ff" points="185.37,-560.64 195.5,-563.77 189.53,-555.01 185.37,-560.64"/>
</a>
</g>
</g>
<!-- Node13 -->
<g id="Node000013" class="node">
<title>Node13</title>
<g id="a_Node000013"><a xlink:href="class_manager.html#aa096455f1fb6db1d64381ba40b1924b0" target="_top" xlink:title=" ">
<polygon fill="white" stroke="#666666" points="261.5,-490 164.5,-490 164.5,-470 261.5,-470 261.5,-490"/>
<text xml:space="preserve" text-anchor="middle" x="213" y="-476.5" font-family="Helvetica,sans-Serif" font-size="10.00">Manager::entrance</text>
</a>
</g>
</g>
<!-- Node1&#45;&gt;Node13 -->
<g id="edge21_Node000001_Node000013" class="edge">
<title>Node1&#45;&gt;Node13</title>
<g id="a_edge21_Node000001_Node000013"><a xlink:title=" ">
<path fill="none" stroke="#63b8ff" d="M53.09,-269.47C65.35,-292.56 96.51,-349.16 129.25,-392 149.06,-417.92 175.34,-444.83 192.92,-461.96"/>
<polygon fill="#63b8ff" stroke="#63b8ff" points="190.07,-464.07 199.7,-468.48 194.93,-459.02 190.07,-464.07"/>
</a>
</g>
</g>
<!-- Node14 -->
<g id="Node000014" class="node">
<title>Node14</title>
<g id="a_Node000014"><a xlink:href="class_manager.html#a336a1e9218b0d04d5f555851d123b352" target="_top" xlink:title=" ">
<polygon fill="white" stroke="#666666" points="276.88,-143 149.12,-143 149.12,-111 276.88,-111 276.88,-143"/>
<text xml:space="preserve" text-anchor="start" x="157.12" y="-129.5" font-family="Helvetica,sans-Serif" font-size="10.00">Manager::injectSinusoidal</text>
<text xml:space="preserve" text-anchor="middle" x="213" y="-117.5" font-family="Helvetica,sans-Serif" font-size="10.00">Traffic</text>
</a>
</g>
</g>
<!-- Node1&#45;&gt;Node14 -->
<g id="edge27_Node000001_Node000014" class="edge">
<title>Node1&#45;&gt;Node14</title>
<g id="a_edge27_Node000001_Node000014"><a xlink:title=" ">
<path fill="none" stroke="#63b8ff" d="M52.61,-248.75C63.48,-227.45 91.42,-178.23 129.25,-152 132.27,-149.9 135.47,-147.98 138.79,-146.22"/>
<polygon fill="#63b8ff" stroke="#63b8ff" points="140.12,-149.46 147.67,-142.03 137.13,-143.13 140.12,-149.46"/>
</a>
</g>
</g>
<!-- Node16 -->
<g id="Node000016" class="node">
<title>Node16</title>
<g id="a_Node000016"><a xlink:href="class_manager.html#afdaa8477c3bb7c6b48e00bb385f5172a" target="_top" xlink:title=" ">
<polygon fill="white" stroke="#666666" points="272.75,-231 153.25,-231 153.25,-211 272.75,-211 272.75,-231"/>
<text xml:space="preserve" text-anchor="middle" x="213" y="-217.5" font-family="Helvetica,sans-Serif" font-size="10.00">Manager::printCSVRow</text>
</a>
</g>
</g>
<!-- Node1&#45;&gt;Node16 -->
<g id="edge29_Node000001_Node000016" class="edge">
<title>Node1&#45;&gt;Node16</title>
<g id="a_edge29_Node000001_Node000016"><a xlink:title=" ">
<path fill="none" stroke="#63b8ff" d="M92.53,-248.52C104.46,-245.74 117.34,-242.75 129.25,-240 137.73,-238.04 146.71,-235.97 155.49,-233.95"/>
<polygon fill="#63b8ff" stroke="#63b8ff" points="156.03,-237.42 164.99,-231.77 154.46,-230.6 156.03,-237.42"/>
</a>
</g>
</g>
<!-- Node17 -->
<g id="Node000017" class="node">
<title>Node17</title>
<g id="a_Node000017"><a xlink:href="class_manager.html#a6ef737e8ac55962fc35dfb1a69b237c6" target="_top" xlink:title=" ">
<polygon fill="white" stroke="#666666" points="279.88,-193 146.12,-193 146.12,-161 279.88,-161 279.88,-193"/>
<text xml:space="preserve" text-anchor="start" x="154.12" y="-179.5" font-family="Helvetica,sans-Serif" font-size="10.00">Manager::printPerformance</text>
<text xml:space="preserve" text-anchor="middle" x="213" y="-167.5" font-family="Helvetica,sans-Serif" font-size="10.00">Metrics</text>
</a>
</g>
</g>
<!-- Node1&#45;&gt;Node17 -->
<g id="edge30_Node000001_Node000017" class="edge">
<title>Node1&#45;&gt;Node17</title>
<g id="a_edge30_Node000001_Node000017"><a xlink:title=" ">
<path fill="none" stroke="#63b8ff" d="M59.85,-248.59C75.17,-236 102.66,-214.9 129.25,-202 132.49,-200.43 135.85,-198.93 139.28,-197.51"/>
<polygon fill="#63b8ff" stroke="#63b8ff" points="140.25,-200.89 148.31,-194.01 137.72,-194.36 140.25,-200.89"/>
</a>
</g>
</g>
<!-- Node18 -->
<g id="Node000018" class="node">
<title>Node18</title>
<g id="a_Node000018"><a xlink:href="class_manager.html#a66ab5b09246caed3e30768721639ee25" target="_top" xlink:title=" ">
<polygon fill="white" stroke="#666666" points="260,-269 166,-269 166,-249 260,-249 260,-269"/>
<text xml:space="preserve" text-anchor="middle" x="213" y="-255.5" font-family="Helvetica,sans-Serif" font-size="10.00">Manager::reached</text>
</a>
</g>
</g>
<!-- Node1&#45;&gt;Node18 -->
<g id="edge31_Node000001_Node000018" class="edge">
<title>Node1&#45;&gt;Node18</title>
<g id="a_edge31_Node000001_Node000018"><a xlink:title=" ">
<path fill="none" stroke="#63b8ff" d="M93.41,-259C112.23,-259 134.24,-259 154.16,-259"/>
<polygon fill="#63b8ff" stroke="#63b8ff" points="154.09,-262.5 164.09,-259 154.09,-255.5 154.09,-262.5"/>
</a>
</g>
</g>
<!-- Node21 -->
<g id="Node000021" class="node">
<title>Node21</title>
<g id="a_Node000021"><a xlink:href="class_manager.html#a0491c679bd2da5b32514b462d89fd3f1" target="_top" xlink:title=" ">
<polygon fill="white" stroke="#666666" points="273.5,-83 152.5,-83 152.5,-63 273.5,-63 273.5,-83"/>
<text xml:space="preserve" text-anchor="middle" x="213" y="-69.5" font-family="Helvetica,sans-Serif" font-size="10.00">Manager::updateSignals</text>
</a>
</g>
</g>
<!-- Node1&#45;&gt;Node21 -->
<g id="edge36_Node000001_Node000021" class="edge">
<title>Node1&#45;&gt;Node21</title>
<g id="a_edge36_Node000001_Node000021"><a xlink:title=" ">
<path fill="none" stroke="#63b8ff" d="M50.17,-248.52C57.49,-220.6 81.2,-143.65 129.25,-102 135.96,-96.18 143.92,-91.51 152.19,-87.76"/>
<polygon fill="#63b8ff" stroke="#63b8ff" points="153.41,-91.04 161.38,-84.06 150.8,-84.55 153.41,-91.04"/>
</a>
</g>
</g>
<!-- Node3 -->
<g id="Node000003" class="node">
<title>Node3</title>
<g id="a_Node000003"><a xlink:href="struct_road_details.html#a669dfcadc27d416b6511a92684442ef9" target="_top" xlink:title=" ">
<polygon fill="white" stroke="#666666" points="489.38,-585 334.62,-585 334.62,-565 489.38,-565 489.38,-585"/>
<text xml:space="preserve" text-anchor="middle" x="412" y="-571.5" font-family="Helvetica,sans-Serif" font-size="10.00">RoadDetails::DischargeAllowed</text>
</a>
</g>
</g>
<!-- Node2&#45;&gt;Node3 -->
<g id="edge2_Node000002_Node000003" class="edge">
<title>Node2&#45;&gt;Node3</title>
<g id="a_edge2_Node000002_Node000003"><a xlink:title=" ">
<path fill="none" stroke="#63b8ff" d="M224.04,-383.29C255.6,-415.65 353.07,-515.6 393.32,-556.88"/>
<polygon fill="#63b8ff" stroke="#63b8ff" points="390.67,-559.17 400.16,-563.88 395.68,-554.28 390.67,-559.17"/>
</a>
</g>
</g>
<!-- Node4 -->
<g id="Node000004" class="node">
<title>Node4</title>
<g id="a_Node000004"><a xlink:href="struct_road_details.html#a915b2e8bea1bbe71934faeedf53a06fb" target="_top" xlink:title=" ">
<polygon fill="white" stroke="#666666" points="664,-427 530.25,-427 530.25,-407 664,-407 664,-427"/>
<text xml:space="preserve" text-anchor="middle" x="597.12" y="-413.5" font-family="Helvetica,sans-Serif" font-size="10.00">RoadDetails::NonIdealtime</text>
</a>
</g>
</g>
<!-- Node2&#45;&gt;Node4 -->
<g id="edge3_Node000002_Node000004" class="edge">
<title>Node2&#45;&gt;Node4</title>
<g id="a_edge3_Node000002_Node000004"><a xlink:title=" ">
<path fill="none" stroke="#63b8ff" d="M252.03,-362.5C306.21,-349.31 408.26,-330.99 491.25,-354 523.09,-362.83 554.95,-384.19 575.06,-399.59"/>
<polygon fill="#63b8ff" stroke="#63b8ff" points="572.73,-402.21 582.75,-405.65 577.06,-396.71 572.73,-402.21"/>
</a>
</g>
</g>
<!-- Node6 -->
<g id="Node000006" class="node">
<title>Node6</title>
<g id="a_Node000006"><a xlink:href="class_manager.html#a9d7f391347995c2a77c126aa30827824" target="_top" xlink:title=" ">
<polygon fill="white" stroke="#666666" points="470.25,-383 353.75,-383 353.75,-363 470.25,-363 470.25,-383"/>
<text xml:space="preserve" text-anchor="middle" x="412" y="-369.5" font-family="Helvetica,sans-Serif" font-size="10.00">Manager::ShortestPath</text>
</a>
</g>
</g>
<!-- Node2&#45;&gt;Node6 -->
<g id="edge5_Node000002_Node000006" class="edge">
<title>Node2&#45;&gt;Node6</title>
<g id="a_edge5_Node000002_Node000006"><a xlink:title=" ">
<path fill="none" stroke="#63b8ff" d="M286.52,-373C304.69,-373 324.14,-373 342.13,-373"/>
<polygon fill="#63b8ff" stroke="#63b8ff" points="341.9,-376.5 351.9,-373 341.9,-369.5 341.9,-376.5"/>
</a>
</g>
</g>
<!-- Node8 -->
<g id="Node000008" class="node">
<title>Node8</title>
<g id="a_Node000008"><a xlink:href="struct_road_details.html#ad2d8b3a44383c9950e6cc4b4606b9f1a" target="_top" xlink:title=" ">
<polygon fill="white" stroke="#666666" points="491.25,-471 332.75,-471 332.75,-451 491.25,-451 491.25,-471"/>
<text xml:space="preserve" text-anchor="middle" x="412" y="-457.5" font-family="Helvetica,sans-Serif" font-size="10.00">RoadDetails::vehicleEntersRoad</text>
</a>
</g>
</g>
<!-- Node2&#45;&gt;Node8 -->
<g id="edge7_Node000002_Node000008" class="edge">
<title>Node2&#45;&gt;Node8</title>
<g id="a_edge7_Node000002_Node000008"><a xlink:title=" ">
<path fill="none" stroke="#63b8ff" d="M228.65,-383.4C250.4,-398.38 292.93,-425.99 332.75,-442 337.68,-443.98 342.87,-445.79 348.13,-447.44"/>
<polygon fill="#63b8ff" stroke="#63b8ff" points="346.95,-450.74 357.53,-450.18 348.91,-444.02 346.95,-450.74"/>
</a>
</g>
</g>
<!-- Node9 -->
<g id="Node000009" class="node">
<title>Node9</title>
<g id="a_Node000009"><a xlink:href="struct_road_details.html#abd834d75bb646b28fcbc9f079dfe6448" target="_top" xlink:title=" ">
<polygon fill="white" stroke="#666666" points="488.25,-269 335.75,-269 335.75,-249 488.25,-249 488.25,-269"/>
<text xml:space="preserve" text-anchor="middle" x="412" y="-255.5" font-family="Helvetica,sans-Serif" font-size="10.00">RoadDetails::vehicleExitsRoad</text>
</a>
</g>
</g>
<!-- Node2&#45;&gt;Node9 -->
<g id="edge9_Node000002_Node000009" class="edge">
<title>Node2&#45;&gt;Node9</title>
<g id="a_edge9_Node000002_Node000009"><a xlink:title=" ">
<path fill="none" stroke="#63b8ff" d="M231.83,-362.68C266.25,-342.77 342.06,-298.9 383.17,-275.1"/>
<polygon fill="#63b8ff" stroke="#63b8ff" points="384.86,-278.17 391.76,-270.13 381.35,-272.11 384.86,-278.17"/>
</a>
</g>
</g>
<!-- Node10 -->
<g id="Node000010" class="node">
<title>Node10</title>
<g id="a_Node000010"><a xlink:href="struct_road_details.html#ab807ac493fcc667a2d6571906da7d106" target="_top" xlink:title=" ">
<polygon fill="white" stroke="#666666" points="477,-433 347,-433 347,-401 477,-401 477,-433"/>
<text xml:space="preserve" text-anchor="start" x="355" y="-419.5" font-family="Helvetica,sans-Serif" font-size="10.00">RoadDetails::vehicleJoins</text>
<text xml:space="preserve" text-anchor="middle" x="412" y="-407.5" font-family="Helvetica,sans-Serif" font-size="10.00">Queue</text>
</a>
</g>
</g>
<!-- Node2&#45;&gt;Node10 -->
<g id="edge11_Node000002_Node000010" class="edge">
<title>Node2&#45;&gt;Node10</title>
<g id="a_edge11_Node000002_Node000010"><a xlink:title=" ">
<path fill="none" stroke="#63b8ff" d="M260.94,-383.48C283.24,-388.47 310.46,-394.54 335.56,-400.15"/>
<polygon fill="#63b8ff" stroke="#63b8ff" points="334.54,-403.51 345.07,-402.27 336.07,-396.68 334.54,-403.51"/>
</a>
</g>
</g>
<!-- Node5 -->
<g id="Node000005" class="node">
<title>Node5</title>
<g id="a_Node000005"><a xlink:href="struct_road_details.html#a3d1c2ac79846045deac57b0b89341471" target="_top" xlink:title=" ">
<polygon fill="white" stroke="#666666" points="819.5,-368 703,-368 703,-348 819.5,-348 819.5,-368"/>
<text xml:space="preserve" text-anchor="middle" x="761.25" y="-354.5" font-family="Helvetica,sans-Serif" font-size="10.00">RoadDetails::bestTime</text>
</a>
</g>
</g>
<!-- Node4&#45;&gt;Node5 -->
<g id="edge4_Node000004_Node000005" class="edge">
<title>Node4&#45;&gt;Node5</title>
<g id="a_edge4_Node000004_Node000005"><a xlink:title=" ">
<path fill="none" stroke="#63b8ff" d="M626.74,-406.59C652.93,-397.05 691.94,-382.86 721.03,-372.27"/>
<polygon fill="#63b8ff" stroke="#63b8ff" points="722.03,-375.63 730.23,-368.92 719.64,-369.06 722.03,-375.63"/>
</a>
</g>
</g>
<!-- Node7 -->
<g id="Node000007" class="node">
<title>Node7</title>
<g id="a_Node000007"><a xlink:href="struct_road_details.html#afa8574d48d45a7bace5f79f51ce70a56" target="_top" xlink:title=" ">
<polygon fill="white" stroke="#666666" points="661.75,-515 532.5,-515 532.5,-483 661.75,-483 661.75,-515"/>
<text xml:space="preserve" text-anchor="start" x="540.5" y="-501.5" font-family="Helvetica,sans-Serif" font-size="10.00">RoadDetails::vehicleExits</text>
<text xml:space="preserve" text-anchor="middle" x="597.12" y="-489.5" font-family="Helvetica,sans-Serif" font-size="10.00">Queue</text>
</a>
</g>
</g>
<!-- Node6&#45;&gt;Node7 -->
<g id="edge6_Node000006_Node000007" class="edge">
<title>Node6&#45;&gt;Node7</title>
<g id="a_edge6_Node000006_Node000007"><a xlink:title=" ">
<path fill="none" stroke="#63b8ff" d="M470.75,-382.45C477.95,-384.93 484.98,-388.05 491.25,-392 512.64,-405.46 509.88,-417.65 527.25,-436 540.1,-449.58 555.36,-463.72 568.24,-475.15"/>
<polygon fill="#63b8ff" stroke="#63b8ff" points="565.76,-477.63 575.59,-481.59 570.38,-472.37 565.76,-477.63"/>
</a>
</g>
</g>
<!-- Node8&#45;&gt;Node4 -->
<g id="edge8_Node000008_Node000004" class="edge">
<title>Node8&#45;&gt;Node4</title>
<g id="a_edge8_Node000008_Node000004"><a xlink:title=" ">
<path fill="none" stroke="#63b8ff" d="M456.4,-450.57C481.96,-444.43 514.53,-436.61 541.79,-430.06"/>
<polygon fill="#63b8ff" stroke="#63b8ff" points="542.34,-433.52 551.25,-427.78 540.71,-426.72 542.34,-433.52"/>
</a>
</g>
</g>
<!-- Node9&#45;&gt;Node4 -->
<g id="edge10_Node000009_Node000004" class="edge">
<title>Node9&#45;&gt;Node4</title>
<g id="a_edge10_Node000009_Node000004"><a xlink:title=" ">
<path fill="none" stroke="#63b8ff" d="M463.1,-269.39C472.94,-272.77 482.82,-277.2 491.25,-283 514.31,-298.85 560.65,-364.6 583.21,-397.73"/>
<polygon fill="#63b8ff" stroke="#63b8ff" points="580.04,-399.3 588.54,-405.62 585.84,-395.38 580.04,-399.3"/>
</a>
</g>
</g>
<!-- Node10&#45;&gt;Node4 -->
<g id="edge12_Node000010_Node000004" class="edge">
<title>Node10&#45;&gt;Node4</title>
<g id="a_edge12_Node000010_Node000004"><a xlink:title=" ">
<path fill="none" stroke="#63b8ff" d="M477.31,-417C490.59,-417 504.72,-417 518.42,-417"/>
<polygon fill="#63b8ff" stroke="#63b8ff" points="518.29,-420.5 528.29,-417 518.29,-413.5 518.29,-420.5"/>
</a>
</g>
</g>
<!-- Node11&#45;&gt;Node7 -->
<g id="edge14_Node000011_Node000007" class="edge">
<title>Node11&#45;&gt;Node7</title>
<g id="a_edge14_Node000011_Node000007"><a xlink:title=" ">
<path fill="none" stroke="#63b8ff" d="M281.76,-294.25C342.88,-295.32 432.02,-306.11 491.25,-354 522.2,-379.03 504.07,-403.65 527.25,-436 537.76,-450.66 552.15,-464.48 565.06,-475.43"/>
<polygon fill="#63b8ff" stroke="#63b8ff" points="562.58,-477.92 572.53,-481.55 567.02,-472.5 562.58,-477.92"/>
</a>
</g>
</g>
<!-- Node11&#45;&gt;Node9 -->
<g id="edge15_Node000011_Node000009" class="edge">
<title>Node11&#45;&gt;Node9</title>
<g id="a_edge15_Node000011_Node000009"><a xlink:title=" ">
<path fill="none" stroke="#63b8ff" d="M268.35,-286.52C292.25,-281.91 320.53,-276.45 345.57,-271.62"/>
<polygon fill="#63b8ff" stroke="#63b8ff" points="346.18,-275.07 355.34,-269.74 344.86,-268.19 346.18,-275.07"/>
</a>
</g>
</g>
<!-- Node12&#45;&gt;Node3 -->
<g id="edge17_Node000012_Node000003" class="edge">
<title>Node12&#45;&gt;Node3</title>
<g id="a_edge17_Node000012_Node000003"><a xlink:title=" ">
<path fill="none" stroke="#63b8ff" d="M296.97,-575C305.6,-575 314.39,-575 323.07,-575"/>
<polygon fill="#63b8ff" stroke="#63b8ff" points="322.88,-578.5 332.88,-575 322.88,-571.5 322.88,-578.5"/>
</a>
</g>
</g>
<!-- Node12&#45;&gt;Node4 -->
<g id="edge18_Node000012_Node000004" class="edge">
<title>Node12&#45;&gt;Node4</title>
<g id="a_edge18_Node000012_Node000004"><a xlink:title=" ">
<path fill="none" stroke="#63b8ff" d="M236.5,-585.43C287.53,-607.38 413.64,-651.74 491.25,-594 535.92,-560.76 496.48,-520.41 527.25,-474 537.98,-457.81 554.68,-443.83 568.94,-433.77"/>
<polygon fill="#63b8ff" stroke="#63b8ff" points="570.73,-436.78 577.07,-428.29 566.82,-430.98 570.73,-436.78"/>
</a>
</g>
</g>
<!-- Node12&#45;&gt;Node7 -->
<g id="edge20_Node000012_Node000007" class="edge">
<title>Node12&#45;&gt;Node7</title>
<g id="a_edge20_Node000012_Node000007"><a xlink:title=" ">
<path fill="none" stroke="#63b8ff" d="M231.82,-585.48C277.31,-610.77 400.51,-669.96 491.25,-627 535.38,-606.11 567.14,-556.54 583.5,-525.58"/>
<polygon fill="#63b8ff" stroke="#63b8ff" points="586.54,-527.33 587.96,-516.83 580.3,-524.15 586.54,-527.33"/>
</a>
</g>
</g>
<!-- Node12&#45;&gt;Node8 -->
<g id="edge19_Node000012_Node000008" class="edge">
<title>Node12&#45;&gt;Node8</title>
<g id="a_edge19_Node000012_Node000008"><a xlink:title=" ">
<path fill="none" stroke="#63b8ff" d="M231.83,-564.68C266.25,-544.77 342.06,-500.9 383.17,-477.1"/>
<polygon fill="#63b8ff" stroke="#63b8ff" points="384.86,-480.17 391.76,-472.13 381.35,-474.11 384.86,-480.17"/>
</a>
</g>
</g>
<!-- Node13&#45;&gt;Node3 -->
<g id="edge22_Node000013_Node000003" class="edge">
<title>Node13&#45;&gt;Node3</title>
<g id="a_edge22_Node000013_Node000003"><a xlink:title=" ">
<path fill="none" stroke="#63b8ff" d="M228.74,-490.41C250.58,-505.47 293.24,-533.44 332.75,-551 341.24,-554.77 350.5,-558.19 359.59,-561.18"/>
<polygon fill="#63b8ff" stroke="#63b8ff" points="358.48,-564.5 369.07,-564.15 360.58,-557.82 358.48,-564.5"/>
</a>
</g>
</g>
<!-- Node13&#45;&gt;Node4 -->
<g id="edge23_Node000013_Node000004" class="edge">
<title>Node13&#45;&gt;Node4</title>
<g id="a_edge23_Node000013_Node000004"><a xlink:title=" ">
<path fill="none" stroke="#63b8ff" d="M261.64,-487.59C317.71,-494.81 413.09,-501.67 491.25,-480 523.09,-471.17 554.95,-449.81 575.06,-434.41"/>
<polygon fill="#63b8ff" stroke="#63b8ff" points="577.06,-437.29 582.75,-428.35 572.73,-431.79 577.06,-437.29"/>
</a>
</g>
</g>
<!-- Node13&#45;&gt;Node7 -->
<g id="edge25_Node000013_Node000007" class="edge">
<title>Node13&#45;&gt;Node7</title>
<g id="a_edge25_Node000013_Node000007"><a xlink:title=" ">
<path fill="none" stroke="#63b8ff" d="M242.82,-490.38C266.59,-498.36 301.37,-508.72 332.75,-513 395.84,-521.6 468.09,-516.73 520.94,-510.48"/>
<polygon fill="#63b8ff" stroke="#63b8ff" points="521.25,-513.97 530.75,-509.27 520.4,-507.02 521.25,-513.97"/>
</a>
</g>
</g>
<!-- Node13&#45;&gt;Node8 -->
<g id="edge24_Node000013_Node000008" class="edge">
<title>Node13&#45;&gt;Node8</title>
<g id="a_edge24_Node000013_Node000008"><a xlink:title=" ">
<path fill="none" stroke="#63b8ff" d="M261.94,-475.38C279.81,-473.65 300.73,-471.63 321.16,-469.67"/>
<polygon fill="#63b8ff" stroke="#63b8ff" points="321.3,-473.17 330.92,-468.72 320.63,-466.2 321.3,-473.17"/>
</a>
</g>
</g>
<!-- Node13&#45;&gt;Node10 -->
<g id="edge26_Node000013_Node000010" class="edge">
<title>Node13&#45;&gt;Node10</title>
<g id="a_edge26_Node000013_Node000010"><a xlink:title=" ">
<path fill="none" stroke="#63b8ff" d="M246.76,-469.51C270.61,-461.88 303.68,-451.3 332.75,-442 338.05,-440.31 343.55,-438.55 349.06,-436.78"/>
<polygon fill="#63b8ff" stroke="#63b8ff" points="349.75,-440.24 358.21,-433.86 347.61,-433.57 349.75,-440.24"/>
</a>
</g>
</g>
<!-- Node15 -->
<g id="Node000015" class="node">
<title>Node15</title>
<g id="a_Node000015"><a xlink:href="class_manager.html#aca5ea9096ff8a677c31f33f25cd9730a" target="_top" xlink:title=" ">
<polygon fill="white" stroke="#666666" points="465.38,-146 358.62,-146 358.62,-126 465.38,-126 465.38,-146"/>
<text xml:space="preserve" text-anchor="middle" x="412" y="-132.5" font-family="Helvetica,sans-Serif" font-size="10.00">Manager::addVehicle</text>
</a>
</g>
</g>
<!-- Node14&#45;&gt;Node15 -->
<g id="edge28_Node000014_Node000015" class="edge">
<title>Node14&#45;&gt;Node15</title>
<g id="a_edge28_Node000014_Node000015"><a xlink:title=" ">
<path fill="none" stroke="#63b8ff" d="M277.14,-129.88C299.47,-130.9 324.6,-132.05 347,-133.08"/>
<polygon fill="#63b8ff" stroke="#63b8ff" points="346.78,-136.57 356.92,-133.53 347.09,-129.58 346.78,-136.57"/>
</a>
</g>
</g>
<!-- Node18&#45;&gt;Node9 -->
<g id="edge35_Node000018_Node000009" class="edge">
<title>Node18&#45;&gt;Node9</title>
<g id="a_edge35_Node000018_Node000009"><a xlink:title=" ">
<path fill="none" stroke="#63b8ff" d="M260.19,-259C279.27,-259 302.03,-259 324.02,-259"/>
<polygon fill="#63b8ff" stroke="#63b8ff" points="323.91,-262.5 333.91,-259 323.91,-255.5 323.91,-262.5"/>
</a>
</g>
</g>
<!-- Node19 -->
<g id="Node000019" class="node">
<title>Node19</title>
<g id="a_Node000019"><a xlink:href="class_manager.html#acc537b5360b5556da217c2a33775c373" target="_top" xlink:title=" ">
<polygon fill="white" stroke="#666666" points="474.38,-193 349.62,-193 349.62,-173 474.38,-173 474.38,-193"/>
<text xml:space="preserve" text-anchor="middle" x="412" y="-179.5" font-family="Helvetica,sans-Serif" font-size="10.00">Manager::Car_timing_file</text>
</a>
</g>
</g>
<!-- Node18&#45;&gt;Node19 -->
<g id="edge32_Node000018_Node000019" class="edge">
<title>Node18&#45;&gt;Node19</title>
<g id="a_edge32_Node000018_Node000019"><a xlink:title=" ">
<path fill="none" stroke="#63b8ff" d="M260.16,-252.79C272.51,-249.98 285.53,-245.9 296.75,-240 315.96,-229.9 313.91,-217.78 332.75,-207 339.38,-203.21 346.67,-199.95 354.06,-197.17"/>
<polygon fill="#63b8ff" stroke="#63b8ff" points="355.15,-200.49 363.46,-193.92 352.86,-193.88 355.15,-200.49"/>
</a>
</g>
</g>
<!-- Node20 -->
<g id="Node000020" class="node">
<title>Node20</title>
<g id="a_Node000020"><a xlink:href="class_manager.html#a353440025ca159bb34b3af7063376db8" target="_top" xlink:title=" ">
<polygon fill="white" stroke="#666666" points="654.25,-310 540,-310 540,-290 654.25,-290 654.25,-310"/>
<text xml:space="preserve" text-anchor="middle" x="597.12" y="-296.5" font-family="Helvetica,sans-Serif" font-size="10.00">Manager::recordArrival</text>
</a>
</g>
</g>
<!-- Node18&#45;&gt;Node20 -->
<g id="edge33_Node000018_Node000020" class="edge">
<title>Node18&#45;&gt;Node20</title>
<g id="a_edge33_Node000018_Node000020"><a xlink:title=" ">
<path fill="none" stroke="#63b8ff" d="M260.32,-249.84C282.19,-245.97 308.71,-241.91 332.75,-240 402.97,-234.42 423.17,-221.9 491.25,-240 522.43,-248.29 554.01,-268.28 574.25,-282.92"/>
<polygon fill="#63b8ff" stroke="#63b8ff" points="571.89,-285.53 582,-288.7 576.07,-279.92 571.89,-285.53"/>
</a>
</g>
</g>
<!-- Node20&#45;&gt;Node5 -->
<g id="edge34_Node000020_Node000005" class="edge">
<title>Node20&#45;&gt;Node5</title>
<g id="a_edge34_Node000020_Node000005"><a xlink:title=" ">
<path fill="none" stroke="#63b8ff" d="M627.11,-310.37C653.12,-319.67 691.52,-333.41 720.41,-343.75"/>
<polygon fill="#63b8ff" stroke="#63b8ff" points="718.95,-346.94 729.54,-347.02 721.31,-340.35 718.95,-346.94"/>
</a>
</g>
</g>
<!-- Node22 -->
<g id="Node000022" class="node">
<title>Node22</title>
<g id="a_Node000022"><a xlink:href="struct_traffic_signal.html#a03987971e60235922ee4cc0641ede6db" target="_top" xlink:title=" ">
<polygon fill="white" stroke="#666666" points="472.88,-108 351.12,-108 351.12,-88 472.88,-88 472.88,-108"/>
<text xml:space="preserve" text-anchor="middle" x="412" y="-94.5" font-family="Helvetica,sans-Serif" font-size="10.00">TrafficSignal::canSwitch</text>
</a>
</g>
</g>
<!-- Node21&#45;&gt;Node22 -->
<g id="edge37_Node000021_Node000022" class="edge">
<title>Node21&#45;&gt;Node22</title>
<g id="a_edge37_Node000021_Node000022"><a xlink:title=" ">
<path fill="none" stroke="#63b8ff" d="M273.91,-80.6C294.54,-83.22 317.85,-86.18 339.32,-88.9"/>
<polygon fill="#63b8ff" stroke="#63b8ff" points="338.83,-92.37 349.2,-90.16 339.72,-85.43 338.83,-92.37"/>
</a>
</g>
</g>
<!-- Node25 -->
<g id="Node000025" class="node">
<title>Node25</title>
<g id="a_Node000025"><a xlink:href="struct_road_details.html#ab94219e0def9f56b282f2c74eac2be56" target="_top" xlink:title=" ">
<polygon fill="white" stroke="#666666" points="465.75,-70 358.25,-70 358.25,-38 465.75,-38 465.75,-70"/>
<text xml:space="preserve" text-anchor="start" x="366.25" y="-56.5" font-family="Helvetica,sans-Serif" font-size="10.00">RoadDetails::change</text>
<text xml:space="preserve" text-anchor="middle" x="412" y="-44.5" font-family="Helvetica,sans-Serif" font-size="10.00">_to_red</text>
</a>
</g>
</g>
<!-- Node21&#45;&gt;Node25 -->
<g id="edge40_Node000021_Node000025" class="edge">
<title>Node21&#45;&gt;Node25</title>
<g id="a_edge40_Node000021_Node000025"><a xlink:title=" ">
<path fill="none" stroke="#63b8ff" d="M273.91,-67.22C296.96,-65 323.37,-62.45 346.81,-60.19"/>
<polygon fill="#63b8ff" stroke="#63b8ff" points="346.93,-63.7 356.55,-59.25 346.26,-56.73 346.93,-63.7"/>
</a>
</g>
</g>
<!-- Node26 -->
<g id="Node000026" class="node">
<title>Node26</title>
<g id="a_Node000026"><a xlink:href="struct_road_details.html#a1993bf790dd380a04515c84a1aca70b1" target="_top" xlink:title=" ">
<polygon fill="white" stroke="#666666" points="477.38,-20 346.62,-20 346.62,0 477.38,0 477.38,-20"/>
<text xml:space="preserve" text-anchor="middle" x="412" y="-6.5" font-family="Helvetica,sans-Serif" font-size="10.00">RoadDetails::changeState</text>
</a>
</g>
</g>
<!-- Node21&#45;&gt;Node26 -->
<g id="edge41_Node000021_Node000026" class="edge">
<title>Node21&#45;&gt;Node26</title>
<g id="a_edge41_Node000021_Node000026"><a xlink:title=" ">
<path fill="none" stroke="#63b8ff" d="M239.65,-62.51C263.5,-52.99 300.16,-38.96 332.75,-29 339.33,-26.99 346.27,-25.05 353.2,-23.23"/>
<polygon fill="#63b8ff" stroke="#63b8ff" points="353.71,-26.71 362.53,-20.84 351.98,-19.93 353.71,-26.71"/>
</a>
</g>
</g>
<!-- Node23 -->
<g id="Node000023" class="node">
<title>Node23</title>
<g id="a_Node000023"><a xlink:href="struct_traffic_signal.html#ad683db5ff22b610dc2b168f7503a3376" target="_top" xlink:title=" ">
<polygon fill="white" stroke="#666666" points="661,-89 533.25,-89 533.25,-69 661,-69 661,-89"/>
<text xml:space="preserve" text-anchor="middle" x="597.12" y="-75.5" font-family="Helvetica,sans-Serif" font-size="10.00">TrafficSignal::mustSwitch</text>
</a>
</g>
</g>
<!-- Node22&#45;&gt;Node23 -->
<g id="edge38_Node000022_Node000023" class="edge">
<title>Node22&#45;&gt;Node23</title>
<g id="a_edge38_Node000022_Node000023"><a xlink:title=" ">
<path fill="none" stroke="#63b8ff" d="M473.22,-91.75C488.8,-90.14 505.76,-88.38 521.97,-86.69"/>
<polygon fill="#63b8ff" stroke="#63b8ff" points="521.95,-90.21 531.54,-85.7 521.23,-83.25 521.95,-90.21"/>
</a>
</g>
</g>
<!-- Node24 -->
<g id="Node000024" class="node">
<title>Node24</title>
<g id="a_Node000024"><a xlink:href="struct_traffic_signal.html#a1d19589faa58d871cf785747a5987791" target="_top" xlink:title=" ">
<polygon fill="white" stroke="#666666" points="667,-127 527.25,-127 527.25,-107 667,-107 667,-127"/>
<text xml:space="preserve" text-anchor="middle" x="597.12" y="-113.5" font-family="Helvetica,sans-Serif" font-size="10.00">TrafficSignal::starvationCost</text>
</a>
</g>
</g>
<!-- Node22&#45;&gt;Node24 -->
<g id="edge39_Node000022_Node000024" class="edge">
<title>Node22&#45;&gt;Node24</title>
<g id="a_edge39_Node000022_Node000024"><a xlink:title=" ">
<path fill="none" stroke="#63b8ff" d="M473.22,-104.25C486.79,-105.66 501.41,-107.17 515.66,-108.65"/>
<polygon fill="#63b8ff" stroke="#63b8ff" points="515.17,-112.12 525.48,-109.67 515.89,-105.16 515.17,-112.12"/>
</a>
</g>
</g>
</g>
</svg>

<g id="navigator" transform="translate(0 0)" fill="#404254">
  <rect fill="#f2f5e9" fill-opacity="0.5" stroke="#606060" stroke-width=".5" x="0" y="0" width="60" height="60"/>
  <use id="zoomplus" xlink:href="#zoomPlus" x="17" y="9" onmousedown="handleZoom(evt,'in')"/>
  <use id="zoomminus" xlink:href="#zoomMin" x="42" y="9" onmousedown="handleZoom(evt,'out')"/>
  <use id="reset" xlink:href="#resetDef" x="30" y="36" onmousedown="handleReset()"/>
   <use id="arrowup" xlink:href="#arrowUp" x="0" y="0" onmousedown="handlePan(0,-1)"/>
  <use id="arrowright" xlink:href="#arrowRight" x="0" y="0" onmousedown="handlePan(1,0)"/>
  <use id="arrowdown" xlink:href="#arrowDown" x="0" y="0" onmousedown="handlePan(0,1)"/>
  <use id="arrowleft" xlink:href="#arrowLeft" x="0" y="0" onmousedown="handlePan(-1,0)"/>
</g>
<svg viewBox="0 0 15 15" width="100%" height="30px" preserveAspectRatio="xMaxYMin meet">
 <g id="arrow_out" transform="scale(0.3 0.3)">
  <a xlink:href="class_manager_a0170cc23a3a67917aed9e6f708830fe9_cgraph_org.svg" target="_base">
   <rect id="button" ry="5" rx="5" y="6" x="6" height="38" width="38"
        fill="#f2f5e9" fill-opacity="0.5" stroke="#606060" stroke-width="1.0"/>
   <path id="arrow"
     d="M 11.500037,31.436501 C 11.940474,20.09759 22.043105,11.32322 32.158766,21.979434 L 37.068811,17.246167 C 37.068811,17.246167 37.088388,32 37.088388,32 L 22.160133,31.978069 C 22.160133,31.978069 26.997745,27.140456 26.997745,27.140456 C 18.528582,18.264221 13.291696,25.230495 11.500037,31.436501 z"
     style="fill:#404040;"/>
  </a>
 </g>
</svg>

<style type='text/css'>
<![CDATA[
[data-mouse-over-selected='false'] { opacity: 0.7; }
[data-mouse-over-selected='true']  { opacity: 1.0; }
]]>
</style>
<script type="application/ecmascript"><![CDATA[
document.addEventListener('DOMContentLoaded', (event) => {
  highlightEdges();
  highlightAdjacentNodes();
});
]]></script>
</svg>
