<?xml version="1.0" encoding="UTF-8" standalone="no"?>
<!DOCTYPE svg PUBLIC "-//W3C//DTD SVG 1.1//EN"
 "http://www.w3.org/Graphics/SVG/1.1/DTD/svg11.dtd">
<!-- Generated by graphviz version 14.1.4 (20260321.0153)
 -->
<!-- Title: Manager::entrance Pages: 1 -->
<svg width="622pt" height="204pt"
 viewBox="0.00 0.00 622.00 204.00" xmlns="http://www.w3.org/2000/svg" xmlns:xlink="http://www.w3.org/1999/xlink">
<g id="graph0" class="graph" transform="scale(1 1) rotate(0) translate(4 200)">
<title>Manager::entrance</title>
<!-- Node1 -->
<g id="Node000001" class="node">
<title>Node1</title>
<g id="a_Node000001"><a xlink:title=" ">
<polygon fill="#999999" stroke="#666666" points="97,-120 0,-120 0,-100 97,-100 97,-120"/>
<text xml:space="preserve" text-anchor="middle" x="48.5" y="-106.5" font-family="Helvetica,sans-Serif" font-size="10.00">Manager::entrance</text>
</a>
</g>
</g>
<!-- Node2 -->
<g id="Node000002" class="node">
<title>Node2</title>
<g id="a_Node000002"><a xlink:href="struct_road_details.html#a669dfcadc27d416b6511a92684442ef9" target="_top" xlink:title=" ">
<polygon fill="white" stroke="#666666" points="289.62,-196 134.88,-196 134.88,-176 289.62,-176 289.62,-196"/>
<text xml:space="preserve" text-anchor="middle" x="212.25" y="-182.5" font-family="Helvetica,sans-Serif" font-size="10.00">RoadDetails::DischargeAllowed</text>
</a>
</g>
</g>
<!-- Node1&#45;&gt;Node2 -->
<g id="edge1_Node000001_Node000002" class="edge">
<title>Node1&#45;&gt;Node2</title>
<g id="a_edge1_Node000001_Node000002"><a xlink:title=" ">
<path fill="none" stroke="#63b8ff" d="M63.64,-120.41C79.75,-131.88 107.2,-150.25 133,-162 141.37,-165.81 150.5,-169.23 159.48,-172.21"/>
<polygon fill="#63b8ff" stroke="#63b8ff" points="158.27,-175.49 168.86,-175.16 160.37,-168.82 158.27,-175.49"/>
</a>
</g>
</g>
<!-- Node3 -->
<g id="Node000003" class="node">
<title>Node3</title>
<g id="a_Node000003"><a xlink:href="struct_road_details.html#a915b2e8bea1bbe71934faeedf53a06fb" target="_top" xlink:title=" ">
<polygon fill="white" stroke="#666666" points="461.25,-120 327.5,-120 327.5,-100 461.25,-100 461.25,-120"/>
<text xml:space="preserve" text-anchor="middle" x="394.38" y="-106.5" font-family="Helvetica,sans-Serif" font-size="10.00">RoadDetails::NonIdealtime</text>
</a>
</g>
</g>
<!-- Node1&#45;&gt;Node3 -->
<g id="edge2_Node000001_Node000003" class="edge">
<title>Node1&#45;&gt;Node3</title>
<g id="a_edge2_Node000001_Node000003"><a xlink:title=" ">
<path fill="none" stroke="#63b8ff" d="M87.02,-120.42C101.29,-123.88 117.78,-127.29 133,-129 203,-136.86 221.35,-135.49 291.5,-129 305.99,-127.66 321.49,-125.27 335.92,-122.63"/>
<polygon fill="#63b8ff" stroke="#63b8ff" points="336.57,-126.07 345.74,-120.75 335.26,-119.19 336.57,-126.07"/>
</a>
</g>
</g>
<!-- Node5 -->
<g id="Node000005" class="node">
<title>Node5</title>
<g id="a_Node000005"><a xlink:href="struct_road_details.html#ad2d8b3a44383c9950e6cc4b4606b9f1a" target="_top" xlink:title=" ">
<polygon fill="white" stroke="#666666" points="291.5,-120 133,-120 133,-100 291.5,-100 291.5,-120"/>
<text xml:space="preserve" text-anchor="middle" x="212.25" y="-106.5" font-family="Helvetica,sans-Serif" font-size="10.00">RoadDetails::vehicleEntersRoad</text>
</a>
</g>
</g>
<!-- Node1&#45;&gt;Node5 -->
<g id="edge4_Node000001_Node000005" class="edge">
<title>Node1&#45;&gt;Node5</title>
<g id="a_edge4_Node000001_Node000005"><a xlink:title=" ">
<path fill="none" stroke="#63b8ff" d="M97.16,-110C104.84,-110 113.02,-110 121.32,-110"/>
<polygon fill="#63b8ff" stroke="#63b8ff" points="121.17,-113.5 131.17,-110 121.17,-106.5 121.17,-113.5"/>
</a>
</g>
</g>
<!-- Node6 -->
<g id="Node000006" class="node">
<title>Node6</title>
<g id="a_Node000006"><a xlink:href="struct_road_details.html#afa8574d48d45a7bace5f79f51ce70a56" target="_top" xlink:title=" ">
<polygon fill="white" stroke="#666666" points="276.88,-82 147.62,-82 147.62,-50 276.88,-50 276.88,-82"/>
<text xml:space="preserve" text-anchor="start" x="155.62" y="-68.5" font-family="Helvetica,sans-Serif" font-size="10.00">RoadDetails::vehicleExits</text>
<text xml:space="preserve" text-anchor="middle" x="212.25" y="-56.5" font-family="Helvetica,sans-Serif" font-size="10.00">Queue</text>
</a>
</g>
</g>
<!-- Node1&#45;&gt;Node6 -->
<g id="edge6_Node000001_Node000006" class="edge">
<title>Node1&#45;&gt;Node6</title>
<g id="a_edge6_Node000001_Node000006"><a xlink:title=" ">
<path fill="none" stroke="#63b8ff" d="M87.83,-99.57C103.38,-95.34 121.87,-90.31 139.73,-85.45"/>
<polygon fill="#63b8ff" stroke="#63b8ff" points="140.55,-88.86 149.28,-82.86 138.72,-82.1 140.55,-88.86"/>
</a>
</g>
</g>
<!-- Node7 -->
<g id="Node000007" class="node">
<title>Node7</title>
<g id="a_Node000007"><a xlink:href="struct_road_details.html#ab807ac493fcc667a2d6571906da7d106" target="_top" xlink:title=" ">
<polygon fill="white" stroke="#666666" points="277.25,-32 147.25,-32 147.25,0 277.25,0 277.25,-32"/>
<text xml:space="preserve" text-anchor="start" x="155.25" y="-18.5" font-family="Helvetica,sans-Serif" font-size="10.00">RoadDetails::vehicleJoins</text>
<text xml:space="preserve" text-anchor="middle" x="212.25" y="-6.5" font-family="Helvetica,sans-Serif" font-size="10.00">Queue</text>
</a>
</g>
</g>
<!-- Node1&#45;&gt;Node7 -->
<g id="edge7_Node000001_Node000007" class="edge">
<title>Node1&#45;&gt;Node7</title>
<g id="a_edge7_Node000001_Node000007"><a xlink:title=" ">
<path fill="none" stroke="#63b8ff" d="M59.35,-99.66C74.08,-84.75 103.29,-57.23 133,-41 135.67,-39.54 138.43,-38.16 141.26,-36.84"/>
<polygon fill="#63b8ff" stroke="#63b8ff" points="142.5,-40.11 150.32,-32.95 139.75,-33.68 142.5,-40.11"/>
</a>
</g>
</g>
<!-- Node4 -->
<g id="Node000004" class="node">
<title>Node4</title>
<g id="a_Node000004"><a xlink:href="struct_road_details.html#a3d1c2ac79846045deac57b0b89341471" target="_top" xlink:title=" ">
<polygon fill="white" stroke="#666666" points="613.75,-120 497.25,-120 497.25,-100 613.75,-100 613.75,-120"/>
<text xml:space="preserve" text-anchor="middle" x="555.5" y="-106.5" font-family="Helvetica,sans-Serif" font-size="10.00">RoadDetails::bestTime</text>
</a>
</g>
</g>
<!-- Node3&#45;&gt;Node4 -->
<g id="edge3_Node000003_Node000004" class="edge">
<title>Node3&#45;&gt;Node4</title>
<g id="a_edge3_Node000003_Node000004"><a xlink:title=" ">
<path fill="none" stroke="#63b8ff" d="M461.48,-110C469.49,-110 477.68,-110 485.73,-110"/>
<polygon fill="#63b8ff" stroke="#63b8ff" points="485.46,-113.5 495.46,-110 485.46,-106.5 485.46,-113.5"/>
</a>
</g>
</g>
<!-- Node5&#45;&gt;Node3 -->
<g id="edge5_Node000005_Node000003" class="edge">
<title>Node5&#45;&gt;Node3</title>
<g id="a_edge5_Node000005_Node000003"><a xlink:title=" ">
<path fill="none" stroke="#63b8ff" d="M291.99,-110C299.88,-110 307.88,-110 315.76,-110"/>
<polygon fill="#63b8ff" stroke="#63b8ff" points="315.66,-113.5 325.66,-110 315.66,-106.5 315.66,-113.5"/>
</a>
</g>
</g>
<!-- Node7&#45;&gt;Node3 -->
<g id="edge8_Node000007_Node000003" class="edge">
<title>Node7&#45;&gt;Node3</title>
<g id="a_edge8_Node000007_Node000003"><a xlink:title=" ">
<path fill="none" stroke="#63b8ff" d="M271.25,-32.46C278.19,-35.03 285.09,-37.88 291.5,-41 321.06,-55.36 351.88,-77.38 371.77,-92.66"/>
<polygon fill="#63b8ff" stroke="#63b8ff" points="369.38,-95.23 379.41,-98.63 373.68,-89.72 369.38,-95.23"/>
</a>
</g>
</g>
</g>
</svg>
