<?xml version="1.0" encoding="UTF-8" standalone="no"?>
<!DOCTYPE svg PUBLIC "-//W3C//DTD SVG 1.1//EN"
 "http://www.w3.org/Graphics/SVG/1.1/DTD/svg11.dtd">
<!-- Generated by graphviz version 14.1.4 (20260321.0153)
 -->
<!-- Title: TrafficSignal::mustSwitch Pages: 1 -->
<svg width="580pt" height="28pt"
 viewBox="0.00 0.00 580.00 28.00" xmlns="http://www.w3.org/2000/svg" xmlns:xlink="http://www.w3.org/1999/xlink">
<g id="graph0" class="graph" transform="scale(1 1) rotate(0) translate(4 24)">
<title>TrafficSignal::mustSwitch</title>
<!-- Node1 -->
<g id="Node000001" class="node">
<title>Node1</title>
<g id="a_Node000001"><a xlink:title=" ">
<polygon fill="#999999" stroke="#666666" points="571.75,-20 444,-20 444,0 571.75,0 571.75,-20"/>
<text xml:space="preserve" text-anchor="middle" x="507.88" y="-6.5" font-family="Helvetica,sans-Serif" font-size="10.00">TrafficSignal::mustSwitch</text>
</a>
</g>
</g>
<!-- Node2 -->
<g id="Node000002" class="node">
<title>Node2</title>
<g id="a_Node000002"><a xlink:href="struct_traffic_signal.html#a03987971e60235922ee4cc0641ede6db" target="_top" xlink:title=" ">
<polygon fill="white" stroke="#666666" points="408,-20 286.25,-20 286.25,0 408,0 408,-20"/>
<text xml:space="preserve" text-anchor="middle" x="347.12" y="-6.5" font-family="Helvetica,sans-Serif" font-size="10.00">TrafficSignal::canSwitch</text>
</a>
</g>
</g>
<!-- Node1&#45;&gt;Node2 -->
<g id="edge1_Node000001_Node000002" class="edge">
<title>Node1&#45;&gt;Node2</title>
<g id="a_edge1_Node000001_Node000002"><a xlink:title=" ">
<path fill="none" stroke="#63b8ff" d="M432.34,-10C424.27,-10 416.13,-10 408.26,-10"/>
<polygon fill="#63b8ff" stroke="#63b8ff" points="432.16,-13.5 442.16,-10 432.16,-6.5 432.16,-13.5"/>
</a>
</g>
</g>
<!-- Node3 -->
<g id="Node000003" class="node">
<title>Node3</title>
<g id="a_Node000003"><a xlink:href="class_manager.html#a0491c679bd2da5b32514b462d89fd3f1" target="_top" xlink:title=" ">
<polygon fill="white" stroke="#666666" points="250.25,-20 129.25,-20 129.25,0 250.25,0 250.25,-20"/>
<text xml:space="preserve" text-anchor="middle" x="189.75" y="-6.5" font-family="Helvetica,sans-Serif" font-size="10.00">Manager::updateSignals</text>
</a>
</g>
</g>
<!-- Node2&#45;&gt;Node3 -->
<g id="edge2_Node000002_Node000003" class="edge">
<title>Node2&#45;&gt;Node3</title>
<g id="a_edge2_Node000002_Node000003"><a xlink:title=" ">
<path fill="none" stroke="#63b8ff" d="M274.76,-10C266.7,-10 258.55,-10 250.66,-10"/>
<polygon fill="#63b8ff" stroke="#63b8ff" points="274.54,-13.5 284.54,-10 274.54,-6.5 274.54,-13.5"/>
</a>
</g>
</g>
<!-- Node4 -->
<g id="Node000004" class="node">
<title>Node4</title>
<g id="a_Node000004"><a xlink:href="class_manager.html#a0170cc23a3a67917aed9e6f708830fe9" target="_top" xlink:title=" ">
<polygon fill="white" stroke="#666666" points="93.25,-20 0,-20 0,0 93.25,0 93.25,-20"/>
<text xml:space="preserve" text-anchor="middle" x="46.62" y="-6.5" font-family="Helvetica,sans-Serif" font-size="10.00">Manager::physics</text>
</a>
</g>
</g>
<!-- Node3&#45;&gt;Node4 -->
<g id="edge3_Node000003_Node000004" class="edge">
<title>Node3&#45;&gt;Node4</title>
<g id="a_edge3_Node000003_Node000004"><a xlink:title=" ">
<path fill="none" stroke="#63b8ff" d="M117.41,-10C109.26,-10 101.12,-10 93.44,-10"/>
<polygon fill="#63b8ff" stroke="#63b8ff" points="117.39,-13.5 127.39,-10 117.39,-6.5 117.39,-13.5"/>
</a>
</g>
</g>
</g>
</svg>
