<?xml version="1.0" encoding="UTF-8" standalone="no"?>
<!DOCTYPE svg PUBLIC "-//W3C//DTD SVG 1.1//EN"
 "http://www.w3.org/Graphics/SVG/1.1/DTD/svg11.dtd">
<!-- Generated by graphviz version 14.1.4 (20260321.0153)
 -->
<!-- Title: RoadDetails::operator&lt; Pages: 1 -->
<svg width="306pt" height="66pt"
 viewBox="0.00 0.00 306.00 66.00" xmlns="http://www.w3.org/2000/svg" xmlns:xlink="http://www.w3.org/1999/xlink">
<g id="graph0" class="graph" transform="scale(1 1) rotate(0) translate(4 62)">
<title>RoadDetails::operator&lt;</title>
<!-- Node1 -->
<g id="Node000001" class="node">
<title>Node1</title>
<g id="a_Node000001"><a xlink:title=" ">
<polygon fill="#999999" stroke="#666666" points="117.25,-39 0,-39 0,-19 117.25,-19 117.25,-39"/>
<text xml:space="preserve" text-anchor="middle" x="58.62" y="-25.5" font-family="Helvetica,sans-Serif" font-size="10.00">RoadDetails::operator&lt;</text>
</a>
</g>
</g>
<!-- Node2 -->
<g id="Node000002" class="node">
<title>Node2</title>
<g id="a_Node000002"><a xlink:href="struct_road_details.html#a0da3fd2452fbaef2da1e7db355fc80ca" target="_top" xlink:title=" ">
<polygon fill="white" stroke="#666666" points="298.25,-58 153.25,-58 153.25,-38 298.25,-38 298.25,-58"/>
<text xml:space="preserve" text-anchor="middle" x="225.75" y="-44.5" font-family="Helvetica,sans-Serif" font-size="10.00">RoadDetails::calculateWeight</text>
</a>
</g>
</g>
<!-- Node1&#45;&gt;Node2 -->
<g id="edge1_Node000001_Node000002" class="edge">
<title>Node1&#45;&gt;Node2</title>
<g id="a_edge1_Node000001_Node000002"><a xlink:title=" ">
<path fill="none" stroke="#63b8ff" d="M117.38,-35.65C125.24,-36.55 133.44,-37.49 141.64,-38.44"/>
<polygon fill="#63b8ff" stroke="#63b8ff" points="140.96,-41.88 151.3,-39.55 141.76,-34.93 140.96,-41.88"/>
</a>
</g>
</g>
<!-- Node3 -->
<g id="Node000003" class="node">
<title>Node3</title>
<g id="a_Node000003"><a xlink:href="struct_road_details.html#a0387742036ab698ca52d5b91225cca39" target="_top" xlink:title=" ">
<polygon fill="white" stroke="#666666" points="290.75,-20 160.75,-20 160.75,0 290.75,0 290.75,-20"/>
<text xml:space="preserve" text-anchor="middle" x="225.75" y="-6.5" font-family="Helvetica,sans-Serif" font-size="10.00">RoadDetails::RoadDetails</text>
</a>
</g>
</g>
<!-- Node1&#45;&gt;Node3 -->
<g id="edge2_Node000001_Node000003" class="edge">
<title>Node1&#45;&gt;Node3</title>
<g id="a_edge2_Node000001_Node000003"><a xlink:title=" ">
<path fill="none" stroke="#63b8ff" d="M117.38,-22.35C127.55,-21.18 138.29,-19.95 148.87,-18.73"/>
<polygon fill="#63b8ff" stroke="#63b8ff" points="149.22,-22.21 158.76,-17.59 148.42,-15.26 149.22,-22.21"/>
</a>
</g>
</g>
</g>
</svg>
