<?xml version="1.0" encoding="UTF-8" standalone="no"?>
<!DOCTYPE svg PUBLIC "-//W3C//DTD SVG 1.1//EN"
 "http://www.w3.org/Graphics/SVG/1.1/DTD/svg11.dtd">
<!-- Generated by graphviz version 14.1.4 (20260321.0153)
 -->
<!-- Title: RoadDetails::vehicleExitsRoad Pages: 1 -->
<svg width="472pt" height="104pt"
 viewBox="0.00 0.00 472.00 104.00" xmlns="http://www.w3.org/2000/svg" xmlns:xlink="http://www.w3.org/1999/xlink">

<svg id="main" version="1.1" xmlns="http://www.w3.org/2000/svg" xmlns:xlink="http://www.w3.org/1999/xlink" xml:space="preserve">

<style type="text/css"><![CDATA[
.node, .edge {opacity: 0.7;}
.node.selected, .edge.selected {opacity: 1;}
.edge:hover path { stroke: red; }
.edge:hover polygon { stroke: red; fill: red; }
]]></style>
<script type="application/ecmascript" xlink:href="svg.min.js"/>
<svg id="graph" class="graph">
<g id="graph0" class="graph" transform="scale(1 1) rotate(0) translate(4 100)">
<title>RoadDetails::vehicleExitsRoad</title>
<!-- Node1 -->
<g id="Node000001" class="node">
<title>Node1</title>
<g id="a_Node000001"><a xlink:title=" ">
<polygon fill="#999999" stroke="#666666" points="464.25,-58 311.75,-58 311.75,-38 464.25,-38 464.25,-58"/>
<text xml:space="preserve" text-anchor="middle" x="388" y="-44.5" font-family="Helvetica,sans-Serif" font-size="10.00">RoadDetails::vehicleExitsRoad</text>
</a>
</g>
</g>
<!-- Node2 -->
<g id="Node000002" class="node">
<title>Node2</title>
<g id="a_Node000002"><a xlink:href="class_manager.html#ac9e977b3769ef82a56fa87d08092decc" target="_top" xlink:title=" ">
<polygon fill="white" stroke="#666666" points="275.75,-96 129.25,-96 129.25,-76 275.75,-76 275.75,-96"/>
<text xml:space="preserve" text-anchor="middle" x="202.5" y="-82.5" font-family="Helvetica,sans-Serif" font-size="10.00">Manager::arrivalAtIntersection</text>
</a>
</g>
</g>
<!-- Node1&#45;&gt;Node2 -->
<g id="edge1_Node000001_Node000002" class="edge">
<title>Node1&#45;&gt;Node2</title>
<g id="a_edge1_Node000001_Node000002"><a xlink:title=" ">
<path fill="none" stroke="#63b8ff" d="M325.25,-60.79C302.06,-65.59 276,-70.99 253.96,-75.55"/>
<polygon fill="#63b8ff" stroke="#63b8ff" points="325.81,-64.25 334.89,-58.79 324.39,-57.39 325.81,-64.25"/>
</a>
</g>
</g>
<!-- Node4 -->
<g id="Node000004" class="node">
<title>Node4</title>
<g id="a_Node000004"><a xlink:href="class_manager.html#ae97e60d3e65539f3ec5fc92185cf7a6a" target="_top" xlink:title=" ">
<polygon fill="white" stroke="#666666" points="270.88,-58 134.12,-58 134.12,-38 270.88,-38 270.88,-58"/>
<text xml:space="preserve" text-anchor="middle" x="202.5" y="-44.5" font-family="Helvetica,sans-Serif" font-size="10.00">Manager::checkBrokenPath</text>
</a>
</g>
</g>
<!-- Node1&#45;&gt;Node4 -->
<g id="edge3_Node000001_Node000004" class="edge">
<title>Node1&#45;&gt;Node4</title>
<g id="a_edge3_Node000001_Node000004"><a xlink:title=" ">
<path fill="none" stroke="#63b8ff" d="M299.97,-48C290.27,-48 280.5,-48 271.09,-48"/>
<polygon fill="#63b8ff" stroke="#63b8ff" points="299.79,-51.5 309.79,-48 299.79,-44.5 299.79,-51.5"/>
</a>
</g>
</g>
<!-- Node5 -->
<g id="Node000005" class="node">
<title>Node5</title>
<g id="a_Node000005"><a xlink:href="class_manager.html#a66ab5b09246caed3e30768721639ee25" target="_top" xlink:title=" ">
<polygon fill="white" stroke="#666666" points="249.5,-20 155.5,-20 155.5,0 249.5,0 249.5,-20"/>
<text xml:space="preserve" text-anchor="middle" x="202.5" y="-6.5" font-family="Helvetica,sans-Serif" font-size="10.00">Manager::reached</text>
</a>
</g>
</g>
<!-- Node1&#45;&gt;Node5 -->
<g id="edge5_Node000001_Node000005" class="edge">
<title>Node1&#45;&gt;Node5</title>
<g id="a_edge5_Node000001_Node000005"><a xlink:title=" ">
<path fill="none" stroke="#63b8ff" d="M325.31,-35.22C300.66,-30.12 272.75,-24.34 249.88,-19.6"/>
<polygon fill="#63b8ff" stroke="#63b8ff" points="324.39,-38.61 334.89,-37.21 325.81,-31.75 324.39,-38.61"/>
</a>
</g>
</g>
<!-- Node3 -->
<g id="Node000003" class="node">
<title>Node3</title>
<g id="a_Node000003"><a xlink:href="class_manager.html#a0170cc23a3a67917aed9e6f708830fe9" target="_top" xlink:title=" ">
<polygon fill="white" stroke="#666666" points="93.25,-58 0,-58 0,-38 93.25,-38 93.25,-58"/>
<text xml:space="preserve" text-anchor="middle" x="46.62" y="-44.5" font-family="Helvetica,sans-Serif" font-size="10.00">Manager::physics</text>
</a>
</g>
</g>
<!-- Node2&#45;&gt;Node3 -->
<g id="edge2_Node000002_Node000003" class="edge">
<title>Node2&#45;&gt;Node3</title>
<g id="a_edge2_Node000002_Node000003"><a xlink:title=" ">
<path fill="none" stroke="#63b8ff" d="M148.12,-72.82C129.09,-68.12 107.92,-62.89 89.94,-58.45"/>
<polygon fill="#63b8ff" stroke="#63b8ff" points="147.03,-76.15 157.58,-75.15 148.71,-69.36 147.03,-76.15"/>
</a>
</g>
</g>
<!-- Node4&#45;&gt;Node3 -->
<g id="edge4_Node000004_Node000003" class="edge">
<title>Node4&#45;&gt;Node3</title>
<g id="a_edge4_Node000004_Node000003"><a xlink:title=" ">
<path fill="none" stroke="#63b8ff" d="M122.69,-48C112.65,-48 102.66,-48 93.39,-48"/>
<polygon fill="#63b8ff" stroke="#63b8ff" points="122.49,-51.5 132.49,-48 122.49,-44.5 122.49,-51.5"/>
</a>
</g>
</g>
<!-- Node5&#45;&gt;Node3 -->
<g id="edge6_Node000005_Node000003" class="edge">
<title>Node5&#45;&gt;Node3</title>
<g id="a_edge6_Node000005_Node000003"><a xlink:title=" ">
<path fill="none" stroke="#63b8ff" d="M148.12,-23.18C129.09,-27.88 107.92,-33.11 89.94,-37.55"/>
<polygon fill="#63b8ff" stroke="#63b8ff" points="148.71,-26.64 157.58,-20.85 147.03,-19.85 148.71,-26.64"/>
</a>
</g>
</g>
</g>
</svg>
</svg>

<style type='text/css'>
<![CDATA[
[data-mouse-over-selected='false'] { opacity: 0.7; }
[data-mouse-over-selected='true']  { opacity: 1.0; }
]]>
</style>
<script type="application/ecmascript"><![CDATA[
document.addEventListener('DOMContentLoaded', (event) => {
  highlightEdges();
  highlightAdjacentNodes();
});
]]></script>
</svg>
