<?xml version="1.0" encoding="UTF-8" standalone="no"?>
<!DOCTYPE svg PUBLIC "-//W3C//DTD SVG 1.1//EN"
 "http://www.w3.org/Graphics/SVG/1.1/DTD/svg11.dtd">
<!-- Generated by graphviz version 14.1.4 (20260321.0153)
 -->
<!-- Title: RoadDetails::bestTime Pages: 1 -->
<svg width="822pt" height="277pt"
 viewBox="0.00 0.00 822.00 277.00" xmlns="http://www.w3.org/2000/svg" xmlns:xlink="http://www.w3.org/1999/xlink">
<g id="graph0" class="graph" transform="scale(1 1) rotate(0) translate(4 273.41)">
<title>RoadDetails::bestTime</title>
<!-- Node1 -->
<g id="Node000001" class="node">
<title>Node1</title>
<g id="a_Node000001"><a xlink:title=" ">
<polygon fill="#999999" stroke="#666666" points="813.5,-58 697,-58 697,-38 813.5,-38 813.5,-58"/>
<text xml:space="preserve" text-anchor="middle" x="755.25" y="-44.5" font-family="Helvetica,sans-Serif" font-size="10.00">RoadDetails::bestTime</text>
</a>
</g>
</g>
<!-- Node2 -->
<g id="Node000002" class="node">
<title>Node2</title>
<g id="a_Node000002"><a xlink:href="struct_road_details.html#a915b2e8bea1bbe71934faeedf53a06fb" target="_top" xlink:title=" ">
<polygon fill="white" stroke="#666666" points="661,-156 527.25,-156 527.25,-136 661,-136 661,-156"/>
<text xml:space="preserve" text-anchor="middle" x="594.12" y="-142.5" font-family="Helvetica,sans-Serif" font-size="10.00">RoadDetails::NonIdealtime</text>
</a>
</g>
</g>
<!-- Node1&#45;&gt;Node2 -->
<g id="edge1_Node000001_Node000002" class="edge">
<title>Node1&#45;&gt;Node2</title>
<g id="a_edge1_Node000001_Node000002"><a xlink:title=" ">
<path fill="none" stroke="#63b8ff" d="M727.78,-64.3C694.88,-84.56 639.71,-118.54 612.03,-135.59"/>
<polygon fill="#63b8ff" stroke="#63b8ff" points="729.25,-67.51 735.93,-59.28 725.58,-61.55 729.25,-67.51"/>
</a>
</g>
</g>
<!-- Node7 -->
<g id="Node000007" class="node">
<title>Node7</title>
<g id="a_Node000007"><a xlink:href="struct_road_details.html#aeba1d96f6e1cf5e96f59c887d1f2a0ef" target="_top" xlink:title=" ">
<polygon fill="white" stroke="#666666" points="468.38,-58 355.62,-58 355.62,-38 468.38,-38 468.38,-58"/>
<text xml:space="preserve" text-anchor="middle" x="412" y="-44.5" font-family="Helvetica,sans-Serif" font-size="10.00">RoadDetails::TimeCal</text>
</a>
</g>
</g>
<!-- Node1&#45;&gt;Node7 -->
<g id="edge24_Node000001_Node000007" class="edge">
<title>Node1&#45;&gt;Node7</title>
<g id="a_edge24_Node000001_Node000007"><a xlink:title=" ">
<path fill="none" stroke="#63b8ff" d="M685.6,-48C621.82,-48 528.02,-48 468.75,-48"/>
<polygon fill="#63b8ff" stroke="#63b8ff" points="685.23,-51.5 695.23,-48 685.23,-44.5 685.23,-51.5"/>
</a>
</g>
</g>
<!-- Node13 -->
<g id="Node000013" class="node">
<title>Node13</title>
<g id="a_Node000013"><a xlink:href="class_manager.html#a353440025ca159bb34b3af7063376db8" target="_top" xlink:title=" ">
<polygon fill="white" stroke="#666666" points="651.25,-20 537,-20 537,0 651.25,0 651.25,-20"/>
<text xml:space="preserve" text-anchor="middle" x="594.12" y="-6.5" font-family="Helvetica,sans-Serif" font-size="10.00">Manager::recordArrival</text>
</a>
</g>
</g>
<!-- Node1&#45;&gt;Node13 -->
<g id="edge22_Node000001_Node000013" class="edge">
<title>Node1&#45;&gt;Node13</title>
<g id="a_edge22_Node000001_Node000013"><a xlink:title=" ">
<path fill="none" stroke="#63b8ff" d="M699.33,-34.88C679.57,-30.17 657.56,-24.91 638.88,-20.45"/>
<polygon fill="#63b8ff" stroke="#63b8ff" points="698.34,-38.25 708.88,-37.16 699.96,-31.44 698.34,-38.25"/>
</a>
</g>
</g>
<!-- Node3 -->
<g id="Node000003" class="node">
<title>Node3</title>
<g id="a_Node000003"><a xlink:href="class_manager.html#ac9e977b3769ef82a56fa87d08092decc" target="_top" xlink:title=" ">
<polygon fill="white" stroke="#666666" points="286.25,-159 139.75,-159 139.75,-139 286.25,-139 286.25,-159"/>
<text xml:space="preserve" text-anchor="middle" x="213" y="-145.5" font-family="Helvetica,sans-Serif" font-size="10.00">Manager::arrivalAtIntersection</text>
</a>
</g>
</g>
<!-- Node2&#45;&gt;Node3 -->
<g id="edge2_Node000002_Node000003" class="edge">
<title>Node2&#45;&gt;Node3</title>
<g id="a_edge2_Node000002_Node000003"><a xlink:title=" ">
<path fill="none" stroke="#63b8ff" d="M515.36,-143.47C507.22,-143.28 499.07,-143.12 491.25,-143 420.81,-141.96 403.17,-141.22 332.75,-143 317.79,-143.38 301.78,-144.02 286.51,-144.75"/>
<polygon fill="#63b8ff" stroke="#63b8ff" points="515.22,-146.97 525.31,-143.73 515.4,-139.97 515.22,-146.97"/>
</a>
</g>
</g>
<!-- Node5 -->
<g id="Node000005" class="node">
<title>Node5</title>
<g id="a_Node000005"><a xlink:href="class_manager.html#aef9be6b89ef65c0eadad234ef04e6109" target="_top" xlink:title=" ">
<polygon fill="white" stroke="#666666" points="296.75,-235 129.25,-235 129.25,-215 296.75,-215 296.75,-235"/>
<text xml:space="preserve" text-anchor="middle" x="213" y="-221.5" font-family="Helvetica,sans-Serif" font-size="10.00">Manager::entraingfromQueetoEdge</text>
</a>
</g>
</g>
<!-- Node2&#45;&gt;Node5 -->
<g id="edge4_Node000002_Node000005" class="edge">
<title>Node2&#45;&gt;Node5</title>
<g id="a_edge4_Node000002_Node000005"><a xlink:title=" ">
<path fill="none" stroke="#63b8ff" d="M581.59,-165.7C565.25,-191.42 532.69,-235.24 491.25,-253 404.76,-290.07 289.66,-254.65 239.34,-235.49"/>
<polygon fill="#63b8ff" stroke="#63b8ff" points="584.37,-167.86 586.61,-157.51 578.4,-164.21 584.37,-167.86"/>
</a>
</g>
</g>
<!-- Node6 -->
<g id="Node000006" class="node">
<title>Node6</title>
<g id="a_Node000006"><a xlink:href="class_manager.html#aa096455f1fb6db1d64381ba40b1924b0" target="_top" xlink:title=" ">
<polygon fill="white" stroke="#666666" points="261.5,-197 164.5,-197 164.5,-177 261.5,-177 261.5,-197"/>
<text xml:space="preserve" text-anchor="middle" x="213" y="-183.5" font-family="Helvetica,sans-Serif" font-size="10.00">Manager::entrance</text>
</a>
</g>
</g>
<!-- Node2&#45;&gt;Node6 -->
<g id="edge6_Node000002_Node000006" class="edge">
<title>Node2&#45;&gt;Node6</title>
<g id="a_edge6_Node000002_Node000006"><a xlink:title=" ">
<path fill="none" stroke="#63b8ff" d="M577.7,-165.11C559.56,-185.91 527.31,-217.93 491.25,-231 425.02,-255 399.98,-252.05 332.75,-231 314.16,-225.18 314.57,-213.88 296.75,-206 285.83,-201.17 273.54,-197.5 261.83,-194.73"/>
<polygon fill="#63b8ff" stroke="#63b8ff" points="580.25,-167.51 584.03,-157.61 574.9,-163 580.25,-167.51"/>
</a>
</g>
</g>
<!-- Node2&#45;&gt;Node7 -->
<g id="edge8_Node000002_Node000007" class="edge">
<title>Node2&#45;&gt;Node7</title>
<g id="a_edge8_Node000002_Node000007"><a xlink:title=" ">
<path fill="none" stroke="#63b8ff" d="M574.71,-127.75C555.47,-109.71 523.63,-82.6 491.25,-67 484.2,-63.6 476.49,-60.78 468.74,-58.45"/>
<polygon fill="#63b8ff" stroke="#63b8ff" points="572.12,-130.12 581.76,-134.51 576.96,-125.07 572.12,-130.12"/>
</a>
</g>
</g>
<!-- Node8 -->
<g id="Node000008" class="node">
<title>Node8</title>
<g id="a_Node000008"><a xlink:href="struct_road_details.html#ad2d8b3a44383c9950e6cc4b4606b9f1a" target="_top" xlink:title=" ">
<polygon fill="white" stroke="#666666" points="491.25,-222 332.75,-222 332.75,-202 491.25,-202 491.25,-222"/>
<text xml:space="preserve" text-anchor="middle" x="412" y="-208.5" font-family="Helvetica,sans-Serif" font-size="10.00">RoadDetails::vehicleEntersRoad</text>
</a>
</g>
</g>
<!-- Node2&#45;&gt;Node8 -->
<g id="edge9_Node000002_Node000008" class="edge">
<title>Node2&#45;&gt;Node8</title>
<g id="a_edge9_Node000002_Node000008"><a xlink:title=" ">
<path fill="none" stroke="#63b8ff" d="M563.65,-161.45C543.64,-171.48 516.35,-184.25 491.25,-193 482.01,-196.22 471.97,-199.1 462.26,-201.58"/>
<polygon fill="#63b8ff" stroke="#63b8ff" points="565.01,-164.69 572.33,-157.04 561.83,-158.45 565.01,-164.69"/>
</a>
</g>
</g>
<!-- Node9 -->
<g id="Node000009" class="node">
<title>Node9</title>
<g id="a_Node000009"><a xlink:href="struct_road_details.html#abd834d75bb646b28fcbc9f079dfe6448" target="_top" xlink:title=" ">
<polygon fill="white" stroke="#666666" points="488.25,-96 335.75,-96 335.75,-76 488.25,-76 488.25,-96"/>
<text xml:space="preserve" text-anchor="middle" x="412" y="-82.5" font-family="Helvetica,sans-Serif" font-size="10.00">RoadDetails::vehicleExitsRoad</text>
</a>
</g>
</g>
<!-- Node2&#45;&gt;Node9 -->
<g id="edge13_Node000002_Node000009" class="edge">
<title>Node2&#45;&gt;Node9</title>
<g id="a_edge13_Node000002_Node000009"><a xlink:title=" ">
<path fill="none" stroke="#63b8ff" d="M554.09,-131.77C535.18,-124.99 512.1,-116.88 491.25,-110 477.22,-105.37 461.67,-100.54 448.16,-96.44"/>
<polygon fill="#63b8ff" stroke="#63b8ff" points="552.67,-134.98 563.27,-135.08 555.05,-128.4 552.67,-134.98"/>
</a>
</g>
</g>
<!-- Node12 -->
<g id="Node000012" class="node">
<title>Node12</title>
<g id="a_Node000012"><a xlink:href="struct_road_details.html#ab807ac493fcc667a2d6571906da7d106" target="_top" xlink:title=" ">
<polygon fill="white" stroke="#666666" points="477,-184 347,-184 347,-152 477,-152 477,-184"/>
<text xml:space="preserve" text-anchor="start" x="355" y="-170.5" font-family="Helvetica,sans-Serif" font-size="10.00">RoadDetails::vehicleJoins</text>
<text xml:space="preserve" text-anchor="middle" x="412" y="-158.5" font-family="Helvetica,sans-Serif" font-size="10.00">Queue</text>
</a>
</g>
</g>
<!-- Node2&#45;&gt;Node12 -->
<g id="edge19_Node000002_Node000012" class="edge">
<title>Node2&#45;&gt;Node12</title>
<g id="a_edge19_Node000002_Node000012"><a xlink:title=" ">
<path fill="none" stroke="#63b8ff" d="M515.7,-155.46C502.92,-157.02 489.78,-158.62 477.36,-160.14"/>
<polygon fill="#63b8ff" stroke="#63b8ff" points="515.82,-158.97 525.32,-154.28 514.97,-152.02 515.82,-158.97"/>
</a>
</g>
</g>
<!-- Node4 -->
<g id="Node000004" class="node">
<title>Node4</title>
<g id="a_Node000004"><a xlink:href="class_manager.html#a0170cc23a3a67917aed9e6f708830fe9" target="_top" xlink:title=" ">
<polygon fill="white" stroke="#666666" points="93.25,-159 0,-159 0,-139 93.25,-139 93.25,-159"/>
<text xml:space="preserve" text-anchor="middle" x="46.62" y="-145.5" font-family="Helvetica,sans-Serif" font-size="10.00">Manager::physics</text>
</a>
</g>
</g>
<!-- Node3&#45;&gt;Node4 -->
<g id="edge3_Node000003_Node000004" class="edge">
<title>Node3&#45;&gt;Node4</title>
<g id="a_edge3_Node000003_Node000004"><a xlink:title=" ">
<path fill="none" stroke="#63b8ff" d="M128,-149C116.07,-149 104.19,-149 93.36,-149"/>
<polygon fill="#63b8ff" stroke="#63b8ff" points="127.91,-152.5 137.91,-149 127.91,-145.5 127.91,-152.5"/>
</a>
</g>
</g>
<!-- Node5&#45;&gt;Node4 -->
<g id="edge5_Node000005_Node000004" class="edge">
<title>Node5&#45;&gt;Node4</title>
<g id="a_edge5_Node000005_Node000004"><a xlink:title=" ">
<path fill="none" stroke="#63b8ff" d="M142.74,-211.22C138.11,-209.65 133.57,-207.92 129.25,-206 102.08,-193.94 74.57,-172.36 59.45,-159.49"/>
<polygon fill="#63b8ff" stroke="#63b8ff" points="141.62,-214.54 152.21,-214.14 143.68,-207.85 141.62,-214.54"/>
</a>
</g>
</g>
<!-- Node6&#45;&gt;Node4 -->
<g id="edge7_Node000006_Node000004" class="edge">
<title>Node6&#45;&gt;Node4</title>
<g id="a_edge7_Node000006_Node000004"><a xlink:title=" ">
<path fill="none" stroke="#63b8ff" d="M155.49,-174.05C146.71,-172.03 137.73,-169.96 129.25,-168 117.34,-165.25 104.46,-162.26 92.53,-159.48"/>
<polygon fill="#63b8ff" stroke="#63b8ff" points="154.46,-177.4 164.99,-176.23 156.03,-170.58 154.46,-177.4"/>
</a>
</g>
</g>
<!-- Node8&#45;&gt;Node3 -->
<g id="edge10_Node000008_Node000003" class="edge">
<title>Node8&#45;&gt;Node3</title>
<g id="a_edge10_Node000008_Node000003"><a xlink:title=" ">
<path fill="none" stroke="#63b8ff" d="M345.97,-198.2C341.43,-196.63 336.98,-194.9 332.75,-193 314.98,-185.01 314.57,-175.88 296.75,-168 289.07,-164.6 280.7,-161.78 272.34,-159.43"/>
<polygon fill="#63b8ff" stroke="#63b8ff" points="344.63,-201.45 355.22,-201.12 346.74,-194.77 344.63,-201.45"/>
</a>
</g>
</g>
<!-- Node8&#45;&gt;Node5 -->
<g id="edge11_Node000008_Node000005" class="edge">
<title>Node8&#45;&gt;Node5</title>
<g id="a_edge11_Node000008_Node000005"><a xlink:title=" ">
<path fill="none" stroke="#63b8ff" d="M321.07,-217.93C313.09,-218.46 305.03,-218.99 297.1,-219.52"/>
<polygon fill="#63b8ff" stroke="#63b8ff" points="321.03,-221.44 330.78,-217.29 320.57,-214.46 321.03,-221.44"/>
</a>
</g>
</g>
<!-- Node8&#45;&gt;Node6 -->
<g id="edge12_Node000008_Node000006" class="edge">
<title>Node8&#45;&gt;Node6</title>
<g id="a_edge12_Node000008_Node000006"><a xlink:title=" ">
<path fill="none" stroke="#63b8ff" d="M321.04,-200.58C300.67,-198 279.8,-195.35 261.96,-193.09"/>
<polygon fill="#63b8ff" stroke="#63b8ff" points="320.43,-204.03 330.79,-201.82 321.31,-197.09 320.43,-204.03"/>
</a>
</g>
</g>
<!-- Node9&#45;&gt;Node3 -->
<g id="edge14_Node000009_Node000003" class="edge">
<title>Node9&#45;&gt;Node3</title>
<g id="a_edge14_Node000009_Node000003"><a xlink:title=" ">
<path fill="none" stroke="#63b8ff" d="M360.58,-99.76C351.21,-102.79 341.58,-106.24 332.75,-110 315.91,-117.17 313.84,-123.44 296.75,-130 288.08,-133.33 278.67,-136.17 269.4,-138.56"/>
<polygon fill="#63b8ff" stroke="#63b8ff" points="361.46,-103.15 369.97,-96.83 359.38,-96.46 361.46,-103.15"/>
</a>
</g>
</g>
<!-- Node10 -->
<g id="Node000010" class="node">
<title>Node10</title>
<g id="a_Node000010"><a xlink:href="class_manager.html#ae97e60d3e65539f3ec5fc92185cf7a6a" target="_top" xlink:title=" ">
<polygon fill="white" stroke="#666666" points="281.38,-121 144.62,-121 144.62,-101 281.38,-101 281.38,-121"/>
<text xml:space="preserve" text-anchor="middle" x="213" y="-107.5" font-family="Helvetica,sans-Serif" font-size="10.00">Manager::checkBrokenPath</text>
</a>
</g>
</g>
<!-- Node9&#45;&gt;Node10 -->
<g id="edge15_Node000009_Node000010" class="edge">
<title>Node9&#45;&gt;Node10</title>
<g id="a_edge15_Node000009_Node000010"><a xlink:title=" ">
<path fill="none" stroke="#63b8ff" d="M324.09,-97.03C309.87,-98.83 295.33,-100.68 281.67,-102.41"/>
<polygon fill="#63b8ff" stroke="#63b8ff" points="324.42,-100.52 333.9,-95.78 323.54,-93.57 324.42,-100.52"/>
</a>
</g>
</g>
<!-- Node11 -->
<g id="Node000011" class="node">
<title>Node11</title>
<g id="a_Node000011"><a xlink:href="class_manager.html#a66ab5b09246caed3e30768721639ee25" target="_top" xlink:title=" ">
<polygon fill="white" stroke="#666666" points="260,-83 166,-83 166,-63 260,-63 260,-83"/>
<text xml:space="preserve" text-anchor="middle" x="213" y="-69.5" font-family="Helvetica,sans-Serif" font-size="10.00">Manager::reached</text>
</a>
</g>
</g>
<!-- Node9&#45;&gt;Node11 -->
<g id="edge17_Node000009_Node000011" class="edge">
<title>Node9&#45;&gt;Node11</title>
<g id="a_edge17_Node000009_Node000011"><a xlink:title=" ">
<path fill="none" stroke="#63b8ff" d="M324.02,-80.26C302.09,-78.81 279.38,-77.31 260.34,-76.06"/>
<polygon fill="#63b8ff" stroke="#63b8ff" points="323.68,-83.75 333.89,-80.91 324.14,-76.76 323.68,-83.75"/>
</a>
</g>
</g>
<!-- Node10&#45;&gt;Node4 -->
<g id="edge16_Node000010_Node000004" class="edge">
<title>Node10&#45;&gt;Node4</title>
<g id="a_edge16_Node000010_Node000004"><a xlink:title=" ">
<path fill="none" stroke="#63b8ff" d="M155.49,-123.95C146.71,-125.97 137.73,-128.04 129.25,-130 117.34,-132.75 104.46,-135.74 92.53,-138.52"/>
<polygon fill="#63b8ff" stroke="#63b8ff" points="156.03,-127.42 164.99,-121.77 154.46,-120.6 156.03,-127.42"/>
</a>
</g>
</g>
<!-- Node11&#45;&gt;Node4 -->
<g id="edge18_Node000011_Node000004" class="edge">
<title>Node11&#45;&gt;Node4</title>
<g id="a_edge18_Node000011_Node000004"><a xlink:title=" ">
<path fill="none" stroke="#63b8ff" d="M154.87,-83.08C146.11,-85.49 137.3,-88.43 129.25,-92 102.08,-104.06 74.57,-125.64 59.45,-138.51"/>
<polygon fill="#63b8ff" stroke="#63b8ff" points="155.58,-86.51 164.42,-80.67 153.87,-79.72 155.58,-86.51"/>
</a>
</g>
</g>
<!-- Node12&#45;&gt;Node3 -->
<g id="edge20_Node000012_Node000003" class="edge">
<title>Node12&#45;&gt;Node3</title>
<g id="a_edge20_Node000012_Node000003"><a xlink:title=" ">
<path fill="none" stroke="#63b8ff" d="M335.32,-160.7C319.35,-159.16 302.53,-157.54 286.68,-156.01"/>
<polygon fill="#63b8ff" stroke="#63b8ff" points="334.97,-164.18 345.26,-161.66 335.64,-157.22 334.97,-164.18"/>
</a>
</g>
</g>
<!-- Node12&#45;&gt;Node6 -->
<g id="edge21_Node000012_Node000006" class="edge">
<title>Node12&#45;&gt;Node6</title>
<g id="a_edge21_Node000012_Node000006"><a xlink:title=" ">
<path fill="none" stroke="#63b8ff" d="M335.57,-175.28C310.83,-177.66 284.03,-180.25 261.91,-182.38"/>
<polygon fill="#63b8ff" stroke="#63b8ff" points="335.64,-178.78 345.26,-174.34 334.97,-171.82 335.64,-178.78"/>
</a>
</g>
</g>
<!-- Node13&#45;&gt;Node11 -->
<g id="edge23_Node000013_Node000011" class="edge">
<title>Node13&#45;&gt;Node11</title>
<g id="a_edge23_Node000013_Node000011"><a xlink:title=" ">
<path fill="none" stroke="#63b8ff" d="M525.31,-9.75C472.32,-10.79 397.12,-15.02 332.75,-29 297.94,-36.56 259.64,-52.17 236.2,-62.62"/>
<polygon fill="#63b8ff" stroke="#63b8ff" points="525.15,-13.25 535.09,-9.59 525.03,-6.25 525.15,-13.25"/>
</a>
</g>
</g>
</g>
</svg>
