<?xml version="1.0" encoding="UTF-8" standalone="no"?>
<!DOCTYPE svg PUBLIC "-//W3C//DTD SVG 1.1//EN"
 "http://www.w3.org/Graphics/SVG/1.1/DTD/svg11.dtd">
<!-- Generated by graphviz version 14.1.4 (20260321.0153)
 -->
<!-- Title: RoadDetails::vehicleJoinsQueue Pages: 1 -->
<svg width="460pt" height="40pt"
 viewBox="0.00 0.00 460.00 40.00" xmlns="http://www.w3.org/2000/svg" xmlns:xlink="http://www.w3.org/1999/xlink">
<g id="graph0" class="graph" transform="scale(1 1) rotate(0) translate(4 36)">
<title>RoadDetails::vehicleJoinsQueue</title>
<!-- Node1 -->
<g id="Node000001" class="node">
<title>Node1</title>
<g id="a_Node000001"><a xlink:title=" ">
<polygon fill="#999999" stroke="#666666" points="130,-32 0,-32 0,0 130,0 130,-32"/>
<text xml:space="preserve" text-anchor="start" x="8" y="-18.5" font-family="Helvetica,sans-Serif" font-size="10.00">RoadDetails::vehicleJoins</text>
<text xml:space="preserve" text-anchor="middle" x="65" y="-6.5" font-family="Helvetica,sans-Serif" font-size="10.00">Queue</text>
</a>
</g>
</g>
<!-- Node2 -->
<g id="Node000002" class="node">
<title>Node2</title>
<g id="a_Node000002"><a xlink:href="struct_road_details.html#a915b2e8bea1bbe71934faeedf53a06fb" target="_top" xlink:title=" ">
<polygon fill="white" stroke="#666666" points="299.75,-26 166,-26 166,-6 299.75,-6 299.75,-26"/>
<text xml:space="preserve" text-anchor="middle" x="232.88" y="-12.5" font-family="Helvetica,sans-Serif" font-size="10.00">RoadDetails::NonIdealtime</text>
</a>
</g>
</g>
<!-- Node1&#45;&gt;Node2 -->
<g id="edge1_Node000001_Node000002" class="edge">
<title>Node1&#45;&gt;Node2</title>
<g id="a_edge1_Node000001_Node000002"><a xlink:title=" ">
<path fill="none" stroke="#63b8ff" d="M130.13,-16C138.06,-16 146.24,-16 154.34,-16"/>
<polygon fill="#63b8ff" stroke="#63b8ff" points="154.21,-19.5 164.21,-16 154.21,-12.5 154.21,-19.5"/>
</a>
</g>
</g>
<!-- Node3 -->
<g id="Node000003" class="node">
<title>Node3</title>
<g id="a_Node000003"><a xlink:href="struct_road_details.html#a3d1c2ac79846045deac57b0b89341471" target="_top" xlink:title=" ">
<polygon fill="white" stroke="#666666" points="452.25,-26 335.75,-26 335.75,-6 452.25,-6 452.25,-26"/>
<text xml:space="preserve" text-anchor="middle" x="394" y="-12.5" font-family="Helvetica,sans-Serif" font-size="10.00">RoadDetails::bestTime</text>
</a>
</g>
</g>
<!-- Node2&#45;&gt;Node3 -->
<g id="edge2_Node000002_Node000003" class="edge">
<title>Node2&#45;&gt;Node3</title>
<g id="a_edge2_Node000002_Node000003"><a xlink:title=" ">
<path fill="none" stroke="#63b8ff" d="M299.98,-16C307.99,-16 316.18,-16 324.23,-16"/>
<polygon fill="#63b8ff" stroke="#63b8ff" points="323.96,-19.5 333.96,-16 323.96,-12.5 323.96,-19.5"/>
</a>
</g>
</g>
</g>
</svg>
