<?xml version="1.0" encoding="UTF-8" standalone="no"?>
<!DOCTYPE svg PUBLIC "-//W3C//DTD SVG 1.1//EN"
 "http://www.w3.org/Graphics/SVG/1.1/DTD/svg11.dtd">
<!-- Generated by graphviz version 14.1.4 (20260321.0153)
 -->
<!-- Title: weighted Pages: 1 -->
<svg width="115pt" height="768pt"
 viewBox="0.00 0.00 115.00 768.00" xmlns="http://www.w3.org/2000/svg" xmlns:xlink="http://www.w3.org/1999/xlink">
<g id="graph0" class="graph" transform="scale(1 1) rotate(0) translate(4 764)">
<title>weighted</title>
<!-- Node1 -->
<g id="Node000001" class="node">
<title>Node1</title>
<g id="a_Node000001"><a xlink:title=" ">
<polygon fill="#999999" stroke="none" points="88.88,-52 17.62,-52 17.62,0 88.88,0 88.88,-52"/>
<text xml:space="preserve" text-anchor="start" x="33.75" y="-38.25" font-family="Helvetica,sans-Serif" font-size="10.00">weighted</text>
<text xml:space="preserve" text-anchor="start" x="21.62" y="-22.25" font-family="Helvetica,sans-Serif" font-size="10.00">+</text>
<text xml:space="preserve" text-anchor="start" x="31.62" y="-22.25" font-family="Helvetica,sans-Serif" font-size="10.00">index</text>
<text xml:space="preserve" text-anchor="start" x="21.62" y="-6.25" font-family="Helvetica,sans-Serif" font-size="10.00">+</text>
<text xml:space="preserve" text-anchor="start" x="31.62" y="-6.25" font-family="Helvetica,sans-Serif" font-size="10.00">operator==()</text>
<polygon fill="#666666" stroke="#666666" points="17.62,-34 17.62,-34 88.88,-34 88.88,-34 17.62,-34"/>
<polygon fill="#666666" stroke="#666666" points="17.62,-18 17.62,-18 29.62,-18 29.62,-18 17.62,-18"/>
<polygon fill="#666666" stroke="#666666" points="29.62,-18 29.62,-18 88.88,-18 88.88,-18 29.62,-18"/>
<polygon fill="none" stroke="#666666" points="17.62,0 17.62,-52 88.88,-52 88.88,0 17.62,0"/>
</a>
</g>
</g>
<!-- Node2 -->
<g id="Node000002" class="node">
<title>Node2</title>
<g id="a_Node000002"><a xlink:href="struct_road_details.html" target="_top" xlink:title=" ">
<polygon fill="white" stroke="none" points="106.5,-462 0,-462 0,-106 106.5,-106 106.5,-462"/>
<text xml:space="preserve" text-anchor="start" x="26.25" y="-448.25" font-family="Helvetica,sans-Serif" font-size="10.00">RoadDetails</text>
<text xml:space="preserve" text-anchor="start" x="4" y="-432.25" font-family="Helvetica,sans-Serif" font-size="10.00">+</text>
<text xml:space="preserve" text-anchor="start" x="14" y="-432.25" font-family="Helvetica,sans-Serif" font-size="10.00">length</text>
<text xml:space="preserve" text-anchor="start" x="4" y="-416.25" font-family="Helvetica,sans-Serif" font-size="10.00">+</text>
<text xml:space="preserve" text-anchor="start" x="14" y="-416.25" font-family="Helvetica,sans-Serif" font-size="10.00">max_speed</text>
<text xml:space="preserve" text-anchor="start" x="4" y="-400.25" font-family="Helvetica,sans-Serif" font-size="10.00">+</text>
<text xml:space="preserve" text-anchor="start" x="14" y="-400.25" font-family="Helvetica,sans-Serif" font-size="10.00">capacity</text>
<text xml:space="preserve" text-anchor="start" x="4" y="-384.25" font-family="Helvetica,sans-Serif" font-size="10.00">+</text>
<text xml:space="preserve" text-anchor="start" x="14" y="-384.25" font-family="Helvetica,sans-Serif" font-size="10.00">currentVehicles</text>
<text xml:space="preserve" text-anchor="start" x="4" y="-368.25" font-family="Helvetica,sans-Serif" font-size="10.00">+</text>
<text xml:space="preserve" text-anchor="start" x="14" y="-368.25" font-family="Helvetica,sans-Serif" font-size="10.00">queueCount</text>
<text xml:space="preserve" text-anchor="start" x="4" y="-352.25" font-family="Helvetica,sans-Serif" font-size="10.00">+</text>
<text xml:space="preserve" text-anchor="start" x="14" y="-352.25" font-family="Helvetica,sans-Serif" font-size="10.00">signalState</text>
<text xml:space="preserve" text-anchor="start" x="4" y="-336.25" font-family="Helvetica,sans-Serif" font-size="10.00">+</text>
<text xml:space="preserve" text-anchor="start" x="14" y="-336.25" font-family="Helvetica,sans-Serif" font-size="10.00">NonIdealWeight</text>
<text xml:space="preserve" text-anchor="start" x="4" y="-320.25" font-family="Helvetica,sans-Serif" font-size="10.00">+</text>
<text xml:space="preserve" text-anchor="start" x="14" y="-320.25" font-family="Helvetica,sans-Serif" font-size="10.00">a</text>
<text xml:space="preserve" text-anchor="start" x="4" y="-304.25" font-family="Helvetica,sans-Serif" font-size="10.00">+</text>
<text xml:space="preserve" text-anchor="start" x="14" y="-304.25" font-family="Helvetica,sans-Serif" font-size="10.00">b</text>
<text xml:space="preserve" text-anchor="start" x="4" y="-288.25" font-family="Helvetica,sans-Serif" font-size="10.00">+</text>
<text xml:space="preserve" text-anchor="start" x="14" y="-288.25" font-family="Helvetica,sans-Serif" font-size="10.00">dischargeCapcity</text>
<text xml:space="preserve" text-anchor="start" x="4" y="-272.25" font-family="Helvetica,sans-Serif" font-size="10.00">+</text>
<text xml:space="preserve" text-anchor="start" x="14" y="-272.25" font-family="Helvetica,sans-Serif" font-size="10.00">operator&lt;()</text>
<text xml:space="preserve" text-anchor="start" x="4" y="-256.25" font-family="Helvetica,sans-Serif" font-size="10.00">+</text>
<text xml:space="preserve" text-anchor="start" x="14" y="-256.25" font-family="Helvetica,sans-Serif" font-size="10.00">calculateWeight()</text>
<text xml:space="preserve" text-anchor="start" x="4" y="-240.25" font-family="Helvetica,sans-Serif" font-size="10.00">+</text>
<text xml:space="preserve" text-anchor="start" x="14" y="-240.25" font-family="Helvetica,sans-Serif" font-size="10.00">RoadDetails()</text>
<text xml:space="preserve" text-anchor="start" x="4" y="-224.25" font-family="Helvetica,sans-Serif" font-size="10.00">+</text>
<text xml:space="preserve" text-anchor="start" x="14" y="-224.25" font-family="Helvetica,sans-Serif" font-size="10.00">DischargeAllowed()</text>
<text xml:space="preserve" text-anchor="start" x="4" y="-208.25" font-family="Helvetica,sans-Serif" font-size="10.00">+</text>
<text xml:space="preserve" text-anchor="start" x="14" y="-208.25" font-family="Helvetica,sans-Serif" font-size="10.00">TimeCal()</text>
<text xml:space="preserve" text-anchor="start" x="4" y="-192.25" font-family="Helvetica,sans-Serif" font-size="10.00">+</text>
<text xml:space="preserve" text-anchor="start" x="14" y="-192.25" font-family="Helvetica,sans-Serif" font-size="10.00">bestTime()</text>
<text xml:space="preserve" text-anchor="start" x="4" y="-176.25" font-family="Helvetica,sans-Serif" font-size="10.00">+</text>
<text xml:space="preserve" text-anchor="start" x="14" y="-176.25" font-family="Helvetica,sans-Serif" font-size="10.00">NonIdealtime()</text>
<text xml:space="preserve" text-anchor="start" x="4" y="-160.25" font-family="Helvetica,sans-Serif" font-size="10.00">+</text>
<text xml:space="preserve" text-anchor="start" x="14" y="-160.25" font-family="Helvetica,sans-Serif" font-size="10.00">vehicleEntersRoad()</text>
<text xml:space="preserve" text-anchor="start" x="4" y="-144.25" font-family="Helvetica,sans-Serif" font-size="10.00">+</text>
<text xml:space="preserve" text-anchor="start" x="14" y="-144.25" font-family="Helvetica,sans-Serif" font-size="10.00">vehicleExitsRoad()</text>
<text xml:space="preserve" text-anchor="start" x="4" y="-128.25" font-family="Helvetica,sans-Serif" font-size="10.00">+</text>
<text xml:space="preserve" text-anchor="start" x="14" y="-128.25" font-family="Helvetica,sans-Serif" font-size="10.00">updateVehicles()</text>
<text xml:space="preserve" text-anchor="start" x="14" y="-112.25" font-family="Helvetica,sans-Serif" font-size="10.00">and 9 more...</text>
<polygon fill="#666666" stroke="#666666" points="0,-444 0,-444 106.5,-444 106.5,-444 0,-444"/>
<polygon fill="#666666" stroke="#666666" points="0,-284 0,-284 12,-284 12,-284 0,-284"/>
<polygon fill="#666666" stroke="#666666" points="12,-284 12,-284 106.5,-284 106.5,-284 12,-284"/>
<polygon fill="none" stroke="#666666" points="0,-106 0,-462 106.5,-462 106.5,-106 0,-106"/>
</a>
</g>
</g>
<!-- Node2&#45;&gt;Node1 -->
<g id="edge1_Node000001_Node000002" class="edge">
<title>Node2&#45;&gt;Node1</title>
<g id="a_edge1_Node000001_Node000002"><a xlink:title=" ">
<path fill="none" stroke="#63b8ff" d="M53.25,-106.25C53.25,-90.99 53.25,-76.82 53.25,-64.81"/>
<polygon fill="none" stroke="#63b8ff" points="53.25,-64.66 49.25,-58.66 53.25,-52.66 57.25,-58.66 53.25,-64.66"/>
</a>
</g>
<text xml:space="preserve" text-anchor="start" x="56.25" y="-75.25" font-family="Helvetica,sans-Serif" font-size="10.00" fill="grey">+weight</text>
</g>
<!-- Node3 -->
<g id="Node000003" class="node">
<title>Node3</title>
<g id="a_Node000003"><a xlink:href="struct_traffic_signal.html" target="_top" xlink:title=" ">
<polygon fill="white" stroke="none" points="97.12,-760 9.38,-760 9.38,-516 97.12,-516 97.12,-760"/>
<text xml:space="preserve" text-anchor="start" x="26.25" y="-746.25" font-family="Helvetica,sans-Serif" font-size="10.00">TrafficSignal</text>
<text xml:space="preserve" text-anchor="start" x="13.38" y="-730.25" font-family="Helvetica,sans-Serif" font-size="10.00">+</text>
<text xml:space="preserve" text-anchor="start" x="23.38" y="-730.25" font-family="Helvetica,sans-Serif" font-size="10.00">greentimer</text>
<text xml:space="preserve" text-anchor="start" x="13.38" y="-714.25" font-family="Helvetica,sans-Serif" font-size="10.00">+</text>
<text xml:space="preserve" text-anchor="start" x="23.38" y="-714.25" font-family="Helvetica,sans-Serif" font-size="10.00">minGreenTime</text>
<text xml:space="preserve" text-anchor="start" x="13.38" y="-698.25" font-family="Helvetica,sans-Serif" font-size="10.00">+</text>
<text xml:space="preserve" text-anchor="start" x="23.38" y="-698.25" font-family="Helvetica,sans-Serif" font-size="10.00">queueThreshold</text>
<text xml:space="preserve" text-anchor="start" x="13.38" y="-682.25" font-family="Helvetica,sans-Serif" font-size="10.00">+</text>
<text xml:space="preserve" text-anchor="start" x="23.38" y="-682.25" font-family="Helvetica,sans-Serif" font-size="10.00">maxGreenTime</text>
<text xml:space="preserve" text-anchor="start" x="13.38" y="-666.25" font-family="Helvetica,sans-Serif" font-size="10.00">+</text>
<text xml:space="preserve" text-anchor="start" x="23.38" y="-666.25" font-family="Helvetica,sans-Serif" font-size="10.00">redtimer</text>
<text xml:space="preserve" text-anchor="start" x="13.38" y="-650.25" font-family="Helvetica,sans-Serif" font-size="10.00">+</text>
<text xml:space="preserve" text-anchor="start" x="23.38" y="-650.25" font-family="Helvetica,sans-Serif" font-size="10.00">pa</text>
<text xml:space="preserve" text-anchor="start" x="13.38" y="-634.25" font-family="Helvetica,sans-Serif" font-size="10.00">+</text>
<text xml:space="preserve" text-anchor="start" x="23.38" y="-634.25" font-family="Helvetica,sans-Serif" font-size="10.00">pb</text>
<text xml:space="preserve" text-anchor="start" x="13.38" y="-618.25" font-family="Helvetica,sans-Serif" font-size="10.00">+</text>
<text xml:space="preserve" text-anchor="start" x="23.38" y="-618.25" font-family="Helvetica,sans-Serif" font-size="10.00">TrafficSignal()</text>
<text xml:space="preserve" text-anchor="start" x="13.38" y="-602.25" font-family="Helvetica,sans-Serif" font-size="10.00">+</text>
<text xml:space="preserve" text-anchor="start" x="23.38" y="-602.25" font-family="Helvetica,sans-Serif" font-size="10.00">Timer()</text>
<text xml:space="preserve" text-anchor="start" x="13.38" y="-586.25" font-family="Helvetica,sans-Serif" font-size="10.00">+</text>
<text xml:space="preserve" text-anchor="start" x="23.38" y="-586.25" font-family="Helvetica,sans-Serif" font-size="10.00">starvationCost()</text>
<text xml:space="preserve" text-anchor="start" x="13.38" y="-570.25" font-family="Helvetica,sans-Serif" font-size="10.00">+</text>
<text xml:space="preserve" text-anchor="start" x="23.38" y="-570.25" font-family="Helvetica,sans-Serif" font-size="10.00">turnGreen()</text>
<text xml:space="preserve" text-anchor="start" x="13.38" y="-554.25" font-family="Helvetica,sans-Serif" font-size="10.00">+</text>
<text xml:space="preserve" text-anchor="start" x="23.38" y="-554.25" font-family="Helvetica,sans-Serif" font-size="10.00">turnRed()</text>
<text xml:space="preserve" text-anchor="start" x="13.38" y="-538.25" font-family="Helvetica,sans-Serif" font-size="10.00">+</text>
<text xml:space="preserve" text-anchor="start" x="23.38" y="-538.25" font-family="Helvetica,sans-Serif" font-size="10.00">canSwitch()</text>
<text xml:space="preserve" text-anchor="start" x="13.38" y="-522.25" font-family="Helvetica,sans-Serif" font-size="10.00">+</text>
<text xml:space="preserve" text-anchor="start" x="23.38" y="-522.25" font-family="Helvetica,sans-Serif" font-size="10.00">mustSwitch()</text>
<polygon fill="#666666" stroke="#666666" points="9.38,-742 9.38,-742 97.12,-742 97.12,-742 9.38,-742"/>
<polygon fill="#666666" stroke="#666666" points="9.38,-630 9.38,-630 21.38,-630 21.38,-630 9.38,-630"/>
<polygon fill="#666666" stroke="#666666" points="21.38,-630 21.38,-630 97.12,-630 97.12,-630 21.38,-630"/>
<polygon fill="none" stroke="#666666" points="9.38,-516 9.38,-760 97.12,-760 97.12,-516 9.38,-516"/>
</a>
</g>
</g>
<!-- Node3&#45;&gt;Node2 -->
<g id="edge2_Node000002_Node000003" class="edge">
<title>Node3&#45;&gt;Node2</title>
<g id="a_edge2_Node000002_Node000003"><a xlink:title=" ">
<path fill="none" stroke="#63b8ff" d="M53.25,-516.35C53.25,-502.87 53.25,-488.9 53.25,-474.81"/>
<polygon fill="none" stroke="#63b8ff" points="53.25,-474.76 49.25,-468.76 53.25,-462.76 57.25,-468.76 53.25,-474.76"/>
</a>
</g>
<text xml:space="preserve" text-anchor="start" x="56.25" y="-485.25" font-family="Helvetica,sans-Serif" font-size="10.00" fill="grey">+light</text>
</g>
</g>
</svg>
